<?xml version="1.0" encoding="utf-8" ?>
<svg baseProfile="full" height="200mm" version="1.1" viewBox="0,0,200,200" width="200mm" xmlns="http://www.w3.org/2000/svg" xmlns:ev="http://www.w3.org/2001/xml-events" xmlns:xlink="http://www.w3.org/1999/xlink"><defs /><rect fill="#1a1a1a" height="200" width="200" x="0" y="0" /><text alignment-baseline="middle" fill="#e1ed5e" style="dominant-baseline: central; font-size:9.0px; font-family:Arial;" text-anchor="middle" x="100.0" y="100.0">2019</text><line stroke="#e1ed5e" stroke-width="0.3" x1="100.0" x2="100.0" y1="15.0" y2="10.0" /><path d="M 100.0 14.0 a86.0,86.0 0 0,1 42.46469731375804,11.215312516191453" fill="none" id="id25" stroke="none" /><text fill="#e1ed5e" style="font-size:6.75px; font-family:Arial;" text-anchor="middle"><textPath startOffset="22.20632615414155" xlink:href="#id25">January</textPath></text><path d="M 100.36148047927253 79.00311137660856 l 0.36869254869896545 -21.415807561409387 a42.41898101457643,42.41898101457643 0 0,0 0.7299566619448812,0.01885262699611152 l -0.7372758458387144 21.406288142270917" fill="#f9ff18" stroke="none" /><path d="M 102.52436894288641 79.15227682838746 l 1.2917101743604176 -10.667702202923648 a31.74562168814854,31.74562168814854 0 0,0 0.5419208480744351,0.07035687931254202 l -1.4751457509426988 10.643887000446968" fill="#ff7a0b" stroke="none" /><path d="M 103.2404852339499 79.25152402106235 l 1.9002323285238618 -12.16698178708245 a33.31447638795752,33.31447638795752 0 0,0 0.5658238447790718,0.09336578255433022 l -2.1093853794418087 12.132469741588496" fill="#ff8f0d" stroke="none" /><path d="M 105.01212808612495 79.60689891045804 l 3.6782879684461336 -14.966037796324962 a36.41142724408881,36.41142724408881 0 0,0 0.6073618720902965,0.15483006467201849 l -3.935358729221455 14.900504735484075" fill="#ffb911" stroke="none" /><path d="M 105.36241919743992 79.69619591428918 l 10.663128707479196 -40.3739559042189 a62.758336044292754,62.758336044292754 0 0,0 1.0420935355929788,0.2848435285889258 l -11.356520132295886 40.18442583480368" fill="#32ff4a" stroke="none" /><path d="M 105.71112130821622 79.79150937346287 l 2.5640766952713654 -9.0728452550236 a30.42820292106815,30.42820292106815 0 0,0 0.5028040033670113,0.14678227637642816 l -2.7198709163618036 9.027364649728467" fill="#ff6809" stroke="none" /><path d="M 106.74666289553966 80.11325718540242 l 4.901106408669452 -14.446704121028887 a36.255428672759535,36.255428672759535 0 0,0 0.5892681074482481,0.2055840721060996 l -5.149056520180974 14.360199195750578" fill="#ffb710" stroke="none" /><path d="M 107.76421540070413 80.48803036053334 l 5.311224273470749 -13.347446126103254 a35.36535489893423,35.36535489893423 0 0,0 0.5636835591621252,0.22994067703350915 l -5.540191702221263 13.254044562886165" fill="#ffab0f" stroke="none" /><path d="M 110.05341064243156 81.56283822128135 l 6.159390810855445 -11.295836694344798 a33.86600255658909,33.86600255658909 0 0,0 0.5094025908119698,0.2834819902683782 l -6.35291749073945 11.188139306516241" fill="#ff970d" stroke="none" /><path d="M 110.36928655335952 81.73862282372117 l 2.018966106261937 -3.555606394214956 a25.088833692976124,25.088833692976124 0 0,0 0.3737080551331855,0.21647582671903448 l -2.0798708938604507 3.5203264101058718" fill="#ff1b02" stroke="none" /><line stroke="#e1ed5e" stroke-width="0.3" x1="143.23703022742887" x2="145.7803849466894" y1="26.81831364943548" y2="22.513508569990506" /><path d="M 143.74570117128098 25.957352633546492 a86.0,86.0 0 0,1 28.547481713284135,27.462654790039103" fill="none" id="id26" stroke="none" /><text fill="#e1ed5e" style="font-size:6.75px; font-family:Arial;" text-anchor="middle"><textPath startOffset="19.985693538727396" xlink:href="#id26">February</textPath></text><path d="M 112.77801427241765 83.33499621200491 l 8.07165730608191 -10.527003391412142 a34.26534779301426,34.26534779301426 0 0,0 0.46497660034041555,0.36292161190231786 l -8.251666461581756 10.386503390286599" fill="#ff9c0e" stroke="none" /><path d="M 115.19652480421416 85.50635884689758 l 11.765161630093797 -11.220988546509126 a37.25821675778498,37.25821675778498 0 0,0 0.4386404146491503,0.46791101102926014 l -11.95656936671341 11.01680811860181" fill="#ffc412" stroke="none" /><path d="M 116.38621287248628 86.86637796730983 l 8.590962603181373 -6.885694492387025 a32.00987861385174,32.00987861385174 0 0,0 0.3408989872700229,0.43290709499875557 l -8.70821567104536 6.7367950034352315" fill="#ff7e0b" stroke="none" /><path d="M 116.82858285166822 87.43820079747576 l 13.06194064688598 -9.750165955608438 a37.29969415739688,37.29969415739688 0 0,0 0.3796351992020363,0.5178219850689595 l -13.227838458601642 9.523881526867983" fill="#ffc412" stroke="none" /><path d="M 117.04232023915458 87.72973835380427 l 10.990613314310568 -7.913106849671725 a34.542925866998694,34.542925866998694 0 0,0 0.343270128737745,0.48553125318768725 l -11.125196062852197 7.722749096152245" fill="#ffa00e" stroke="none" /><path d="M 117.65298651832404 88.62581576622439 l 8.153191880535443 -5.253270116434544 a30.699040403929313,30.699040403929313 0 0,0 0.2823908298937882,0.446674476587487 l -8.242410306675188 5.112147992132851" fill="#ff6b09" stroke="none" /><line stroke="#e1ed5e" stroke-width="0.3" x1="172.23445277983987" x2="176.4835382374775" y1="55.19839476539836" y2="52.563006222186495" /><path d="M 173.08426987136738 54.67131705675599 a86.0,86.0 0 0,1 12.851231095245387,41.99856678651699" fill="none" id="id27" stroke="none" /><text fill="#e1ed5e" style="font-size:6.75px; font-family:Arial;" text-anchor="middle"><textPath startOffset="22.20632615414155" xlink:href="#id27">March</textPath></text><path d="M 118.3937258080291 89.86733742301442 l 10.396434555097708 -5.727146552577973 a32.869543339705004,32.869543339705004 0 0,0 0.26873497018166675,0.4979250859780041 l -10.493477624497839 5.54734048326751" fill="#ff890c" stroke="none" /><path d="M 118.73160827565052 90.50648371742162 l 10.511188342550641 -5.3272594755768345 a32.7840898627215,32.7840898627215 0 0,0 0.2507826557562803,0.5055625310395779 l -10.60133101126033 5.145537356038307" fill="#ff880c" stroke="none" /><path d="M 119.34039704204932 91.81776055985345 l 21.2229146657844 -8.978666210197176 a44.04405680051373,44.04405680051373 0 0,0 0.28938688857254236,0.7007733046405127 l -21.37432324124314 8.61201833510336" fill="#e5ff1a" stroke="none" /><path d="M 119.61058180528143 92.48833698450437 l 11.048107822588879 -4.231881733350639 a32.83087103575288,32.83087103575288 0 0,0 0.19760340259114562,0.5294788767134909 l -11.119315813681649 4.041079719607815" fill="#ff890c" stroke="none" /><path d="M 119.7369772167798 92.82701384747503 l 14.769504521610004 -5.367663459787303 a36.71464523402912,36.71464523402912 0 0,0 0.21075416057728663,0.5958303924124718 l -14.8597117629971 5.112635440948217" fill="#ffbd11" stroke="none" /><path d="M 119.97218684219823 93.5106431181261 l 8.980119781397137 -2.917817791506671 a30.442256719273896,30.442256719273896 0 0,0 0.15763945142578642,0.4997601398844714 l -9.02901471659113 2.762807485195781" fill="#ff6809" stroke="none" /><path d="M 120.08093135843002 93.85539295169968 l 13.282479820721482 -4.064334351257544 a34.8903953833822,34.8903953833822 0 0,0 0.1707869948977513,0.5758088440321338 l -13.350472712730937 3.8350961204788803" fill="#ffa50f" stroke="none" /><path d="M 120.18372546131832 94.20196356495316 l 15.63013345756105 -4.489958181667841 a37.262250655253574,37.262250655253574 0 0,0 0.17178470580479768,0.6180009863045035 l -15.70510493393221 4.220245891944385" fill="#ffc412" stroke="none" /><path d="M 120.73433829027371 96.67025291283417 l 22.98757475174353 -3.691596471469279 a44.282106379689125,44.282106379689125 0 0,0 0.11438301415200548,0.7536411488213874 l -23.047713659334836 3.2953562102558096" fill="#e2ff1b" stroke="none" /><path d="M 120.83666639777658 97.38593545837742 l 9.687490976214235 -1.2153444401697835 a30.763428881416807,30.763428881416807 0 0,0 0.06139449737235124,0.5259905604986084 l -9.706975826590176 1.0484101413463225" fill="#ff6c0a" stroke="none" /><path d="M 120.91429891909075 98.10471618934814 l 14.05097301261516 -1.2733193580974944 a35.108550059766785,35.108550059766785 0 0,0 0.049361812517320136,0.6023391415975395 l -14.070809308951974 1.0312662992921862" fill="#ffa70f" stroke="none" /><path d="M 120.94382443527127 98.46500227214037 l 9.704113782683457 -0.7112260061836947 a30.73014217466215,30.73014217466215 0 0,0 0.034124226374447945,0.5278866782726138 l -9.71491860006232 0.5440802636580456" fill="#ff6c09" stroke="none" /><path d="M 120.96714384426684 98.82574320788733 l 16.277223670810123 -0.9115996243528528 a37.30273057817928,37.30273057817928 0 0,0 0.030386434439555493,0.6414096049721497 l -16.290503713483176 0.6312789127577033" fill="#ffc412" stroke="none" /><line stroke="#e1ed5e" stroke-width="0.3" x1="184.98032266829074" x2="189.97916517819016" y1="98.17113171792111" y2="98.06355123074" /><path d="M 185.9800911702706 98.14961562048488 a86.0,86.0 0 0,1 -9.607161424134198,41.387399972396054" fill="none" id="id28" stroke="none" /><text fill="#e1ed5e" style="font-size:6.75px; font-family:Arial;" text-anchor="middle"><textPath startOffset="21.466115282336823" xlink:href="#id28">April</textPath></text><path d="M 120.99513854157772 99.54816195383933 l 9.70315141145343 -0.20882229315466944 a30.70539819191923,30.70539819191923 0 0,0 0.006823898800447468,0.5285184822949822 l -9.705308317371593 0.04176755279922448" fill="#ff6c09" stroke="none" /><path d="M 120.99824983174949 100.27111621757518 l 16.257053388539216 0.2099008659738086 a37.25840838616594,37.25840838616594 0 0,0 -0.013799693565904344,0.641217535152922 l -16.251031632288303 -0.48970821691684546" fill="#ffc412" stroke="none" /><path d="M 120.9904718944345 100.63252640178507 l 13.18973393123132 0.39745914174689206 a34.19572108473171,34.19572108473171 0 0,0 -0.02279367432387544,0.5882034528841896 l -13.18093812405624 -0.6244398416450879" fill="#ff9b0e" stroke="none" /><path d="M 120.9764740272857 100.99374915477107 l 10.931050343717162 0.5178526203068688 a31.943309963317212,31.943309963317212 0 0,0 -0.030747183766161115,0.5490116209345549 l -10.920516809063471 -0.705935957576847" fill="#ff7d0b" stroke="none" /><path d="M 120.92983693683757 101.71520430193887 l 16.204850217112856 1.3279907000014441 a37.259173713886966,37.259173713886966 0 0,0 -0.05788550403800688,0.6387617135381517 l -16.179590116797772 -1.6067338020881665" fill="#ffc412" stroke="none" /><path d="M 120.81339534386255 102.79330883721812 l 9.706332603565698 1.3026603391989757 a30.793355735924457,30.793355735924457 0 0,0 -0.07502720326723605,0.5247400849056477 l -9.682471349281862 -1.4695458960850327" fill="#ff6d0a" stroke="none" /><path d="M 120.76222939487914 103.15116336523771 l 9.715494576329185 1.4745579581952375 a30.826757147439775,30.826757147439775 0 0,0 -0.08413979230580289,0.5239385670059383 l -9.688673029662093 -1.6415757548943806" fill="#ff6d0a" stroke="none" /><path d="M 120.5718875245553 104.21870165774334 l 16.06966460619961 3.2954254019050793 a37.40408330676438,37.40408330676438 0 0,0 -0.13477218662082563,0.6296107879213129 l -16.01055838085434 -3.571550009242561" fill="#ffc612" stroke="none" /><path d="M 120.49622156327973 104.57218783832717 l 11.130320913901539 2.482892652292148 a32.403894052876865,32.403894052876865 0 0,0 -0.1261274267394514,0.5433536533321135 l -11.085932921231535 -2.6741149629728267" fill="#ff830c" stroke="none" /><path d="M 120.41448212921028 104.9243191809786 l 7.648643220802306 1.8449824140660558 a28.868017744472752,28.868017744472752 0 0,0 -0.12068025412829164,0.48205762641755107 l -7.615751652378954 -1.9763678798810027" fill="#ff5207" stroke="none" /><path d="M 120.32669344350535 105.2749913415812 l 30.07823182497476 7.8056184045767125 a52.07455081565607,52.07455081565607 0 0,0 -0.23262922788831283,0.865699897169342 l -29.93941452074467 -8.322209234921603" fill="#88ff25" stroke="none" /><path d="M 120.13307415673323 105.97154293290107 l 9.204900494918618 2.73020692570716 a30.601261530576718,30.601261530576718 0 0,0 -0.1541330570225248,0.5037157484286059 l -9.156540665389961 -2.8882496466878234" fill="#ff6a09" stroke="none" /><path d="M 119.9155931802556 106.66101706037122 l 11.41556888242233 3.8180785473687853 a33.03714819644615,33.03714819644615 0 0,0 -0.18502245463758918,0.5377618602680658 l -11.34815559684151 -4.014013110726151" fill="#ff8c0c" stroke="none" /><path d="M 119.67450827220406 107.3425965602758 l 13.83369033394043 5.1627825029515915 a35.7656801884688,35.7656801884688 0 0,0 -0.2202241448856286,0.5749357498957042 l -13.742771909461295 -5.40014181968044" fill="#ffb010" stroke="none" /><path d="M 119.41010516605496 108.01547362559984 l 13.035041593699713 5.382867903550494 a35.10275066136233,35.10275066136233 0 0,0 -0.23543752324304348,0.5565047578264974 l -12.94045308926436 -5.606447187043155" fill="#ffa70f" stroke="none" /><path d="M 119.26925614724726 108.34839909993367 l 8.977100547935168 3.8893259584959265 a30.78341405947679,30.78341405947679 0 0,0 -0.21483732251547627,0.48440144687564246 l -8.908822140688418 -4.043275741864257" fill="#ff6d0a" stroke="none" /><path d="M 118.81262510543309 109.33194174019688 l 9.687981526901215 4.805691852278286 a31.814419089559692,31.814419089559692 0 0,0 -0.24757879464728383,0.488496449645425 l -9.603824062467663 -4.971742513626405" fill="#ff7b0b" stroke="none" /><path d="M 118.64920377521936 109.65438752849418 l 7.994147514050011 4.13843931305745 a30.001837280480657,30.001837280480657 0 0,0 -0.24136834081819536,0.4565779387938411 l -7.921726665006923 -4.275432266937425" fill="#ff6209" stroke="none" /><line stroke="#e1ed5e" stroke-width="0.3" x1="174.80103733775053" x2="179.2010983576182" y1="140.37084112569926" y2="142.7455964860345" /><path d="M 175.68104954172406 140.8457921977663 a86.0,86.0 0 0,1 -30.038265399797805,32.042727171017184" fill="none" id="id29" stroke="none" /><text fill="#e1ed5e" style="font-size:6.75px; font-family:Arial;" text-anchor="middle"><textPath startOffset="22.206326154141568" xlink:href="#id29">May</textPath></text><path d="M 118.48025628344425 109.97397251340804 l 7.762814988996755 4.189666103077191 a29.821258334765325,29.821258334765325 0 0,0 -0.24769195016304119,0.44963283653628 l -7.689546629382205 -4.322669458011276" fill="#ff5f08" stroke="none" /><path d="M 118.30583269289576 110.29060199501025 l 7.788511150543912 4.378302245439577 a29.93478799382325,29.93478799382325 0 0,0 -0.2563672317281346,0.4469978777762739 l -7.711991922663398 -4.511719969074165" fill="#ff6108" stroke="none" /><path d="M 117.75023020441432 111.22182372390056 l 13.556095858480127 8.570261701187984 a37.03798991616941,37.03798991616941 0 0,0 -0.34532658551789625,0.5359545294214724 l -13.406564409585181 -8.80233783053091" fill="#ffc111" stroke="none" /><path d="M 117.55443506779139 111.5257021239791 l 10.130744275100566 6.651535088318077 a33.119195460038156,33.119195460038156 0 0,0 -0.31699311613157216,0.4738616984259093 l -10.014748053558273 -6.824933700949794" fill="#ff8d0d" stroke="none" /><path d="M 117.35343817320211 111.8261652097733 l 9.964606388328347 6.790762742377562 a33.05851728437528,33.05851728437528 0 0,0 -0.3245072744555219,0.4674769317493657 l -9.846238206710689 -6.961280936313948" fill="#ff8c0c" stroke="none" /><path d="M 117.14729908036423 112.12312394758627 l 13.376419373727398 9.45711562401622 a37.38186897725169,37.38186897725169 0 0,0 -0.3759907679411007,0.5222182915883113 l -13.211648813410696 -9.685967521055662" fill="#ffc512" stroke="none" /><path d="M 116.93607887273984 112.41649034213515 l 50.80823661821952 37.24947102640542 a84.0,84.0 0 0,0 -0.8649549332196318,1.15874848196274 l -50.159520418304794 -38.11853238787748" fill="#4dd2ff" stroke="none" /><path d="M 116.27256486870786 113.27417163493432 l 12.271578862466319 10.010409874921269 a36.83666485222351,36.83666485222351 0 0,0 -0.4050349173790154,0.4878906501961334 l -12.09744794519376 -10.220161782231171" fill="#ffbe11" stroke="none" /><path d="M 116.0416608686014 113.55231037782055 l 9.107814718301292 7.69446087516391 a32.92296175882208,32.92296175882208 0 0,0 -0.36945440693243964,0.4297589419772568 l -8.974017801798073 -7.850096916302695" fill="#ff8a0c" stroke="none" /><path d="M 115.80600337817218 113.82643327865902 l 7.2364962893616 6.330185482200766 a30.614474857474512,30.614474857474512 0 0,0 -0.35037705260273566,0.39365233292080587 l -7.126460387110526 -6.453811984862438" fill="#ff6a09" stroke="none" /><path d="M 115.32070863581623 114.36230785411682 l 7.039512836952316 6.599149746308713 a30.649016444997013,30.649016444997013 0 0,0 -0.3641299433192921,0.38178878979794884 l -6.924876342254059 -6.71934565268917" fill="#ff6b09" stroke="none" /><path d="M 115.07121518719521 114.62390073753431 l 8.537464536041016 8.284072145115355 a32.89597209183151,32.89597209183151 0 0,0 -0.3978209766967655,0.4029905490652579 l -8.393602934288714 -8.429803188161278" fill="#ff8a0c" stroke="none" /><path d="M 114.81725581225074 114.88116024355365 l 6.396164641824994 6.423750266932289 a30.065069752475427,30.065069752475427 0 0,0 -0.3698720096370045,0.36199760916852886 l -6.284642679812195 -6.53289797902339" fill="#ff6309" stroke="none" /><path d="M 114.29624159901734 115.38237550388516 l 6.213248447397336 6.685289980225757 a30.12674960699549,30.12674960699549 0 0,0 -0.3828972877717179,0.34976759397239615 l -6.097251610158755 -6.791250340784736" fill="#ff6409" stroke="none" /><path d="M 113.75828350139079 115.86535959552629 l 10.644462512324456 12.274658059056215 a37.24720938016847,37.24720938016847 0 0,0 -0.48799967626893276,0.41588391104326555 l -10.431597359478475 -12.456066360322428" fill="#ffc412" stroke="none" /><path d="M 113.20401910651253 116.32954008644616 l 4.615905897472761 5.708536149487066 a28.34125140724144,28.34125140724144 0 0,0 -0.38198946942064377,0.30347553695919516 l -4.516958935334766 -5.787145600451387" fill="#ff4a06" stroke="none" /><path d="M 112.63410532772338 116.77436683061366 l 6.299154033759246 8.363419311769956 a31.470249477711217,31.470249477711217 0 0,0 -0.4355108325190575,0.32218050230406625 l -6.154258230821624 -8.47060976281379" fill="#ff760a" stroke="none" /><path d="M 112.34349029814194 116.9893568818739 l 8.967096464808037 12.342149453282753 a36.25573571271935,36.25573571271935 0 0,0 -0.5080510585231689,0.36248094066404246 l -8.753318078435983 -12.494674655791016" fill="#ffb710" stroke="none" /><path d="M 111.45004920935366 117.60387380957326 l 4.900503514011831 7.534277266997373 a29.987784411457348,29.987784411457348 0 0,0 -0.43513445840306825,0.2777233990271792 l -4.770087253561832 -7.617515094848361" fill="#ff6209" stroke="none" /><path d="M 111.1453310114006 117.79835938074945 l 11.465797422720879 18.31012312758685 a42.60382187221195,42.60382187221195 0 0,0 -0.624898252334292,0.3838635454958048 l -11.148919970454278 -18.504775139911033" fill="#f7ff19" stroke="none" /><line stroke="#e1ed5e" stroke-width="0.3" x1="143.8653032363475" x2="146.44561519142675" y1="172.8068346515853" y2="177.08958963109032" /><path d="M 144.38136562736335 173.6633856474863 a86.0,86.0 0 0,1 -40.68145358897372,12.25698825130547" fill="none" id="id30" stroke="none" /><text fill="#e1ed5e" style="font-size:6.75px; font-family:Arial;" text-anchor="middle"><textPath startOffset="21.466115282336833" xlink:href="#id30">June</textPath></text><path d="M 110.8373102113329 117.98757091392108 l 10.129855287387672 16.813350063477923 a40.62912908155808,40.62912908155808 0 0,0 -0.6021471591579045,0.3557591553323067 l -9.838940257201386 -16.985227791103977" fill="#ffef16" stroke="none" /><path d="M 109.89434966115114 118.52300852407294 l 4.4480166496749405 8.327040496723425 a30.440574958648302,30.440574958648302 0 0,0 -0.46430443293234264,0.24290213492750476 l -4.304021314216103 -8.402372050595647" fill="#ff6809" stroke="none" /><path d="M 109.57404056367764 118.69057910512821 l 4.364570680823617 8.520577391257836 a30.57338583304357,30.57338583304357 0 0,0 -0.4704604838502514,0.23589865320195263 l -4.217256289290605 -8.594443885369092" fill="#ff6a09" stroke="none" /><path d="M 109.2508944713604 118.85261126421891 l 4.996288103880411 10.182050792829674 a32.341827593679085,32.341827593679085 0 0,0 -0.5018948526905015,0.24094002939141035 l -4.8202805831896764 -10.266545098720645" fill="#ff820c" stroke="none" /><path d="M 108.92500713936063 119.00905698771935 l 9.45101191771244 20.129375957931238 a43.23765731196708,43.23765731196708 0 0,0 -0.6764263911915255,0.31051417957662314 l -9.103117530753496 -20.289077207841935" fill="#efff19" stroke="none" /><path d="M 108.59647513512805 119.15986991738527 l 2.6525703321539527 5.912062992319486 a27.479862513369937,27.479862513369937 0 0,0 -0.4332387781630572,0.1899191486326152 l -2.5504108793331417 -5.956846694246555" fill="#ff3e05" stroke="none" /><path d="M 108.2653958097858 119.30500536409082 l 2.5809331635574098 6.028135822345682 a27.557410882916955,27.557410882916955 0 0,0 -0.4376753824670511,0.1829483453677519 l -2.476786321592898 -6.071669210733407" fill="#ff3f05" stroke="none" /><path d="M 107.93186726928326 119.44442032107085 l 5.059776030730059 12.403688631174603 a34.39600034115708,34.39600034115708 0 0,0 -0.5501376944310209,0.21891114216217017 l -4.845517260257171 -12.488946617742842" fill="#ff9e0e" stroke="none" /><path d="M 107.2578585660854 119.70592522655815 l 3.8944715630261375 10.573940607848302 a32.268324131543366,32.268324131543366 0 0,0 -0.5228704530106527,0.18748274160996187 l -3.7118815493857498 -10.639410890498224" fill="#ff810b" stroke="none" /><path d="M 106.91757812671514 119.82793768551818 l 4.770647661961613 13.67416497916094 a35.4824675726166,35.4824675726166 0 0,0 -0.5784153619133345,0.19622989530323326 l -4.534562567111052 -13.754257861362296" fill="#ffac10" stroke="none" /><path d="M 106.57524785965236 119.94407469862006 l 3.9195945506742857 11.888933797711635 a33.518385210882656,33.518385210882656 0 0,0 -0.5495078369107809,0.17593505649328503 l -3.714365368672565 -11.954641700864627" fill="#ff920d" stroke="none" /><path d="M 105.53697534728816 120.25689768951611 l 2.5285595819294024 9.25067740785155 a30.59002847042187,30.59002847042187 0 0,0 -0.5091193954800397,0.13446305966045685 l -2.3689497436378653 -9.292831816815589" fill="#ff6a09" stroke="none" /><path d="M 104.83641907484287 120.43548508189849 l 2.082523689761713 8.799357776126625 a30.042433421966614,30.042433421966614 0 0,0 -0.5042548783071276,0.11476676858976695 l -1.9307486620617236 -8.833901278294077" fill="#ff6209" stroke="none" /><path d="M 104.13013068566511 120.58985236759428 l 1.899884981801938 9.471456055006625 a30.660126435300846,30.660126435300846 0 0,0 -0.5183494202789527,0.09934290007847925 l -1.736567946951281 -9.502756153433573" fill="#ff6b09" stroke="none" /><path d="M 103.41894727170886 120.7198165907248 l 1.8029037589581751 10.926122062616802 a32.073870384435025,32.073870384435025 0 0,0 -0.5455064865042426,0.08519689428444387 l -1.6145614088454154 -10.95553726424835" fill="#ff7e0b" stroke="none" /><path d="M 102.70371172650421 120.8252237178851 l 1.2633495933985097 9.730896107936893 a30.812562930172806,30.812562930172806 0 0,0 -0.526561136244887,0.06375922051178624 l -1.0956610341022426 -9.751200857174029" fill="#ff6d0a" stroke="none" /><path d="M 102.34483914955558 120.86867818915974 l 1.237181861123539 11.01071266493744 a32.080000557188924,32.080000557188924 0 0,0 -0.5492820238685353,0.05693532765266921 l -1.047467240649401 -11.030377361045868" fill="#ff7f0b" stroke="none" /><path d="M 101.26447882468166 120.96189622390904 l 0.7116614566529558 11.797566957810304 a32.819012147929406,32.819012147929406 0 0,0 -0.5641930937278796,0.029162338502571723 l -0.5084802945115965 -11.808069103075079" fill="#ff890c" stroke="none" /><line stroke="#e1ed5e" stroke-width="0.3" x1="102.19456741930631" x2="102.32365962044197" y1="184.97166512339345" y2="189.96999836594603" /><path d="M 102.22038585953345 185.97133177190398 a86.0,86.0 0 0,1 -42.740103519485714,-10.115201625700543" fill="none" id="id31" stroke="none" /><text fill="#e1ed5e" style="font-size:6.75px; font-family:Arial;" text-anchor="middle"><textPath startOffset="22.20632615414155" xlink:href="#id31">July</textPath></text><path d="M 100.54218724476979 120.99299961872073 l 0.18632307571933088 7.214260931563502 a28.2166666181298,28.2166666181298 0 0,0 -0.48564955869771614,0.00836089757798523 l -0.06211382712894677 -7.216399306420647" fill="#ff4906" stroke="none" /><path d="M 100.18074693466247 120.99922214144158 l 0.0747172175000463 8.680664217094064 a29.680985768478614,29.680985768478614 0 0,0 -0.5109283043249975,0.0 l 0.07471721750004032 -8.680664217094064" fill="#ff5d08" stroke="none" /><path d="M 99.45781275523022 120.99299961872073 l -0.3133120226251689 12.13115807308161 a33.13520336119731,33.13520336119731 0 0,0 -0.5700511722629786,-0.019633714981702518 l 0.5220835465627905 -12.123967559673812" fill="#ff8d0d" stroke="none" /><path d="M 98.01472825383883 120.90594882070398 l -1.1393202179507578 11.997637206558073 a33.05161188800975,33.05161188800975 0 0,0 -0.5659182030748271,-0.05865973564862904 l 1.3456710176311784 -11.976248102453685" fill="#ff8c0c" stroke="none" /><path d="M 97.65516085044442 120.86867818915974 l -1.2824482618326818 11.41357609774892 a32.485399117287265,32.485399117287265 0 0,0 -0.555148518782143,-0.06722075441846408 l 1.478724203666214 -11.389809814605107" fill="#ff840c" stroke="none" /><path d="M 96.22490169976321 120.6578951692458 l -2.68538923512005 14.694846304863505 a35.93820013481073,35.93820013481073 0 0,0 -0.6075821391362707,-0.11644456302314202 l 2.937938988828016 -14.646444543491894" fill="#ffb210" stroke="none" /><path d="M 95.86986931433489 120.58985236759428 l -2.2072264271876803 11.003638803823561 a32.22283009877131,32.22283009877131 0 0,0 -0.5428910678978784,-0.11376810170898519 l 2.3963089565149454 -10.964014721388034" fill="#ff810b" stroke="none" /><path d="M 95.16358092515715 120.4354850818985 l -2.0837377818317258 8.804487720409986 a30.047705077105643,30.047705077105643 0 0,0 -0.5022927699201282,-0.12345134212399089 l 2.2349838364950645 -8.767315119971965" fill="#ff6209" stroke="none" /><path d="M 94.81253420990036 120.34920634021253 l -1.418238552405637 5.563415762206364 a26.74134091782537,26.74134091782537 0 0,0 -0.44506448680076893,-0.11754557609225626 l 1.513793482017895 -5.538178836810525" fill="#ff3304" stroke="none" /><path d="M 93.42475214034765 119.94407469862007 l -5.099027516663229 15.466395769912085 a37.28525344375221,37.28525344375221 0 0,0 -0.6078033699477579,-0.20619990322399304 l 5.364500619548212 -15.376332879789969" fill="#ffc412" stroke="none" /><path d="M 92.06813273071674 119.44442032107085 l -5.9842982103736775 14.670090380830656 a36.843717267498235,36.843717267498235 0 0,0 -0.5851633927103254,-0.24459834561107321 l 6.235933062581465 -14.56490699219961" fill="#ffbe11" stroke="none" /><path d="M 91.7346041902142 119.30500536409082 l -6.277686126021447 14.66242719960719 a36.94979982572267,36.94979982572267 0 0,0 -0.5825387998967474,-0.2553678906374682 l 6.529145600575937 -14.55219475567527" fill="#ffc011" stroke="none" /><path d="M 91.07499286063937 119.00905698771935 l -2.598537059396697 5.53453216064442 a27.114199954717332,27.114199954717332 0 0,0 -0.42077020393098996,-0.20199526805006124 l 2.6934199313279295 -5.4889826160947965" fill="#ff3905" stroke="none" /><path d="M 90.10565033884886 118.52300852407294 l -4.569619255901495 8.554690235091568 a30.698667184839202,30.698667184839202 0 0,0 -0.463955079547843,-0.25298530165962557 l 4.7161971473179785 -8.474764281672178" fill="#ff6b09" stroke="none" /><line stroke="#e1ed5e" stroke-width="0.3" x1="58.666819895761336" x2="56.23545636021788" y1="174.27360380694188" y2="178.64263932499728" /><path d="M 58.180547188652646 175.14741091055294 a86.0,86.0 0 0,1 -31.652253787137756,-30.449443065178592" fill="none" id="id32" stroke="none" /><text fill="#e1ed5e" style="font-size:6.75px; font-family:Arial;" text-anchor="middle"><textPath startOffset="22.20632615414155" xlink:href="#id32">August</textPath></text><path d="M 89.7882731507175 118.34994917583269 l -2.0805161942048596 3.7385808479433127 a25.27849674429667,25.27849674429667 0 0,0 -0.3783965058070432,-0.21486341153941094 l 2.14456146693311 -3.702214270609269" fill="#ff1e03" stroke="none" /><path d="M 88.24862548938628 117.40417183066458 l -4.240342762469757 6.28008697980679 a28.57759851253472,28.57759851253472 0 0,0 -0.405316236712838,-0.27878020348185345 l 4.347815883805485 -6.206165986959835" fill="#ff4e07" stroke="none" /><path d="M 87.65650970185807 116.9893568818739 l -5.3303010556721 7.336530003695492 a30.06844980353441,30.06844980353441 0 0,0 -0.4161115918629556,-0.3078294078370293 l 5.45579761795362 -7.243690647118696" fill="#ff6309" stroke="none" /><path d="M 86.79598089348748 116.32954008644616 l -10.236053655903927 12.659028069616678 a37.27967401743312,37.27967401743312 0 0,0 -0.4955176483991435,-0.4077772899627392 l 10.45244143284776 -12.480955660796758" fill="#ffc412" stroke="none" /><path d="M 86.24171649860922 115.8653595955263 l -6.960250081597689 8.026209839924864 a31.62379996013137,31.62379996013137 0 0,0 -0.40818441949266454,-0.3601752914136114 l 7.097376853996941 -7.905211406738963" fill="#ff780b" stroke="none" /><path d="M 85.97065885151581 115.62618273729859 l -6.050417612582389 6.7390856242309995 a30.056645534488148,30.056645534488148 0 0,0 -0.3820062968890447,-0.34895369492626194 l 6.165523458938289 -6.633939162718162" fill="#ff6309" stroke="none" /><path d="M 85.44109423537348 115.13401014063109 l -7.757751862539602 8.064197766938833 a32.18990614728461,32.18990614728461 0 0,0 -0.39601256124617584,-0.3875816407749074 l 7.895414376161572 -7.929466023241354" fill="#ff800b" stroke="none" /><path d="M 84.9287848128048 114.62390073753433 l -18.50853142286249 17.95919724876864 a46.78950370308175,46.78950370308175 0 0,0 -0.5558892684832811,-0.5828476755887115 l 18.81492724272473 -17.637942456597425" fill="#c4ff1e" stroke="none" /><path d="M 84.67929136418377 114.36230785411682 l -12.894096706678932 12.0874948283494 a38.67385812737451,38.67385812737451 0 0,0 -0.4511095459506646,-0.4895903169120644 l 13.100252660625326 -11.863753256635992" fill="#ffd614" stroke="none" /><path d="M 84.43433777217949 114.09645910891817 l -8.884905001589413 8.046281501449778 a32.98683373071644,32.98683373071644 0 0,0 -0.37752826501425646,-0.4241570078931797 l 9.022092116252008 -7.892150323815734" fill="#ff8b0c" stroke="none" /><path d="M 83.95833913139862 113.55231037782056 l -7.380312499271436 6.235033048928647 a30.661503491079152,30.661503491079152 0 0,0 -0.3371363716842131,-0.4061024779052752 l 7.486544870849185 -6.107069313909611" fill="#ff6b09" stroke="none" /><path d="M 83.06392112726016 112.41649034213515 l -11.486754438416664 8.421381160231059 a35.24307509544128,35.24307509544128 0 0,0 -0.3544785542371983,-0.49233970826497103 l 11.630012785029471 -8.22240784651495" fill="#ffa90f" stroke="none" /><path d="M 82.6465618267979 111.8261652097733 l -13.683744671478948 9.325311996280014 a37.55917606833723,37.55917606833723 0 0,0 -0.35948941681273316,-0.5373879019704518 l 13.842237193702411 -9.08838718010374" fill="#ffc812" stroke="none" /><path d="M 82.44556493220864 111.52570212397912 l -15.118563497364917 9.926383773682767 a39.08601827507336,39.08601827507336 0 0,0 -0.36442153753406087,-0.5655903189938251 l 15.287189898276024 -9.664671854767494" fill="#ffdb14" stroke="none" /><path d="M 82.05923443525364 110.91462005526583 l -6.453856667772075 3.9263315250210753 a28.55435934626626,28.55435934626626 0 0,0 -0.25184825871968786,-0.4221121678989738 l 6.520485802189994 -3.8146572632359903" fill="#ff4d07" stroke="none" /><line stroke="#e1ed5e" stroke-width="0.3" x1="26.63291911575756" x2="22.317208475507996" y1="142.92168965132927" y2="145.44649492493687" /><path d="M 25.769776987707644 143.4266507060508 a86.0,86.0 0 0,1 -11.730757126820373,-40.83630448921669" fill="none" id="id33" stroke="none" /><text fill="#e1ed5e" style="font-size:6.75px; font-family:Arial;" text-anchor="middle"><textPath startOffset="21.46611528233685" xlink:href="#id33">September</textPath></text><path d="M 81.87401531095188 110.60418214915194 l -12.132206611617349 7.097662884955899 a35.05586196913772,35.05586196913772 0 0,0 -0.3002250856336769,-0.5234677428501011 l 12.252583693403402 -6.887775296247491" fill="#ffa70f" stroke="none" /><path d="M 81.51974371655577 109.97397251340807 l -6.724233032814369 3.629133406722512 a28.641067933435828,28.641067933435828 0 0,0 -0.23042078995783946,-0.4358692982583012 l 6.785706330997094 -3.5128490933780845" fill="#ff4f07" stroke="none" /><path d="M 81.35079622478065 109.6543875284942 l -7.7273613004684645 4.000328457268624 a29.701421747853097,29.701421747853097 0 0,0 -0.2311355167272981,-0.4560523023351194 l 7.795075486982029 -3.8667219432308197" fill="#ff5e08" stroke="none" /><path d="M 81.18737489456691 109.33194174019688 l -12.955905341951036 6.426734874319885 a35.462309786973684,35.462309786973684 0 0,0 -0.2665528625139893,-0.5491778471287719 l 13.064611461079744 -6.202768071225829" fill="#ffac0f" stroke="none" /><path d="M 80.87730276802145 108.67885076344099 l -10.35370796066627 4.699038276284851 a32.37014640436763,32.37014640436763 0 0,0 -0.22591112114827527,-0.5093699393951554 l 10.433060166545824 -4.520120000397" fill="#ff830c" stroke="none" /><path d="M 80.73074385275274 108.34839909993369 l -10.50948830500531 4.553232467087414 a32.4534392359842,32.4534392359842 0 0,0 -0.2176683368249273,-0.5145036500668825 l 10.586307623022543 -4.371654291354372" fill="#ff840c" stroke="none" /><path d="M 80.45479744820244 107.68017299344265 l -15.492863350498975 6.087830012519181 a37.646035235411574,37.646035235411574 0 0,0 -0.23180227174109685,-0.6051625856020715 l 15.595359901833582 -5.820243860083951" fill="#ffc912" stroke="none" /><path d="M 80.20201598880116 107.00284435728193 l -7.877032217916898 2.7862246271218742 a29.35527882448463,29.35527882448463 0 0,0 -0.1644023785703561,-0.4778302671730278 l 7.923825427430482 -2.6502216568595496" fill="#ff5908" stroke="none" /><path d="M 79.76711848015287 105.62410040840567 l -9.542678303841965 2.6525624090308546 a30.90448365864772,30.90448365864772 0 0,0 -0.13805757436580596,-0.5137635928934434 l 9.586923954549546 -2.4879078829618724" fill="#ff6e0a" stroke="none" /><path d="M 79.67330655649465 105.27499134158121 l -7.9234740103911285 2.0562250774442328 a29.185933176031565,29.185933176031565 0 0,0 -0.12200927212362186,-0.48736639266868237 l 7.957694596809809 -1.9195308453781585" fill="#ff5608" stroke="none" /><path d="M 79.50377843672027 104.57218783832718 l -7.716710007670355 1.721402529731547 a28.906379703242564,28.906379703242564 0 0,0 -0.10415376224962684,-0.4865717026573971 l 7.745197808644423 -1.588317007657986" fill="#ff5207" stroke="none" /><path d="M 79.4281124754447 104.21870165774334 l -13.674342268923931 2.8042137761836847 a34.95891297308705,34.95891297308705 0 0,0 -0.11581399612550047,-0.5905330711346963 l 13.720586198025098 -2.5684169779810335" fill="#ffa60f" stroke="none" /><path d="M 79.29508885075956 103.50808413554451 l -38.82821745858118 6.578760599169148 a60.381601821561915,60.381601821561915 0 0,0 -0.1648079754889057,-1.0262594206909301 l 38.93570718843137 -5.909421948785004" fill="#31ff2f" stroke="none" /><path d="M 79.18660465613746 102.79330883721812 l -15.75519583036175 2.1144617213081967 a36.896450673780166,36.896450673780166 0 0,0 -0.07906117116515339,-0.6301953231664441 l 15.78925851077375 -1.842948643854344" fill="#ffbf11" stroke="none" /><path d="M 79.1416061653843 102.43462659150553 l -6.842134219390476 0.7986253421647944 a27.88858498628724,27.88858498628724 0 0,0 -0.051550984931428054,-0.4772980962619275 l 6.854867505822956 -0.6807309240180849" fill="#ff4406" stroke="none" /><path d="M 79.10278846688536 102.07522291339032 l -10.872800561807322 1.079736634853437 a31.926281309644295,31.926281309644295 0 0,0 -0.04960037224280043,-0.5473359745669525 l 10.889775530327197 -0.8924192717379181" fill="#ff7c0b" stroke="none" /><path d="M 79.0235259727143 100.99374915477108 l -10.730372086920182 0.5083455960179742 a31.74240663765558,31.74240663765558 0 0,0 -0.021158380528431556,-0.5460037862883396 l 10.737532600299815 -0.32356456271563794" fill="#ff7a0b" stroke="none" /><path d="M 79.0095281055655 100.63252640178507 l -7.639975043061595 0.2302228338657233 a28.643443020775205,28.643443020775205 0 0,0 -0.010608900204816678,-0.4929539056449198 l 7.642806005951419 -0.09867911243067465" fill="#ff4f07" stroke="none" /><line stroke="#e1ed5e" stroke-width="0.3" x1="15.007084014347285" x2="10.007500721073583" y1="101.09737516637583" y2="101.16192664675087" /><path d="M 14.007167355692545 101.11028546245083 a86.0,86.0 0 0,1 10.666146001902534,-42.60595125391555" fill="none" id="id34" stroke="none" /><text fill="#e1ed5e" style="font-size:6.75px; font-family:Arial;" text-anchor="middle"><textPath startOffset="22.20632615414155" xlink:href="#id34">October</textPath></text><path d="M 79.00019446554 99.90962569577889 l -6.573853087398807 -0.028291090498462932 a27.573913963576373,27.573913963576373 0 0,0 0.006127964771654034,-0.4746176248187104 l 6.572392115509437 0.1414449733776453" fill="#ff3f05" stroke="none" /><path d="M 79.01574976396665 99.18683210126434 l -16.51737773963059 -0.640070586181563 a37.529774885004905,37.529774885004905 0 0,0 0.0305713824805472,-0.6453135658054289 l 16.503912748916544 0.924295258610001" fill="#ffc712" stroke="none" /><path d="M 79.03285615573316 98.82574320788736 l -23.0828500159565 -1.292746099033698 a44.11902154797451,44.11902154797451 0 0,0 0.04899188133153932,-0.7578827198789458 l 23.057177543620547 1.6898878831656556" fill="#e4ff1a" stroke="none" /><path d="M 79.05617556472873 98.46500227214037 l -17.74762467362904 -1.3007444573039504 a38.79522738543156,38.79522738543156 0 0,0 0.05454519589975474,-0.6655895478919361 l 17.72260499390979 1.606047922403665" fill="#ffd814" stroke="none" /><path d="M 79.12142395522702 97.74499172005258 l -10.879198812307754 -1.1750170772345365 a31.942469187962615,31.942469187962615 0 0,0 0.06374750513625005,-0.5461496940620545 l 10.857360954167914 1.3621105096214527" fill="#ff7d0b" stroke="none" /><path d="M 79.16333360222342 97.38593545837743 l -13.072781778217344 -1.6400461885042235 a34.17525616150664,34.17525616150664 0 0,0 0.07825157378422164,-0.5830651160909316 l 13.042614205375289 1.8648296466598144" fill="#ff9b0e" stroke="none" /><path d="M 79.26566170972629 96.67025291283419 l -6.30921932921055 -1.0132035269041484 a27.390057114847647,27.390057114847647 0 0,0 0.07876355057240096,-0.4648669340272796 l 6.290843917117926 1.121656249247256" fill="#ff3d05" stroke="none" /><path d="M 79.32604984820605 96.31383870115002 l -14.656007319153021 -2.613163259989582 a35.88714790557366,35.88714790557366 0 0,0 0.11366703161328372,-0.6072138280092115 l 14.608854563629876 2.865055165461366" fill="#ffb210" stroke="none" /><path d="M 79.46518482838121 95.60439243477599 l -4.197021811733421 -0.8983991661421549 a25.292098921261136,25.292098921261136 0 0,0 0.09479191188585531,-0.42493355415823125 l 4.180935512845528 0.9705108898503454" fill="#ff1e03" stroke="none" /><path d="M 79.62865764111835 94.90015583598534 l -4.886734242239792 -1.2233647968471588 a26.03753838500947,26.03753838500947 0 0,0 0.11258590449650159,-0.43383941670587983 l 4.864952005872984 1.3073006391019026" fill="#ff2904" stroke="none" /><path d="M 79.71946130924805 94.55025226153421 l -5.949657424471662 -1.5987806136750313 a27.160724220352172,27.160724220352172 0 0,0 0.12521511550136938,-0.45046539223352455 l 5.921255538403932 1.7009573093274983" fill="#ff3905" stroke="none" /><path d="M 79.81627453868168 94.20196356495316 l -10.466271111941465 -3.006571872096365 a31.889550285055,31.889550285055 0 0,0 0.15609798633634947,-0.5262848094604089 l 10.41296722849341 3.186286068303313" fill="#ff7c0b" stroke="none" /><path d="M 80.02781315780177 93.51064311812611 l -36.04764307237612 -11.71258923698867 a58.902734963427754,58.902734963427754 0 0,0 0.3216165235786032,-0.9615924693762277 l 35.840689255025744 12.33135480928722" fill="#40ff2d" stroke="none" /><path d="M 80.2630227832202 92.82701384747504 l -2.1063490633553097 -0.7655079345679376 a23.241140061349192,23.241140061349192 0 0,0 0.1398844505593114,-0.3748207813256878 l 2.092860024294371 0.8016518529229669" fill="#ff0000" stroke="none" /><path d="M 80.38941819471856 92.48833698450439 l -3.033283753244621 -1.161872993417003 a24.248193217856592,24.248193217856592 0 0,0 0.15265559748169874,-0.38849184464893577 l 3.012834605881231 1.213913842961702" fill="#ff0f01" stroke="none" /><path d="M 80.65960295795068 91.81776055985345 l -7.941755094357484 -3.359876305318655 a29.623238531189706,29.623238531189706 0 0,0 0.2027206943561058,-0.4679073124243256 l 7.882743690158698 3.49608276232958" fill="#ff5c08" stroke="none" /><path d="M 80.803312248108 91.48605970444005 l -7.958545976764991 -3.5297019028174637 a29.706161587464102,29.706161587464102 0 0,0 0.21133484347997242,-0.46564831411306046 l 7.896608816321667 3.6661722257725953" fill="#ff5e08" stroke="none" /><path d="M 80.95270993114464 91.15688171328213 l -8.999358155761271 -4.178147567882269 a30.921963732783315,30.921963732783315 0 0,0 0.22829510033764666,-0.48084770382041864 l 8.926104861581873 4.33243768734322" fill="#ff6f0a" stroke="none" /><path d="M 81.10775173730289 90.83032412892265 l -16.452002971388428 -7.9852610753324935 a39.2875038267062,39.2875038267062 0 0,0 0.3005306717054681,-0.6058514955280552 l 16.312112286729548 8.26727215935951" fill="#ffde14" stroke="none" /><path d="M 81.26839172434947 90.50648371742162 l -3.450052939801393 -1.7485489381249864 a24.867853238742423,24.867853238742423 0 0,0 0.19680012503989036,-0.38015520135537995 l 3.419443381601389 1.8076768617407017" fill="#ff1802" stroke="none" /><line stroke="#e1ed5e" stroke-width="0.3" x1="26.266209847984243" x2="21.928928074336255" y1="57.711370442889674" y2="55.22380399835377" /><path d="M 25.398753493254645 57.213857153982495 a86.0,86.0 0 0,1 29.58750427330803,-30.492523968695096" fill="none" id="id35" stroke="none" /><text fill="#e1ed5e" style="font-size:6.75px; font-family:Arial;" text-anchor="middle"><textPath startOffset="21.46611528233685" xlink:href="#id35">November</textPath></text><path d="M 82.15384107792192 88.93136811851018 l -39.80494791628084 -24.68801928027906 a67.8394296997867,67.8394296997867 0 0,0 0.6240336049719443,-0.9870713010712351 l 39.37408671506293 25.36953822906451" fill="#39ff85" stroke="none" /><path d="M 83.17141714833178 87.43820079747576 l -8.646255590521621 -6.454050679084273 a31.789462725493543,31.789462725493543 0 0,0 0.331100968829253,-0.43569006375998454 l 8.53387868146826 6.6019255187252845" fill="#ff7b0b" stroke="none" /><path d="M 84.07557802195018 86.31012108654704 l -9.972180403384263 -8.57286640693239 a34.15060532556395,34.15060532556395 0 0,0 0.38705342529647846,-0.442468974063756 l 9.82313511450994 8.743250937199088" fill="#ff9b0e" stroke="none" /><path d="M 85.57189188830299 84.74124197986013 l -5.29207985213856 -5.596753591108354 a28.702581380355234,28.702581380355234 0 0,0 0.36191510782164865,-0.33636064978688746 l 5.194956860522055 5.687018826969888" fill="#ff4f07" stroke="none" /><path d="M 86.93701828274178 83.55741782278169 l -19.553050010218513 -24.611734025741026 a52.4334092401051,52.4334092401051 0 0,0 0.7115149835920433,-0.5553487305572469 l 19.126502471467045 24.944661145521493" fill="#84ff25" stroke="none" /><path d="M 88.39885842347998 82.49532879139004 l -2.6177651304096186 -3.9498800705895554 a25.738591230527174,25.738591230527174 0 0,0 0.3714115167956721,-0.24157638200737447 l 2.5493865878296593 3.994355376756465" fill="#ff2503" stroke="none" /><line stroke="#e1ed5e" stroke-width="0.3" x1="56.762969772571076" x2="54.21961505331055" y1="26.818313649435495" y2="22.513508569990535" /><path d="M 56.25429882871897 25.957352633546506 a86.0,86.0 0 0,1 42.265352541879196,-11.944610805530505" fill="none" id="id36" stroke="none" /><text fill="#e1ed5e" style="font-size:6.75px; font-family:Arial;" text-anchor="middle"><textPath startOffset="22.20632615414155" xlink:href="#id36">December</textPath></text><path d="M 90.58718382345135 81.22770947309562 l -5.893536680100771 -11.753675065434606 a34.14848478508122,34.14848478508122 0 0,0 0.5277221190864836,-0.25895095196373646 l 5.690343294003862 11.853381177533173" fill="#ff9b0e" stroke="none" /><path d="M 90.91171255644093 81.06846463323043 l -4.189251163036808 -8.726501779993619 a30.679961705669967,30.679961705669967 0 0,0 0.47805485459946867,-0.22445316425021467 l 4.038418097137731 8.79731992688384" fill="#ff6b09" stroke="none" /><path d="M 91.56875222667455 80.76684994638697 l -2.864236894048636 -6.533825058091494 a28.13405374769308,28.13405374769308 0 0,0 0.4452096675980409,-0.19061554512105316 l 2.751343468660287 6.582160131175333" fill="#ff4706" stroke="none" /><path d="M 91.90106846888425 80.62456947434976 l -0.8950531209202924 -2.141274993439586 a23.32081422927361,23.32081422927361 0 0,0 0.371707271279557,-0.15162872896868795 l 0.8580619800523549 2.1563646085918506" fill="#ff0100" stroke="none" /><path d="M 92.57280143429618 80.3572730644239 l -2.6835536174058254 -7.0971996315120744 a28.587601902249947,28.587601902249947 0 0,0 0.46178189662004265,-0.1700781696628986 l 2.5609893950132134 7.142341068981295" fill="#ff4e07" stroke="none" /><path d="M 93.25333710446033 80.11325718540243 l -2.373889961617214 -6.997376312969049 a28.389088496909974,28.389088496909974 0 0,0 0.464117225803315,-0.15301215231620305 l 2.2530899135714897 7.037202189544486" fill="#ff4b07" stroke="none" /><path d="M 93.94186890950719 79.89281104454417 l -3.599792375162948 -11.947860554123881 a33.47837637535712,33.47837637535712 0 0,0 0.5532059093802871,-0.1614959748529729 l 3.39359624805924 12.008054857895553" fill="#ff920d" stroke="none" /></svg>