<?xml version="1.0" encoding="utf-8" ?>
<svg baseProfile="full" height="200mm" version="1.1" viewBox="0,0,200,200" width="200mm" xmlns="http://www.w3.org/2000/svg" xmlns:ev="http://www.w3.org/2001/xml-events" xmlns:xlink="http://www.w3.org/1999/xlink"><defs /><rect fill="#1a1a1a" height="200" width="200" x="0" y="0" /><text alignment-baseline="middle" fill="#e1ed5e" style="dominant-baseline: central; font-size:9.0px; font-family:Arial;" text-anchor="middle" x="100.0" y="100.0">2020</text><line stroke="#e1ed5e" stroke-width="0.3" x1="100.0" x2="100.0" y1="15.0" y2="10.0" /><path d="M 100.0 14.0 a86.0,86.0 0 0,1 42.35913384403234,11.155469271406648" fill="none" id="id37" stroke="none" /><text fill="#e1ed5e" style="font-size:6.75px; font-family:Arial;" text-anchor="middle"><textPath startOffset="22.145653131862478" xlink:href="#id37">January</textPath></text><path d="M 101.08105385017728 79.02784411241856 l 0.6076396965703961 -11.788047781215784 a32.803698424353044,32.803698424353044 0 0,0 0.562123626140328,0.03381596147250092 l -0.8099076748431865 11.775879841918591" fill="#ff8a0c" stroke="none" /><path d="M 101.44090949804482 79.04949213459386 l 0.9956012930410268 -14.475824296368 a35.51002105422398,35.51002105422398 0 0,0 0.6077810744320166,0.04704609903719858 l -1.243951362248277 14.456600430335747" fill="#ffae10" stroke="none" /><path d="M 102.15924093988457 79.11130261209362 l 1.2008335012960625 -11.616974816703173 a32.67887430319167,32.67887430319167 0 0,0 0.5575079732825646,0.06246993125666296 l -1.4000773761794238 11.59464912493954" fill="#ff880c" stroke="none" /><path d="M 106.04205211174951 79.88797359093562 l 3.611819952706692 -12.02257394178434 a33.55338709498126,33.55338709498126 0 0,0 0.5502106259543313,0.17045665837795368 l -3.8176712115326534 11.958800695599741" fill="#ff940d" stroke="none" /><path d="M 106.38641147887787 79.99465700312896 l 1.9806586597626448 -6.204385041478204 a27.512864382851163,27.512864382851163 0 0,0 0.44869192730037155,0.14749394865773918 l -2.0868733247107585 6.1694701714184434" fill="#ff4006" stroke="none" /><path d="M 109.71004243097381 81.37971332152246 l 6.936162803905504 -13.30100674383566 a36.00090446745942,36.00090446745942 0 0,0 0.5455185925402477,0.29045792407076076 l -7.163470212232312 13.179978352042328" fill="#ffb410" stroke="none" /><path d="M 110.34350942703115 81.72400993836675 l 5.826358083665691 -10.294616462988415 a32.82901418712179,32.82901418712179 0 0,0 0.488069785806538,0.2817872222187277 l -6.002220337332626 10.193082343493517" fill="#ff8a0c" stroke="none" /><line stroke="#e1ed5e" stroke-width="0.3" x1="143.13028292997686" x2="145.6673583964461" y1="26.7553504044142" y2="22.446841604673864" /><path d="M 143.63769802327073 25.89364864446614 a86.0,86.0 0 0,1 29.32050498858742,28.57503671076993" fill="none" id="id38" stroke="none" /><text fill="#e1ed5e" style="font-size:6.75px; font-family:Arial;" text-anchor="middle"><textPath startOffset="20.669276256404974" xlink:href="#id38">February</textPath></text><path d="M 110.65571695917076 81.90426304109057 l 10.532842058634907 -17.88706851478046 a41.75784145532957,41.75784145532957 0 0,0 0.6145705214624004,0.36903194009285173 l -10.838345336654742 17.703622574151687" fill="#fffe18" stroke="none" /><path d="M 111.5731344415666 82.4767994020092 l 7.609304106688339 -11.52145626112379 a34.80744231800563,34.80744231800563 0 0,0 0.4957635809126196,0.33357186246365084 l -7.805963975697959 11.38913472460302" fill="#ffa40f" stroke="none" /><path d="M 112.45986205192187 83.09580414077388 l 8.207372541958547 -11.134877124703156 a34.832803498377785,34.832803498377785 0 0,0 0.4782826084102779,0.3589121859095433 l -8.397308139279591 10.992345911529597" fill="#ffa50f" stroke="none" /><path d="M 113.03279911837588 83.53348406188908 l 5.639381274891778 -7.125174016774217 a30.08684356269626,30.08684356269626 0 0,0 0.40223134060327587,0.3240090955273605 l -5.760863385850314 7.027316627453448" fill="#ff6409" stroke="none" /><path d="M 113.86319453409587 84.22622945171908 l 8.13847949816805 -9.260095708839708 a33.328188069581564,33.328188069581564 0 0,0 0.42649760604307124,0.3813767892384582 l -8.296242131034495 9.119023389717862" fill="#ff910d" stroke="none" /><path d="M 114.39649973595853 84.71141617570332 l 6.404726059088748 -6.801597125824984 a30.342496419801357,30.342496419801357 0 0,0 0.37614222217178833,0.3603357401592772 l -6.520540767125849 6.6906492553601264" fill="#ff6809" stroke="none" /><path d="M 114.91283532996326 85.21462403516908 l 15.123979206089365 -14.994715203287054 a42.297329200017344,42.297329200017344 0 0,0 0.5067888715615971,0.5200100278849984 l -15.379154878801772 14.732882483334315" fill="#faff18" stroke="none" /><path d="M 115.41159269507618 85.73525988315684 l 11.740753056341301 -10.867065749683881 a36.998074894747184,36.998074894747184 0 0,0 0.427419906375718,0.46980935005391056 l -11.925570663558897 10.663918824072299" fill="#ffc112" stroke="none" /><path d="M 115.8921839302757 86.27271002978787 l 12.511842159323702 -10.807431259045448 a37.53320188707628,37.53320188707628 0 0,0 0.4169857166304768,0.4912081256950343 l -12.69552243946129 10.591056350900862" fill="#ffc812" stroke="none" /><path d="M 116.1254893667686 86.54754324733833 l 8.459224966446085 -7.056986329770892 a32.01633074537607,32.01633074537607 0 0,0 0.348449248960182,0.4250514266760554 l -8.579121034644894 6.910732621396341" fill="#ff7f0b" stroke="none" /><path d="M 116.35404254752997 86.82634096563983 l 31.32157761916002 -25.23044579184984 a61.219604913630604,61.219604913630604 0 0,0 0.6522324153352433,0.8240743500241113 l -31.750076465136825 24.68905149791105" fill="#30ff37" stroke="none" /><path d="M 116.57777611688842 87.10902102172516 l 13.365005381439378 -10.392709022119615 a37.93020288314201,37.93020288314201 0 0,0 0.3952833285488382,0.5174385658357423 l -13.541440687342524 10.16174954304299" fill="#ffcd13" stroke="none" /><path d="M 117.21940702142032 87.97951657250589 l 24.73606967296523 -17.267697731712747 a51.166977439239545,51.166977439239545 0 0,0 0.49658833991693996,0.7245372286611576 l -25.028847749697494 16.840525767981543" fill="#92ff23" stroke="none" /><path d="M 117.42321728460499 88.27688183743584 l 27.81961107121181 -18.718275878506212 a54.53065182810138,54.53065182810138 0 0,0 0.5159003737126985,0.7811389198657089 l -28.13683588384523 18.23795708030144" fill="#6dff28" stroke="none" /><path d="M 117.62189284568427 88.57770195909679 l 29.579968157383522 -19.173377984579478 a56.2504317637583,56.2504317637583 0 0,0 0.5182601611758247,0.8147910540931308 l -29.904746010185235 18.662773255807675" fill="#5bff2a" stroke="none" /><line stroke="#e1ed5e" stroke-width="0.3" x1="172.87174338648825" x2="177.1583165268699" y1="56.24261187166439" y2="53.66864786411523" /><path d="M 173.72905801456457 55.72781907015455 a86.0,86.0 0 0,1 12.242430191666344,42.057860355516425" fill="none" id="id39" stroke="none" /><text fill="#e1ed5e" style="font-size:6.75px; font-family:Arial;" text-anchor="middle"><textPath startOffset="22.145653131862474" xlink:href="#id39">March</textPath></text><path d="M 118.00360718960297 89.18935116829356 l 12.963698876469937 -7.784328697997684 a36.12128505908999,36.12128505908999 0 0,0 0.31464441243830416,0.5343350001591295 l -13.095416999038008 7.560642529544998" fill="#ffb610" stroke="none" /><path d="M 118.36410011445183 89.81374322990088 l 30.507980256745572 -16.922262375806106 a55.88695778169258,55.88695778169258 0 0,0 0.4581523656175937,0.8429487499600015 l -30.793977971978507 16.3960587923715" fill="#5fff29" stroke="none" /><path d="M 118.53625476483649 90.13048839642627 l 51.548633647889105 -27.44674392916395 a79.40021732217598,79.40021732217598 0 0,0 0.6302559785353604,1.2085989412072786 l -52.01219769539941 26.557798744852175" fill="#47feff" stroke="none" /><path d="M 118.70294669586156 90.45014215332178 l 23.596634772085487 -12.048609847306219 a47.49471969694713,47.49471969694713 0 0,0 0.3645334782256268,0.7293111477475 l -23.79998816352285 11.641766843394969" fill="#bbff1f" stroke="none" /><path d="M 118.8641267826498 90.77261029715802 l 28.582136520490167 -13.980955241297819 a52.81832235576085,52.81832235576085 0 0,0 0.3914107865864797,0.8178980043804133 l -28.817926565036558 13.488244734852302" fill="#80ff26" stroke="none" /><path d="M 119.16976305983485 91.42560881287824 l 37.23639086724778 -16.655364007149142 a61.79154268998774,61.79154268998774 0 0,0 0.42479072106362786,0.9720043008365618 l -37.516815470328375 16.01369763653673" fill="#31ff3e" stroke="none" /><path d="M 119.31412917781788 91.75594674310238 l 18.370327080911448 -7.841200263670021 a40.973816326246904,40.973816326246904 0 0,0 0.27057187500759744,0.6492740017856754 l -18.50222480045553 7.524693752443068" fill="#fff417" stroke="none" /><path d="M 119.4528033332814 92.08871423366111 l 36.530830547079596 -14.85677075885482 a60.436343870097886,60.436343870097886 0 0,0 0.38259464925208364,0.9643884454381418 l -36.780483871297804 14.227481296203113" fill="#31ff2f" stroke="none" /><path d="M 119.58574465831526 92.42381321644754 l 58.75723397494581 -22.728560350657357 a84.0,84.0 0 0,0 0.5086772647422375,1.349326879223369 l -59.13874192350249 21.71656519123983" fill="#4dd2ff" stroke="none" /><path d="M 119.71291397450082 92.76114493625339 l 36.918288736009465 -13.556906995445292 a60.32873975197421,60.32873975197421 0 0,0 0.34864217132203773,0.9752142033994402 l -37.14557107737544 12.921157835664935" fill="#32ff2f" stroke="none" /><path d="M 119.83427380445688 93.10060997987247 l 37.68077137893248 -13.107328282626401 a60.89539555412272,60.89539555412272 0 0,0 0.33496694979136027,0.9902702673317377 l -37.900223750296206 12.458556340820502" fill="#30ff33" stroke="none" /><path d="M 119.94978838288452 93.4421083053983 l 38.176334103153316 -12.549319298053103 a61.186041113800634,61.186041113800634 0 0,0 0.3194356670464743,1.0006276773481464 l -38.386134485977045 11.89212258701357" fill="#30ff37" stroke="none" /><path d="M 120.05942366710727 93.78553927170692 l 27.91389984560922 -8.647797526132036 a50.22276863412633,50.22276863412633 0 0,0 0.24806144677799913,0.8257158787108145 l -28.058237612390844 8.167344043830498" fill="#9cff22" stroke="none" /><path d="M 120.16314734710363 94.1308016681162 l 38.415302737179424 -11.182134756171989 a61.009694101484136,61.009694101484136 0 0,0 0.28407713749102836,1.008089543729337 l -38.60159836674504 10.52103728853964" fill="#30ff35" stroke="none" /><path d="M 120.26092885502905 94.47779374421319 l 52.486977763583056 -14.305559188687356 a75.4015795584641,75.4015795584641 0 0,0 0.3296503889240965,1.2517362207221934 l -52.724817633311886 13.402442463592363" fill="#42ffd8" stroke="none" /><path d="M 120.35273937422433 94.82641323984039 l 38.64545603073251 -9.823523801131953 a60.87446415558065,60.87446415558065 0 0,0 0.2487518257707498,1.014992335913327 l -38.80839538301955 9.15867564061053" fill="#30ff33" stroke="none" /><path d="M 120.43855184770803 95.1765574152323 l 58.71354981984817 -13.856237888776546 a81.32641428825485,81.32641428825485 0 0,0 0.3089983108887687,1.3615035717905242 l -58.9427589922946 12.846299983046995" fill="#4aebff" stroke="none" /><path d="M 120.51834098615036 95.52812308129327 l 50.69162082029917 -11.048002822018617 a72.88158428329189,72.88158428329189 0 0,0 0.2559264220855616,1.2247005760871397 l -50.8738049532091 10.176185794646072" fill="#3fffbd" stroke="none" /><path d="M 120.592083275326 95.88100663000786 l 59.93904120123832 -11.989486931000068 a82.12639738273774,82.12639738273774 0 0,0 0.26465703868565843,1.384797459822959 l -60.136024532206136 10.958786906143795" fill="#4be3ff" stroke="none" /><path d="M 120.65975698304385 96.23510406497455 l 17.015542663212752 -3.100798690786124 a38.29576955918395,38.29576955918395 0 0,0 0.11230723607512766,0.647758293194744 l -17.066264716780115 2.808247364670787" fill="#ffd213" stroke="none" /><path d="M 120.7213421655516 96.59031103205396 l 39.34890723793333 -6.474847711986611 a60.878066072878966,60.878066072878966 0 0,0 0.1608297270110203,1.0326422188722886 l -39.45425845708262 5.798417311182881" fill="#30ff33" stroke="none" /><path d="M 120.77682067341334 96.94652285012252 l 53.94998917811143 -7.92879053927153 a75.52950624876391,75.52950624876391 0 0,0 0.1775140616787542,1.284403321776585 l -54.0781477563454 7.00149890929486" fill="#42ffd9" stroke="none" /><path d="M 120.82617615685814 97.30363454192243 l 39.91213909083763 -5.167425474171034 a61.24526224088347,61.24526224088347 0 0,0 0.12604249812051335,1.043812695928378 l -39.994963675217804 4.481519101319243" fill="#30ff38" stroke="none" /><path d="M 120.86939407059847 97.66154086499901 l 30.521437181005243 -3.4199906977574086 a51.712448029533505,51.712448029533505 0 0,0 0.09127889177957091,0.8830404764318881 l -30.57564846526648 2.8955456990425894" fill="#8cff24" stroke="none" /><path d="M 120.96210409425399 98.7389718711861 l 51.34633441250979 -3.088867974060353 a72.43915981975661,72.43915981975661 0 0,0 0.06401693654076135,1.2419114666287316 l -51.39179293850712 2.20698471405489" fill="#3effb9" stroke="none" /><line stroke="#e1ed5e" stroke-width="0.3" x1="184.99686870605535" x2="189.99668451229388" y1="99.2704041080226" y2="99.22748670261217" /><path d="M 185.99683186730306 99.26182062694052 a86.0,86.0 0 0,1 -10.086455211305974,41.156179273409016" fill="none" id="id40" stroke="none" /><text fill="#e1ed5e" style="font-size:6.75px; font-family:Arial;" text-anchor="middle"><textPath startOffset="21.40746469413373" xlink:href="#id40">April</textPath></text><path d="M 120.99922638620191 100.18025310272382 l 27.598811122034963 0.23690260035028873 a48.59982786525694,48.59982786525694 0 0,0 -0.014322064716051717,0.8341884684478164 l -27.590677625720243 -0.7106379847671762" fill="#afff20" stroke="none" /><path d="M 120.99303781780057 100.54070618675476 l 13.209059439161374 0.3402185153932204 a34.213440123810095,34.213440123810095 0 0,0 -0.020162001449848792,0.5869946735390321 l -13.20127275071468 -0.5669194534963632" fill="#ff9d0e" stroke="none" /><path d="M 120.98066250479742 100.90099992219065 l 23.395308027142388 1.0046951905003711 a44.4168710572247,44.4168710572247 0 0,0 -0.039252691815926236,0.7614917347880764 l -23.37461374586989 -1.4061587186651783" fill="#e0ff1b" stroke="none" /><path d="M 120.96210409425399 101.26102812881392 l 20.00334217417031 1.2033513925175519 a41.039504802035765,41.039504802035765 0 0,0 -0.04834070402617208,0.70286322721436 l -19.97973750897907 -1.5465580438862554" fill="#fff517" stroke="none" /><path d="M 120.93736805541906 101.62068470465957 l 29.64135307509949 2.294428193031359 a50.730022079636726,50.730022079636726 0 0,0 -0.0746610096640568,0.8676741046273189 l -29.597598442737695 -2.802923345034335" fill="#97ff23" stroke="none" /><path d="M 120.9064616781168 101.97986365728391 l 13.110442240561252 1.2415725110565539 a34.16910012276101,34.16910012276101 0 0,0 -0.06031270440976957,0.5834707038897062 l -13.087197143669817 -1.4664477372291915" fill="#ff9c0e" stroke="none" /><path d="M 120.86939407059847 102.33845913500097 l 13.206592902806976 1.479826281076232 a34.28924309065928,34.28924309065928 0 0,0 -0.07056712143397795,0.5843969959836801 l -13.179243695113335 -1.7063169539833207" fill="#ff9e0e" stroke="none" /><path d="M 120.82617615685814 102.69636545807757 l 24.530590169908645 3.1759760170192197 a45.73533257800873,45.73533257800873 0 0,0 -0.10748997380456501,0.7777439043792601 l -24.472455679548872 -3.596608229598565" fill="#d0ff1d" stroke="none" /><path d="M 120.77682067341334 103.0534771498775 l 13.153892807489662 1.9331692635247135 a34.295188580549166,34.295188580549166 0 0,0 -0.09060218520407594,0.5817310226324368 l -13.118769130147317 -2.158688468088601" fill="#ff9e0e" stroke="none" /><path d="M 120.65975698304385 103.76489593502545 l 31.279982850248818 5.700254866367593 a52.79512907118648,52.79512907118648 0 0,0 -0.1701353396994834,0.8902199896591534 l -31.177521218267177 -6.236377421060061" fill="#80ff26" stroke="none" /><path d="M 120.51834098615036 104.47187691870673 l 17.124295464245442 3.7321604942311133 a38.52628075495416,38.52628075495416 0 0,0 -0.14637994042025426,0.644977026403233 l -17.057704662267525 -4.025571854573363" fill="#ffd513" stroke="none" /><path d="M 120.35273937422433 105.17358676015961 l 16.877992628767487 4.29031972535593 a38.414748879111286,38.414748879111286 0 0,0 -0.16794657330224347,0.637720494232438 l -16.801856574660516 -4.579420723961172" fill="#ffd413" stroke="none" /><path d="M 119.83427380445688 106.89939002012753 l 13.551364910307269 4.7138681629105665 a35.34782366735837,35.34782366735837 0 0,0 -0.20427646998034718,0.5713976430037765 l -13.468448270282979 -4.945800762295264" fill="#ffac0f" stroke="none" /><path d="M 119.71291397450082 107.23885506374661 l 16.29130015101598 5.982391073473152 a38.35498382501305,38.35498382501305 0 0,0 -0.23226557453976668,0.6161120312769938 l -16.186203892661776 -6.261171384944305" fill="#ffd313" stroke="none" /><path d="M 119.58574465831526 107.57618678355244 l 21.433605227778465 8.290978948387043 a43.981291629994374,43.981291629994374 0 0,0 -0.2784252945710835,0.7018136231830809 l -21.288121258241254 -8.657693588783687" fill="#e5ff1a" stroke="none" /><path d="M 119.4528033332814 107.91128576633889 l 15.899794055252572 6.466307824221486 a38.16439884985877,38.16439884985877 0 0,0 -0.25201979901318516,0.6047557730452231 l -15.786448411702901 -6.738296106707987" fill="#ffd013" stroke="none" /><path d="M 119.16976305983485 108.57439118712176 l 13.160150892977258 5.886368104067164 a35.416618916462674,35.416618916462674 0 0,0 -0.2530020495132234,0.552855137786673 l -13.057164378608979 -6.111412224068526" fill="#ffad10" stroke="none" /><path d="M 118.8641267826498 109.22738970284198 l 18.09059291989492 8.849015528292373 a41.13888348477422,41.13888348477422 0 0,0 -0.31575089573563525,0.6317133046110036 l -17.936022110947555 -9.158260689067122" fill="#fff617" stroke="none" /><path d="M 118.5362547648365 109.86951160357373 l 18.613496886804544 9.910638682841885 a42.08750875416355,42.08750875416355 0 0,0 -0.34502668357782795,0.6348102366179346 l -18.44062485361138 -10.228703752934424" fill="#fcff18" stroke="none" /><line stroke="#e1ed5e" stroke-width="0.3" x1="174.33088141563837" x2="178.70328620479359" y1="141.23008692659167" y2="143.65538615756765" /><path d="M 175.20536237346943 141.71514677278685 a86.0,86.0 0 0,1 -30.301960400862466,31.631185727798858" fill="none" id="id41" stroke="none" /><text fill="#e1ed5e" style="font-size:6.75px; font-family:Arial;" text-anchor="middle"><textPath startOffset="22.145653131862474" xlink:href="#id41">May</textPath></text><path d="M 118.36410011445183 110.18625677009912 l 10.876999120149241 6.033288058519692 a33.43823438663236,33.43823438663236 0 0,0 -0.28273879807908303,0.49957236469736266 l -10.771826957048779 -6.219117193316177" fill="#ff920d" stroke="none" /><path d="M 118.18653347947321 110.5 l 13.81576291295476 7.976534436854475 a36.95306887370896,36.95306887370896 0 0,0 -0.3218898946850871,0.54663941302789 l -13.676799308139909 -8.212525018175915" fill="#ffc111" stroke="none" /><path d="M 118.00360718960297 110.81064883170644 l 22.033194945247946 13.230300499511054 a46.70024378877878,46.70024378877878 0 0,0 -0.4185943785138416,0.6837424587135317 l -21.802832602278702 -13.606580074349143" fill="#c5ff1e" stroke="none" /><path d="M 117.21940702142032 112.02048342749411 l 17.31992154651766 12.090650372363468 a42.122582910341706,42.122582910341706 0 0,0 -0.41898912289953766,0.5893606728035929 l -17.10981732508816 -12.386188271876565" fill="#fcff18" stroke="none" /><path d="M 117.01052211995028 112.31430620078461 l 12.561592607548471 9.093624325466404 a36.50766301577161,36.50766301577161 0 0,0 -0.3718531137517962,0.5044901652626129 l -12.403637474212847 -9.307920799997895" fill="#ffbb11" stroke="none" /><path d="M 116.79662413953412 112.60449989151573 l 14.582379750004684 10.942889621751899 a39.231638227191546,39.231638227191546 0 0,0 -0.4088460214843882,0.5351925662566724 l -14.392381751165992 -11.191603101249449" fill="#ffde14" stroke="none" /><path d="M 116.57777611688842 112.89097897827486 l 31.14192864941312 24.216152078055124 a60.449229922428536,60.449229922428536 0 0,0 -0.6440248559768501,0.813704366894587 l -30.72163736279471 -24.747176388864393" fill="#30ff2f" stroke="none" /><path d="M 115.6541949942343 113.99807769240083 l 17.164545370926305 15.348642312521404 a44.02612513273369,44.02612513273369 0 0,0 -0.50861138953449,0.5590530126998136 l -16.898536280549934 -15.64103290077889" fill="#e4ff1a" stroke="none" /><path d="M 115.16444852881244 114.52719865689866 l 12.244942868448762 11.730378276160113 a37.95701625738984,37.95701625738984 0 0,0 -0.45478506091869886,0.46664953687971605 l -12.041771006379255 -11.938850505107567" fill="#ffce13" stroke="none" /><path d="M 114.91283532996324 114.78537596483092 l 6.096281563790391 6.044176906252369 a29.58467957346604,29.58467957346604 0 0,0 -0.3606627148177758,0.3575801460345462 l -5.99162692884265 -6.147937062515577" fill="#ff5d08" stroke="none" /><path d="M 114.39649973595853 115.28858382429668 l 10.699928721445888 11.36295350759671 a36.60785658121662,36.60785658121662 0 0,0 -0.46120709463799864,0.4268864013748061 l -10.503291855493924 -11.544957655103897" fill="#ffbc11" stroke="none" /><path d="M 113.86319453409587 115.77377054828091 l 3.5465552932078857 4.035328891494978 a26.372330379855185,26.372330379855185 0 0,0 -0.34261489971894954,0.2959425902186598 l -3.4767609137260806 -4.095615614178355" fill="#ff2f04" stroke="none" /><path d="M 113.59037401385872 116.0094264158162 l 7.991100599560149 9.413496412945207 a33.34793924138044,33.34793924138044 0 0,0 -0.43959835642018136,0.3667285837830496 l -7.828327908978073 -9.549287180640128" fill="#ff910d" stroke="none" /><path d="M 113.31354834802062 116.24036423190432 l 6.341455044721767 7.735544048393393 a31.002634343454808,31.002634343454808 0 0,0 -0.4144745575658442,0.33387136446054894 l -6.20772971680067 -7.843263706647346" fill="#ff710a" stroke="none" /><path d="M 113.03279911837588 116.46651593811092 l 10.277466191006965 12.985242794005561 a37.56027903528695,37.56027903528695 0 0,0 -0.5090134233413571,0.39581191673040816 l -10.053042823030378 -13.159755762356761" fill="#ffc912" stroke="none" /><path d="M 112.45986205192187 116.90419585922612 l 7.527555650799029 10.212574949230984 a33.68703200790227,33.68703200790227 0 0,0 -0.46844062144987736,0.33911488481909535 l -7.351134018975184 -10.340290605423156" fill="#ff950d" stroke="none" /><path d="M 112.16784306229584 117.11559508785304 l 5.9731980216818155 8.402051061577465 a31.308906665965047,31.308906665965047 0 0,0 -0.44071745240199545,0.3076550096188314 l -5.828085478106062 -8.50335088700142" fill="#ff750a" stroke="none" /><path d="M 111.5731344415666 117.5232005979908 l 4.733302417187357 7.166823142521207 a29.588801181115397,29.588801181115397 0 0,0 -0.42623988007515096,0.2762835405805801 l -4.609576904855197 -7.247020524805682" fill="#ff5d08" stroke="none" /><path d="M 111.27062007382361 117.71928675628689 l 5.191621711192895 8.162091635441238 a30.67329705206396,30.67329705206396 0 0,0 -0.44671402508618335,0.2787825904802234 l -5.050743557316998 -8.250010022763009" fill="#ff6c0a" stroke="none" /><line stroke="#e1ed5e" stroke-width="0.3" x1="143.1302829299769" x2="145.66735839644613" y1="173.24464959558577" y2="177.55315839532614" /><path d="M 143.63769802327073 174.10635135553383 a86.0,86.0 0 0,1 -40.68552437913181,11.842963189579606" fill="none" id="id42" stroke="none" /><text fill="#e1ed5e" style="font-size:6.75px; font-family:Arial;" text-anchor="middle"><textPath startOffset="21.407464694133747" xlink:href="#id42">June</textPath></text><path d="M 110.34350942703117 118.27599006163325 l 4.635710484479607 8.190856240876045 a30.411691540558063,30.411691540558063 0 0,0 -0.456545833626908,0.2532382779259007 l -4.494420462696605 -8.26922743423509" fill="#ff6909" stroke="none" /><path d="M 108.07796709384702 119.3841803445677 l 3.548736282911199 8.51567520690425 a30.225521851642547,30.225521851642547 0 0,0 -0.4806513419308035,0.195476716380674 l -3.4020304797899543 -8.575339179864216" fill="#ff6609" stroke="none" /><path d="M 105.3480935250658 120.30758222061773 l 2.4755379969203104 9.40002099385574 a30.720528949554385,30.720528949554385 0 0,0 -0.5111233430614404,0.12992555507393092 l -2.3138093606334724 -9.441131780764941" fill="#ff6d0a" stroke="none" /><path d="M 104.29559338865022 120.5559693870025 l 2.3170438784297227 11.087893737612164 a32.32740393343275,32.32740393343275 0 0,0 -0.5441833763870851,0.10885191602173404 l -2.126364016511679 -11.126035050296759" fill="#ff830c" stroke="none" /><path d="M 102.875027216393 120.80226474461374 l 0.8896726039346969 6.437227772159523 a27.498416632753997,27.498416632753997 0 0,0 -0.4681568480522447,0.06061227680698571 l -0.7790379339916769 -6.451551645166903" fill="#ff3f06" stroke="none" /><path d="M 101.80034050326958 120.92268563240118 l 1.0641113490370229 12.366586872504625 a33.41228439242161,33.41228439242161 0 0,0 -0.5718767126677999,0.04426687436159459 l -0.8516656415939872 -12.383031513861274" fill="#ff920d" stroke="none" /><line stroke="#e1ed5e" stroke-width="0.3" x1="101.45913802915013" x2="101.54496967792366" y1="184.9874750549273" y2="189.98673829345242" /><path d="M 101.47630435890484 185.9873277026323 a86.0,86.0 0 0,1 -42.54439059252881,-10.42667462771756" fill="none" id="id43" stroke="none" /><text fill="#e1ed5e" style="font-size:6.75px; font-family:Arial;" text-anchor="middle"><textPath startOffset="22.145653131862474" xlink:href="#id43">July</textPath></text><path d="M 100.36049292484886 120.99690560180557 l 0.164063255557067 9.555862132664492 a30.55727041839432,30.55727041839432 0 0,0 -0.5245561804059181,0.0045026839242637475 l -1.170428062647229e-15 -9.557270418394321" fill="#ff6b09" stroke="none" /><path d="M 100.0 121.0 l 4.692351837719965e-16 3.8315960495605452 a24.831596049560545,24.831596049560545 0 0,0 -0.4262673661224421,-0.0036589926657474865 l 0.06577444127358946 -3.831031455089233" fill="#ff1902" stroke="none" /><line stroke="#e1ed5e" stroke-width="0.3" x1="58.13341422392154" x2="55.67067388415222" y1="173.97424548756322" y2="178.32567169271397" /><path d="M 57.64086615596768 174.84453072859336 a86.0,86.0 0 0,1 -31.369924170532247,-30.572349798747897" fill="none" id="id44" stroke="none" /><text fill="#e1ed5e" style="font-size:6.75px; font-family:Arial;" text-anchor="middle"><textPath startOffset="22.145653131862474" xlink:href="#id44">August</textPath></text><line stroke="#e1ed5e" stroke-width="0.3" x1="26.387840678322732" x2="22.057713659400548" y1="142.50000000000003" y2="145.00000000000006" /><path d="M 25.521815274538298 143.00000000000003 a86.0,86.0 0 0,1 -11.493303480769221,-40.785679425670985" fill="none" id="id45" stroke="none" /><text fill="#e1ed5e" style="font-size:6.75px; font-family:Arial;" text-anchor="middle"><textPath startOffset="21.40746469413373" xlink:href="#id45">September</textPath></text><line stroke="#e1ed5e" stroke-width="0.3" x1="15.003131293944662" x2="10.003315487706104" y1="100.72959589197737" y2="100.7725132973878" /><path d="M 14.003168132696942 100.73817937305945 a86.0,86.0 0 0,1 10.791469493833604,-42.45332614584628" fill="none" id="id46" stroke="none" /><text fill="#e1ed5e" style="font-size:6.75px; font-family:Arial;" text-anchor="middle"><textPath startOffset="22.145653131862435" xlink:href="#id46">October</textPath></text><path d="M 80.05021161711548 93.44210830539832 l -9.104319627648076 -2.9927706963736576 a30.583596001681773,30.583596001681773 0 0,0 0.16823100947311304,-0.49734508681585954 l 9.0516031966026 3.1486174576636787" fill="#ff6b09" stroke="none" /><path d="M 80.16572619554312 93.10060997987247 l -2.0308729994850356 -0.7064430512018526 a23.150234155767397,23.150234155767397 0 0,0 0.1337861181231823,-0.3742235832133077 l 2.01844671131791 0.7412015907960817" fill="#ff0000" stroke="none" /><path d="M 80.68587082218212 91.75594674310238 l -8.943491402145552 -3.817444666704043 a30.7241412085386,30.7241412085386 0 0,0 0.21121547593518727,-0.4833023435591733 l 8.876642044193387 3.9704090800390834" fill="#ff6d0a" stroke="none" /><path d="M 80.83023694016515 91.42560881287825 l -18.397632132586402 -8.229026844472413 a41.15414971892943,41.15414971892943 0 0,0 0.2939886568343203,-0.642418271688193 l 18.253659010897035 8.543634098375277" fill="#fff617" stroke="none" /><path d="M 81.46374523516351 90.13048839642627 l -49.34758103598636 -26.27480738810715 a76.90661192904977,76.90661192904977 0 0,0 0.6304681375673081,-1.1599903620176035 l 48.889267548803694 27.118052583599372" fill="#44ffe7" stroke="none" /><path d="M 81.63589988554816 89.8137432299009 l -2.747800753845427 -1.524158758517904 a24.142207648135358,24.142207648135358 0 0,0 0.20413574157308403,-0.36068829545067005 l 2.7212316472509746 1.5711038240676793" fill="#ff0f01" stroke="none" /><line stroke="#e1ed5e" stroke-width="0.3" x1="26.387840678322718" x2="22.05771365940052" y1="57.49999999999999" y2="54.99999999999999" /><path d="M 25.521815274538284 56.99999999999999 a86.0,86.0 0 0,1 29.574782752854787,-30.34633250058573" fill="none" id="id47" stroke="none" /><text fill="#e1ed5e" style="font-size:6.75px; font-family:Arial;" text-anchor="middle"><textPath startOffset="21.40746469413373" xlink:href="#id47">November</textPath></text><path d="M 82.576782715395 88.27688183743585 l -20.30356635480516 -13.66114556288959 a45.47165104390045,45.47165104390045 0 0,0 0.44131376984283727,-0.6438899790224948 l 20.06606284814701 14.00767027698212" fill="#d3ff1c" stroke="none" /><path d="M 83.2033758604659 87.39550010848427 l -16.493284579061438 -12.376868230218333 a41.62074934123621,41.62074934123621 0 0,0 0.43374374735055166,-0.5677844886432103 l 16.278388854356578 12.658173632102429" fill="#fffc17" stroke="none" /><path d="M 83.42222388311158 87.10902102172516 l -2.5651807009423937 -1.9947000284095662 a24.24945845208466,24.24945845208466 0 0,0 0.2583532330711454,-0.32642087025113614 l 2.530561037229687 2.038440842575385" fill="#ff1001" stroke="none" /><path d="M 84.10781606972428 86.27271002978789 l -7.047256496485314 -6.087252315109385 a30.312274957015553,30.312274957015553 0 0,0 0.3435231460007015,-0.39086628047465766 l 6.94172228652602 6.207330873395343" fill="#ff6709" stroke="none" /><path d="M 86.13680546590413 84.22622945171909 l -7.054070044842337 -8.026236813252755 a31.68552205462867,31.68552205462867 0 0,0 0.4116409814728347,-0.35556567562343155 l 6.915249583606655 8.146146621340897" fill="#ff7a0b" stroke="none" /><path d="M 88.4268655584334 82.4767994020092 l -6.223959631878918 -9.423868157229135 a32.29366922413153,32.29366922413153 0 0,0 0.4652047108304232,-0.30154007311641634 l 6.061269288791469 9.529322072049458" fill="#ff830c" stroke="none" /><line stroke="#e1ed5e" stroke-width="0.3" x1="56.869717070023135" x2="54.33264160355391" y1="26.7553504044142" y2="22.446841604673864" /><path d="M 56.362301976729285 25.89364864446614 a86.0,86.0 0 0,1 42.16139366436587,-11.88097634709845" fill="none" id="id48" stroke="none" /><text fill="#e1ed5e" style="font-size:6.75px; font-family:Arial;" text-anchor="middle"><textPath startOffset="22.145653131862474" xlink:href="#id48">December</textPath></text><path d="M 89.34428304082924 81.90426304109057 l -2.355539840477565 -4.0002216193278715 a25.64223447747043,25.64223447747043 0 0,0 0.3812237497502865,-0.22009963453980524 l 2.286523622866879 4.040068151143851" fill="#ff2503" stroke="none" /><path d="M 90.28995756902619 81.37971332152246 l -5.235864151518228 -10.040459885102205 a32.323652596114925,32.323652596114925 0 0,0 0.4942021401618855,-0.2523431340963238 l 5.062734789642759 10.128860970871363" fill="#ff830c" stroke="none" /><path d="M 90.93487009805054 81.0573650232925 l -4.879036602635964 -10.195309984675763 a32.3026255292074,32.3026255292074 0 0,0 0.5022462765175284,-0.23507661731138385 l 4.703301612246913 10.27756283355769" fill="#ff830c" stroke="none" /><path d="M 91.92203290615298 80.6158196554323 l -3.5949435164513495 -8.626555746247876 a30.345645131803252,30.345645131803252 0 0,0 0.4825615625744625,-0.19625358648673683 l 3.446327492686446 8.686996589313903" fill="#ff6809" stroke="none" /><path d="M 93.61358852112211 79.99465700312896 l -2.8717921565745694 -8.995848027958973 a30.44311770194021,30.44311770194021 0 0,0 0.4992082259645252,-0.1546559844879524 l 2.7169432977384282 9.043820600253566" fill="#ff6909" stroke="none" /><path d="M 94.30408787586887 79.78721728523814 l -2.5386741399672355 -9.008858924868017 a30.35972251282657,30.35972251282657 0 0,0 0.502841721543965,-0.13705174724461883 l 2.3836510174885928 9.051111166256776" fill="#ff6809" stroke="none" /><path d="M 95.00130118170881 79.60360301121753 l -2.1563287491674377 -8.798557145593115 a30.05893821144364,30.05893821144364 0 0,0 0.5022245195768796,-0.11852361913367442 l 2.004972075850652 8.834276908373022" fill="#ff6409" stroke="none" /><path d="M 95.70440661134978 79.44403061299748 l -1.1160048788852455 -5.340487343779783 a26.455847501421545,26.455847501421545 0 0,0 0.4453445271432878,-0.08908137802955822 l 1.024163866210981 5.358858118472207" fill="#ff3104" stroke="none" /><path d="M 96.41257539226777 79.30868818359171 l -1.9301067878645342 -11.132343046483399 a32.29842351468328,32.29842351468328 0 0,0 0.5471083742901183,-0.09002647479028625 l 1.738720910521343 11.163835519769355" fill="#ff830c" stroke="none" /><path d="M 98.1996594967304 79.07731436759882 l -0.7793503436648612 -9.057232344876017 a30.090701001971127,30.090701001971127 0 0,0 0.5150252813836601,-0.03986621402661968 l 0.623756067505984 9.06927632589769" fill="#ff6409" stroke="none" /><path d="M 99.27912038922189 79.0123766808444 l -0.33518635278942954 -9.7585849410734 a30.76433970851285,30.76433970851285 0 0,0 0.5279551634453696,-0.013598252224459397 l 0.167617875273316 9.762900910647904" fill="#ff6e0a" stroke="none" /></svg>