<?xml version="1.0" encoding="utf-8" ?>
<svg baseProfile="full" height="200mm" version="1.1" viewBox="0,0,200,200" width="200mm" xmlns="http://www.w3.org/2000/svg" xmlns:ev="http://www.w3.org/2001/xml-events" xmlns:xlink="http://www.w3.org/1999/xlink"><defs /><rect fill="#1a1a1a" height="200" width="200" x="0" y="0" /><text alignment-baseline="middle" fill="#e1ed5e" style="dominant-baseline: central; font-size:9.0px; font-family:Arial;" text-anchor="middle" x="100.0" y="100.0">2021</text><line stroke="#e1ed5e" stroke-width="0.3" x1="100.0" x2="100.0" y1="15.0" y2="10.0" /><path d="M 100.0 14.0 a86.0,86.0 0 0,1 42.46469731375804,11.215312516191453" fill="none" id="id49" stroke="none" /><text fill="#e1ed5e" style="font-size:6.75px; font-family:Arial;" text-anchor="middle"><textPath startOffset="22.20632615414155" xlink:href="#id49">January</textPath></text><path d="M 100.0 79.0 l 0.0 -11.833269679018436 a32.833269679018436,32.833269679018436 0 0,0 0.5651707647455123,0.004864603202943006 l -0.2036902854729839 11.83151645242405" fill="#ff780b" stroke="none" /><path d="M 101.80526077348638 79.07773832637324 l 1.2403789473484992 -14.375503690120405 a35.42891701679966,35.42891701679966 0 0,0 0.6071417623214791,0.05765542606981262 l -1.4876458367602226 14.352022719535416" fill="#ff9c0e" stroke="none" /><path d="M 103.2404852339499 79.25152402106235 l 2.2502357691024355 -14.408015908548942 a35.582677512636266,35.582677512636266 0 0,0 0.6043477064826843,0.09972254982061071 l -2.497912681723995 14.367147095788708" fill="#ff9f0e" stroke="none" /><path d="M 103.95276090670814 79.375362276772 l 2.2731778793860045 -11.860942604250948 a33.07680823449081,33.07680823449081 0 0,0 0.5582634240913301,0.11198239100310077 l -2.47700771294446 11.820056257170638" fill="#ff7c0b" stroke="none" /><path d="M 105.71112130821622 79.79150937346287 l 2.8574317811927075 -10.110866194197108 a31.506880202092724,31.506880202092724 0 0,0 0.520628363768679,0.15198569595381953 l -3.0310503626848133 10.060182169324584" fill="#ff6509" stroke="none" /><path d="M 109.41281617654863 81.2277094730956 l 4.201841472850331 -8.379871379286234 a30.374311499856702,30.374311499856702 0 0,0 0.4653626748471976,0.23837683684108843 l -4.345464635286285 8.306302017132646" fill="#ff5507" stroke="none" /><path d="M 110.05341064243156 81.56283822128135 l 4.906195583237711 -8.997575539629054 a31.248274034797873,31.248274034797873 0 0,0 0.4700274774127834,0.26156978229226174 l -5.06034714972253 8.911790359776612" fill="#ff6209" stroke="none" /><line stroke="#e1ed5e" stroke-width="0.3" x1="143.23703022742887" x2="145.7803849466894" y1="26.81831364943548" y2="22.513508569990506" /><path d="M 143.74570117128098 25.957352633546492 a86.0,86.0 0 0,1 28.547481713284135,27.462654790039103" fill="none" id="id50" stroke="none" /><text fill="#e1ed5e" style="font-size:6.75px; font-family:Arial;" text-anchor="middle"><textPath startOffset="19.985693538727396" xlink:href="#id50">February</textPath></text><path d="M 110.99172775467656 82.1063720568725 l 6.136245282975606 -9.98930218360085 a32.72346639386718,32.72346639386718 0 0,0 0.4774211129081326,0.29896105710437554 l -6.307285548256002 9.88219678517353" fill="#ff770a" stroke="none" /><path d="M 113.89432698308785 84.25364557470407 l 5.5684458392521465 -6.310685065182076 a29.41619480861729,29.41619480861729 0 0,0 0.3767920566787586,0.3382876287865011 l -5.6762488835268945 6.213898427626278" fill="#ff4706" stroke="none" /><path d="M 114.68862486808459 84.99185889309783 l 9.700695708258086 -9.911711363872739 a34.86886871323472,34.86886871323472 0 0,0 0.425340754904593,0.4235142065301859 l -9.869872263330002 9.743261306692434" fill="#ff950d" stroke="none" /><path d="M 114.94478906791727 85.2469230424477 l 22.04105630402922 -21.758313108423355 a51.97147643109017,51.97147643109017 0 0,0 0.6230037088484285,0.6420600855403882 l -22.412324276580758 21.37568882733285" fill="#92ff23" stroke="none" /><path d="M 115.4437574822437 85.77008943001954 l 10.235045585483173 -9.43059249205068 a34.91733569646293,34.91733569646293 0 0,0 0.4034720742614969,0.445523941706701 l -10.395861300360705 9.25301576307443" fill="#ff950d" stroke="none" /><path d="M 115.9244219780498 86.31012108654704 l 13.802373998282741 -11.865600460420763 a39.20159339933757,39.20159339933757 0 0,0 0.43549122259328266,0.5154842465478933 l -14.00457583436314 11.626257264243764" fill="#ffcf13" stroke="none" /><path d="M 117.45458315368197 88.32363383020206 l 8.696595157630316 -5.817648499360628 a31.46306845040364,31.46306845040364 0 0,0 0.29725612583447625,0.4527414732164732 l -8.795447918822717 5.66708896216648" fill="#ff6509" stroke="none" /><line stroke="#e1ed5e" stroke-width="0.3" x1="172.23445277983987" x2="176.4835382374775" y1="55.19839476539836" y2="52.563006222186495" /><path d="M 173.08426987136738 54.67131705675599 a86.0,86.0 0 0,1 12.851231095245387,41.99856678651699" fill="none" id="id51" stroke="none" /><text fill="#e1ed5e" style="font-size:6.75px; font-family:Arial;" text-anchor="middle"><textPath startOffset="22.20632615414155" xlink:href="#id51">March</textPath></text><path d="M 117.84615892207809 88.93136811851018 l 7.810153058957987 -4.844051289980961 a30.190393011417793,30.190393011417793 0 0,0 0.27010942335120935,0.4439888714985487 l -7.89237828059542 4.708894645275332" fill="#ff5307" stroke="none" /><path d="M 118.21658344932153 89.55222093294921 l 11.78328425684686 -6.758081225400086 a34.58372002533769,34.58372002533769 0 0,0 0.2917257970557351,0.5189476413229616 l -11.897867695195028 6.55425007414233" fill="#ff910d" stroke="none" /><path d="M 118.89224826269711 90.83032412892265 l 8.068613188897642 -3.9162394354820202 a29.96880427415369,29.96880427415369 0 0,0 0.22125797824131835,0.4660257299956704 l -8.134829360980717 3.7767712898458092" fill="#ff4f07" stroke="none" /><path d="M 119.196687751892 91.48605970444005 l 10.367027657706048 -4.59788978499318 a32.340892951200395,32.340892951200395 0 0,0 0.2213184175748028,0.5108334217498228 l -10.444636785123533 4.418757218656754" fill="#ff710a" stroke="none" /><path d="M 119.34039704204932 91.81776055985345 l 8.622022080183678 -3.6476732594946766 a30.361879349746363,30.361879349746363 0 0,0 0.199489566459181,0.48307980855138044 l -8.683533333529057 3.4987188804899927" fill="#ff5507" stroke="none" /><path d="M 119.61058180528143 92.48833698450437 l 12.663155906376169 -4.850511872919718 a34.56034597414553,34.56034597414553 0 0,0 0.20801281671087252,0.5573709313192627 l -12.744773311588666 4.631817804571122" fill="#ff900d" stroke="none" /><path d="M 119.85752413597 93.16781622104841 l 16.174012892332545 -5.56483415389037 a38.104562905892806,38.104562905892806 0 0,0 0.2080558239254045,0.622060431691844 l -16.26740601002972 5.285600619276212" fill="#ffc111" stroke="none" /><path d="M 120.18372546131832 94.20196356495316 l 12.158368056753869 -3.4926486251941036 a33.65007937613686,33.65007937613686 0 0,0 0.15513204071914433,0.5580924897982626 l -12.216686868039375 3.282844831976889" fill="#ff840c" stroke="none" /><path d="M 120.53481517161879 95.60439243477599 l 11.750922894157592 -2.5153596533613882 a33.01712207852593,33.01712207852593 0 0,0 0.11417745962871685,0.5567698424490726 l -11.792479649701304 2.3127141547489036" fill="#ff7b0b" stroke="none" /><path d="M 120.6074358757038 95.95851677861258 l 12.258143723926686 -2.4040391286144605 a33.491656883230206,33.491656883230206 0 0,0 0.10607968155463979,0.5666819006054071 l -12.297709129391185 2.192679150546491" fill="#ff820b" stroke="none" /><path d="M 120.67395015179393 96.31383870115 l 11.990182163170951 -2.137847152166374 a33.17927989464273,33.17927989464273 0 0,0 0.0954111880446174,0.5631222327570123 l -12.025205212735791 1.9311391310935238" fill="#ff7d0b" stroke="none" /><path d="M 120.94382443527127 98.46500227214037 l 7.177751872183518 -0.5260659460259282 a28.19700405156216,28.19700405156216 0 0,0 0.03131130809183481,0.48437207746769 l -7.1857437712797685 0.4024348043052029" fill="#ff3505" stroke="none" /><path d="M 120.96714384426684 98.82574320788733 l 15.89601858438337 -0.8902503807339175 a36.92092813172204,36.92092813172204 0 0,0 0.03007542195257897,0.6348446229302509 l -15.908987614569444 0.6164946511806668" fill="#ffb110" stroke="none" /><line stroke="#e1ed5e" stroke-width="0.3" x1="184.98032266829074" x2="189.97916517819016" y1="98.17113171792111" y2="98.06355123074" /><path d="M 185.9800911702706 98.14961562048488 a86.0,86.0 0 0,1 -9.607161424134198,41.387399972396054" fill="none" id="id52" stroke="none" /><text fill="#e1ed5e" style="font-size:6.75px; font-family:Arial;" text-anchor="middle"><textPath startOffset="21.466115282336823" xlink:href="#id52">April</textPath></text><path d="M 120.99980553446 99.90962569577887 l 16.25325147570857 -0.06994713789315046 a37.25340198649877,37.25340198649877 0 0,0 -0.0027597723069347603,0.6412738915613014 l -16.252047406112133 -0.20983623187183567" fill="#ffb510" stroke="none" /><path d="M 120.95626037817324 101.35467743843564 l 13.588398185520376 0.8783960551271255 a34.61675970552159,34.61675970552159 0 0,0 -0.04355685330045567,0.5942986572036516 l -13.571264773555583 -1.1121678488275475" fill="#ff910d" stroke="none" /><path d="M 120.89721153311464 102.0752229133903 l 15.853197596396024 1.5743209973451229 a36.93117574547021,36.93117574547021 0 0,0 -0.06826586882377754,0.6320571619067226 l -15.823749426071194 -1.8469744811366369" fill="#ffb110" stroke="none" /><path d="M 120.76222939487914 103.15116336523771 l 7.593491847208167 1.152493447021412 a28.680453084229093,28.680453084229093 0 0,0 -0.07828158356720887,0.4874594955986164 l -7.572528509279669 -1.2830321723132334" fill="#ff3d05" stroke="none" /><path d="M 120.5718875245553 104.21870165774334 l 13.532184065743623 2.7750612228896423 a34.81379637825719,34.81379637825719 0 0,0 -0.12543901755296819,0.5860093292082543 l -13.482411009466212 -3.0075843715140658" fill="#ff940d" stroke="none" /><path d="M 120.32669344350535 105.2749913415812 l 11.08213914340438 2.8759319950453848 a32.449226735194884,32.449226735194884 0 0,0 -0.14495830386906972,0.5394437745094732 l -11.030992763193533 -3.066266702730406" fill="#ff730a" stroke="none" /><path d="M 120.13307415673323 105.97154293290107 l 11.418675291147569 3.38682057231385 a32.91036099342553,32.91036099342553 0 0,0 -0.165763576202995,0.5417249580477186 l -11.35868494243844 -3.5828725029136255" fill="#ff790b" stroke="none" /><path d="M 119.9155931802556 106.66101706037122 l 14.510290557065911 4.853146581010801 a36.30037789687735,36.30037789687735 0 0,0 -0.20329796575706938,0.5908790501584044 l -14.424601760365611 -5.102198334258506" fill="#ffa80f" stroke="none" /><path d="M 119.12269723197855 108.67885076344098 l 11.723105114866172 5.320540222009688 a33.87397925228343,33.87397925228343 0 0,0 -0.24554664146849756,0.5288856208684276 l -11.629783856557843 -5.521545910156947" fill="#ff870c" stroke="none" /><path d="M 118.81262510543309 109.33194174019688 l 12.953451703274483 6.425517754802921 a35.459570859688476,35.459570859688476 0 0,0 -0.2759452494618258,0.544466156120782 l -12.840927784026388 -6.647538122626397" fill="#ff9d0e" stroke="none" /><line stroke="#e1ed5e" stroke-width="0.3" x1="174.80103733775053" x2="179.2010983576182" y1="140.37084112569926" y2="142.7455964860345" /><path d="M 175.68104954172406 140.8457921977663 a86.0,86.0 0 0,1 -30.038265399797805,32.042727171017184" fill="none" id="id53" stroke="none" /><text fill="#e1ed5e" style="font-size:6.75px; font-family:Arial;" text-anchor="middle"><textPath startOffset="22.206326154141568" xlink:href="#id53">May</textPath></text><path d="M 117.55443506779139 111.5257021239791 l 7.8132724987287006 5.12995440104214 a30.346852908661923,30.346852908661923 0 0,0 -0.29045824739041304,0.43419566995614506 l -7.7238111459275665 -5.2636869852040915" fill="#ff5507" stroke="none" /><path d="M 116.27256486870786 113.27417163493432 l 2.8212302910601026 2.301388589159838 a24.640841907239338,24.640841907239338 0 0,0 -0.2709366172558273,0.32636060913037485 l -2.781197673910732 -2.349610455403983" fill="#ff0000" stroke="none" /><path d="M 115.80600337817218 113.82643327865902 l 9.603499569937423 8.400741342921659 a33.75929696732784,33.75929696732784 0 0,0 -0.3863689651519494,0.4340896282174928 l -9.457471755137135 -8.564805140880019" fill="#ff850c" stroke="none" /><path d="M 115.07121518719521 114.62390073753431 l 10.344659146677795 10.037629125830033 a35.41408933400428,35.41408933400428 0 0,0 -0.42827333292815006,0.4338386251519311 l -10.170345188694109 -10.214208244962629" fill="#ff9c0e" stroke="none" /><path d="M 114.55890576462653 115.13401014063108 l 9.730929752800451 10.115319924280618 a35.03604969442918,35.03604969442918 0 0,0 -0.4382245123442591,0.41436862901642146 l -9.555369406065385 -10.281323190042961" fill="#ff970d" stroke="none" /><path d="M 114.0293411484842 115.62618273729858 l 42.088023445452606 46.878548211895726 a84.0,84.0 0 0,0 -1.0842305883736492,0.9567074329108447 l -41.27485050417237 -47.59607878657886" fill="#4dd2ff" stroke="none" /><path d="M 113.48314897796784 116.09983520530334 l 12.105473696830883 14.45479330678477 a39.85427121281897,39.85427121281897 0 0,0 -0.5297389333609132,0.4359390777130647 l -11.85486463492528 -14.661027503355013" fill="#ffd814" stroke="none" /><path d="M 112.92097659922987 116.55440617244103 l 7.008204244344018 8.97893891450983 a32.390183087244054,32.390183087244054 0 0,0 -0.4424672860269636,0.33926504715248307 l -6.85260822982356 -9.098243303489685" fill="#ff720a" stroke="none" /><path d="M 112.04921762599082 117.19931262002967 l 7.428807897117566 10.604040310556142 a33.94731082812859,33.94731082812859 0 0,0 -0.48147489598691184,0.331162823782296 l -7.24517611650777 -10.730343923703531" fill="#ff880c" stroke="none" /><path d="M 111.1453310114006 117.79835938074945 l 7.621380463368568 12.17084251025848 a35.36018271391179,35.36018271391179 0 0,0 -0.5186510366704218,0.3185978278346634 l -7.4107502267658365 -12.30022880492152" fill="#ff9c0e" stroke="none" /><line stroke="#e1ed5e" stroke-width="0.3" x1="143.8653032363475" x2="146.44561519142675" y1="172.8068346515853" y2="177.08958963109032" /><path d="M 144.38136562736335 173.6633856474863 a86.0,86.0 0 0,1 -40.68145358897372,12.25698825130547" fill="none" id="id54" stroke="none" /><text fill="#e1ed5e" style="font-size:6.75px; font-family:Arial;" text-anchor="middle"><textPath startOffset="21.466115282336833" xlink:href="#id54">June</textPath></text><path d="M 110.21172684928248 118.3499491758327 l 7.541533570928978 13.551748864503395 a36.508856369443166,36.508856369443166 0 0,0 -0.5517656274488213,0.3008666137281898 l -7.307145131611509 -13.679556129991356" fill="#ffab0f" stroke="none" /><path d="M 109.2508944713604 118.85261126421891 l 5.210837502536063 10.619285962071869 a32.828865618566006,32.828865618566006 0 0,0 -0.5094529251911126,0.24456836349501318 l -5.027271909344718 -10.707408602066442" fill="#ff780b" stroke="none" /><path d="M 108.59647513512805 119.15986991738527 l 5.832337883151053 12.99914597539842 a35.24759492942426,35.24759492942426 0 0,0 -0.5557023785319315,0.24360359216086233 l -5.607714829961367 -13.097614120853738" fill="#ff9a0e" stroke="none" /><path d="M 107.2578585660854 119.70592522655815 l 1.3969197929345005 3.7927987623922013 a25.041869290303186,25.041869290303186 0 0,0 -0.4057742040360533,0.14549619281265716 l -1.3314260282687123 -3.8162824962448183" fill="#ff0601" stroke="none" /><path d="M 106.57524785965236 119.94407469862006 l 4.483305584332875 13.598784924801716 a35.31876322848886,35.31876322848886 0 0,0 -0.5790236332074143,0.1853850823893409 l -4.248560606034521 -13.673942853850765" fill="#ff9b0e" stroke="none" /><path d="M 105.18746579009965 120.34920634021253 l 2.8805421597277334 11.299688354928893 a32.66106684881296,32.66106684881296 0 0,0 -0.5459790587646757,0.13418836903985396 l -2.6856098162198467 -11.347597982282776" fill="#ff760a" stroke="none" /><path d="M 104.48393922423573 120.51570834832081 l 2.1547597980522406 9.858836475434444 a31.091563131480612,31.091563131480612 0 0,0 -0.5238314530202565,0.10977397409821238 l -1.9847368836026058 -9.894466430259197" fill="#ff6008" stroke="none" /><path d="M 103.41894727170886 120.7198165907248 l 2.1559799601585325 13.065866712075737 a34.24254969884327,34.24254969884327 0 0,0 -0.5823909852871327,0.0909574944263015 l -1.9307531112628828 -13.101042513849144" fill="#ff8c0c" stroke="none" /><path d="M 102.70371172650421 120.8252237178851 l 2.3733819483312377 18.2808727563179 a39.434295500651785,39.434295500651785 0 0,0 -0.6738993926891554,0.08159983147948077 l -2.0583551325907017 -18.319018116522734" fill="#ffd213" stroke="none" /><path d="M 101.98527174616119 120.90594882070398 l 2.921101184749097 30.76072179365214 a51.899107388369785,51.899107388369785 0 0,0 -0.8900837347649198,0.0768001699125493 l -2.3911731322426353 -30.806446215843355" fill="#93ff23" stroke="none" /><path d="M 101.26447882468166 120.96189622390904 l 1.2528307666019098 20.768800554838165 a41.80655332861237,41.80655332861237 0 0,0 -0.7186983128636774,0.03714849351039135 l -0.8951443853247528 -20.78728885511076" fill="#fff116" stroke="none" /><path d="M 100.90346689309514 120.98055641714683 l 0.8091727372567833 18.79083162314091 a39.80824589396768,39.80824589396768 0 0,0 -0.6848528131915053,0.02358771561725068 l -0.48559957239062573 -18.801976137184255" fill="#ffd714" stroke="none" /><line stroke="#e1ed5e" stroke-width="0.3" x1="102.19456741930631" x2="102.32365962044197" y1="184.97166512339345" y2="189.96999836594603" /><path d="M 102.22038585953345 185.97133177190398 a86.0,86.0 0 0,1 -42.740103519485714,-10.115201625700543" fill="none" id="id55" stroke="none" /><text fill="#e1ed5e" style="font-size:6.75px; font-family:Arial;" text-anchor="middle"><textPath startOffset="22.20632615414155" xlink:href="#id55">July</textPath></text><path d="M 100.18074693466247 120.99922214144158 l 0.12391198743663351 14.396124365973977 a35.39665763089545,35.39665763089545 0 0,0 -0.609317844198168,0.0 l 0.1239119874366236 -14.396124365973977" fill="#ff9c0e" stroke="none" /><path d="M 99.81925306533755 120.99922214144158 l -0.11310097180224024 13.140097981321933 a34.140584720192756,34.140584720192756 0 0,0 -0.5876087394529577,-0.01011621733924638 l 0.33926940114786586 -13.136204286703526" fill="#ff8b0c" stroke="none" /><path d="M 98.73552117531835 120.96189622390904 l -1.2085039607448742 20.033972983054845 a41.07039001387137,41.07039001387137 0 0,0 -0.705310098492151,-0.04864231385746719 l 1.5531768200159553 -20.010202324681092" fill="#ffe815" stroke="none" /><path d="M 98.37488393609728 120.93702456842531 l -1.1099981989871106 14.300553713862108 a35.34356763587114,35.34356763587114 0 0,0 -0.6061517483497684,-0.052301323401158485 l 1.3559942650784207 -14.279328138182287" fill="#ff9b0e" stroke="none" /><path d="M 97.65516085044442 120.86867818915974 l -1.6643257696530687 14.812222363055604 a35.9054322849133,35.9054322849133 0 0,0 -0.6135940481209847,-0.07429769408708126 l 1.9190472408254426 -14.781379140243175" fill="#ffa30f" stroke="none" /><path d="M 96.22490169976321 120.6578951692458 l -2.372979856875094 12.98529607003419 a34.20033891336053,34.20033891336053 0 0,0 -0.5782013288984225,-0.11081366081414085 l 2.596148800345212 -12.942525210871581" fill="#ff8b0c" stroke="none" /><path d="M 95.86986931433489 120.58985236759428 l -3.434597419791097 17.12242522036098 a38.46350207899004,38.46350207899004 0 0,0 -0.6480340694702481,-0.13580183997473147 l 3.728822950690732 -17.06076739965971" fill="#ffc612" stroke="none" /><path d="M 95.16358092515715 120.4354850818985 l -3.06290717502848 12.941805272440783 a34.29931291731332,34.29931291731332 0 0,0 -0.5733648159613148,-0.14091912186662534 l 3.2852252757330054 -12.88716489226013" fill="#ff8d0d" stroke="none" /><path d="M 94.81253420990036 120.34920634021253 l -2.7953000758475848 10.96530373940869 a32.31598818537399,32.31598818537399 0 0,0 -0.537845081941867,-0.14204977453872714 l 2.983635600600941 -10.915562615566381" fill="#ff710a" stroke="none" /><path d="M 93.08242187328487 119.8279376855182 l -6.477141855543341 18.565509885026827 a40.66294799636769,40.66294799636769 0 0,0 -0.6588955147759321,-0.23625648921910206 l 6.795756930948999 -18.451265854767765" fill="#ffe215" stroke="none" /><path d="M 92.7421414339146 119.70592522655815 l -7.351079607819893 19.95903113393223 a42.26972720101933,42.26972720101933 0 0,0 -0.6806025489049394,-0.25734564715074126 l 7.693552377485116 -19.829537236674856" fill="#fff717" stroke="none" /><line stroke="#e1ed5e" stroke-width="0.3" x1="58.666819895761336" x2="56.23545636021788" y1="174.27360380694188" y2="178.64263932499728" /><path d="M 58.180547188652646 175.14741091055294 a86.0,86.0 0 0,1 -31.652253787137756,-30.449443065178592" fill="none" id="id56" stroke="none" /><text fill="#e1ed5e" style="font-size:6.75px; font-family:Arial;" text-anchor="middle"><textPath startOffset="22.20632615414155" xlink:href="#id56">August</textPath></text><path d="M 86.24171649860922 115.8653595955263 l -7.581620116105228 8.742742468311983 a32.57223009847961,32.57223009847961 0 0,0 -0.42042628814662414,-0.37097731716306875 l 7.730988757158439 -8.610942009376625" fill="#ff750a" stroke="none" /><path d="M 85.18274418774928 114.88116024355367 l -13.265798361308718 13.323011607189102 a39.801171358407345,39.801171358407345 0 0,0 -0.48132764763041624,-0.48758236584070436 l 13.493166633994669 -13.092688747367733" fill="#ffd714" stroke="none" /><path d="M 84.19399662182784 113.82643327865904 l -13.360215316799943 11.686959773863764 a38.75050371305461,38.75050371305461 0 0,0 -0.43484983132793664,-0.5058285946083058 l 13.559407657698658 -11.455254080093928" fill="#ffc912" stroke="none" /><path d="M 83.28015986056508 112.70617746262583 l -13.462151170776222 10.230509405478077 a37.90836588320725,37.90836588320725 0 0,0 -0.39034557239257095,-0.5229316835816141 l 13.636258009863877 -9.997264842387155" fill="#ffbe11" stroke="none" /><path d="M 82.85270091963577 112.12312394758628 l -15.747616419916826 11.133549653677672 a40.285832903967105,40.285832903967105 0 0,0 -0.39545166900198275,-0.5696776233765233 l 15.936928996080942 -10.860830768114136" fill="#ffde14" stroke="none" /><path d="M 82.05923443525364 110.91462005526583 l -11.493593532787239 6.992355260833416 a34.45346514436461,34.45346514436461 0 0,0 -0.30387812586670016,-0.5093172179897335 l 11.612252534352171 -6.793475948957571" fill="#ff8f0d" stroke="none" /><line stroke="#e1ed5e" stroke-width="0.3" x1="26.63291911575756" x2="22.317208475507996" y1="142.92168965132927" y2="145.44649492493687" /><path d="M 25.769776987707644 143.4266507060508 a86.0,86.0 0 0,1 -11.730757126820373,-40.83630448921669" fill="none" id="id57" stroke="none" /><text fill="#e1ed5e" style="font-size:6.75px; font-family:Arial;" text-anchor="middle"><textPath startOffset="21.46611528233685" xlink:href="#id57">September</textPath></text><path d="M 81.87401531095188 110.60418214915194 l -15.178847167278482 8.880028474988885 a38.58557098999664,38.58557098999664 0 0,0 -0.3304541866605542,-0.5761747285089708 l 15.329453350091413 -8.617433900621608" fill="#ffc712" stroke="none" /><path d="M 81.18737489456691 109.33194174019688 l -18.614463670975773 9.233644402576763 a41.77879800930059,41.77879800930059 0 0,0 -0.3140308194437886,-0.6469965009104822 l 18.770647747034282 -8.911858945700995" fill="#fff116" stroke="none" /><path d="M 80.87730276802145 108.67885076344099 l -15.136259025285836 6.869602734574636 a37.62220740489729,37.62220740489729 0 0,0 -0.26256523367983603,-0.5920152867507202 l 15.252265343696953 -6.6080391113312205" fill="#ffba11" stroke="none" /><path d="M 80.58989483394504 108.01547362559985 l -9.553914043641871 3.9453236024698928 a31.33648160069486,31.33648160069486 0 0,0 -0.20159413060120684,-0.5003400995378707 l 9.620410788500465 -3.7802841350892167" fill="#ff6309" stroke="none" /><path d="M 80.20201598880116 107.00284435728193 l -16.35863017577606 5.786293238467893 a38.35182902951013,38.35182902951013 0 0,0 -0.21478698780800262,-0.6242715261304229 l 16.45580799452729 -5.5038490092481736" fill="#ffc412" stroke="none" /><path d="M 80.0844068197444 106.66101706037122 l -7.420002882904503 2.4817119602558697 a28.824023072306737,28.824023072306737 0 0,0 -0.1533269873363371,-0.4718919447297253 l 7.461622121257089 -2.353621115548341" fill="#ff3f05" stroke="none" /><path d="M 79.86692584326677 105.97154293290107 l -21.941138305526817 6.507821327641369 a43.8859190021891,43.8859190021891 0 0,0 -0.20857799302088156,-0.7260873565676859 l 22.049908935433802 -6.129176495569087" fill="#f2ff19" stroke="none" /><path d="M 79.76711848015287 105.62410040840567 l -12.224788737581427 3.398104183245584 a33.688284821783,33.688284821783 0 0,0 -0.15049346685131668,-0.5600421750975866 l 12.281470280774519 -3.187171074972458" fill="#ff840c" stroke="none" /><path d="M 79.50377843672027 104.57218783832718 l -21.01721845797675 4.688409048094328 a42.533802523302086,42.533802523302086 0 0,0 -0.15325528831573618,-0.7159576856985328 l 21.094807785016926 -4.325937542979631" fill="#fffa17" stroke="none" /><path d="M 79.4281124754447 104.21870165774334 l -14.308586566960477 2.9342790153770864 a35.6063562493965,35.6063562493965 0 0,0 -0.11795888527441963,-0.6014698146953118 l 14.356975385210564 -2.68754547361382" fill="#ff9f0e" stroke="none" /><path d="M 79.29508885075956 103.50808413554451 l -16.17328656955055 2.7402798121322434 a37.403790169030565,37.403790169030565 0 0,0 -0.10209141108224913,-0.6357233142630376 l 16.218059734994092 -2.461477268175992" fill="#ffb711" stroke="none" /><path d="M 79.23777060512086 103.15116336523772 l -11.572665710932993 1.756427960256967 a32.70519674488971,32.70519674488971 0 0,0 -0.07968535372100567,-0.5573191783300308 l 11.601185115670598 -1.5569633099465356" fill="#ff770a" stroke="none" /><path d="M 79.1416061653843 102.43462659150553 l -15.700764470198692 1.8326194715277453 a36.8073558534018,36.8073558534018 0 0,0 -0.06803699247908783,-0.6299380512099192 l 15.729983764178831 -1.562085098433044" fill="#ffaf10" stroke="none" /><path d="M 79.07016306316243 101.71520430193888 l -9.15819443089749 0.7505158560610137 a30.18889543331084,30.18889543331084 0 0,0 -0.03798545273669541,-0.5182813230094677 l 9.169756442298521 -0.5927613965547852" fill="#ff5307" stroke="none" /><path d="M 79.0095281055655 100.63252640178507 l -20.784326287064353 0.6263144147497478 a41.79376081792992,41.79376081792992 0 0,0 -0.015479488180935736,-0.7192709902872071 l 20.7920278379303 -0.2684536086724118" fill="#fff116" stroke="none" /><line stroke="#e1ed5e" stroke-width="0.3" x1="15.007084014347285" x2="10.007500721073583" y1="101.09737516637583" y2="101.16192664675087" /><path d="M 14.007167355692545 101.11028546245083 a86.0,86.0 0 0,1 10.666146001902534,-42.60595125391555" fill="none" id="id58" stroke="none" /><text fill="#e1ed5e" style="font-size:6.75px; font-family:Arial;" text-anchor="middle"><textPath startOffset="22.20632615414155" xlink:href="#id58">October</textPath></text><path d="M 79.00486145842228 99.54816195383935 l -17.915845496815432 -0.3855683356680922 a38.919993939932894,38.919993939932894 0 0,0 0.02017965646678247,-0.6696645558350507 l 17.906554145893004 0.6939030389281372" fill="#ffcc13" stroke="none" /><path d="M 79.01574976396665 99.18683210126434 l -16.412947672586522 -0.6360237807332927 a37.425266437800076,37.425266437800076 0 0,0 0.03048625093574746,-0.6435165734459175 l 16.399567813417274 0.9184514608022193" fill="#ffb811" stroke="none" /><path d="M 79.12142395522702 97.74499172005258 l -22.974565656889695 -2.4813874123112067 a44.108179301120025,44.108179301120025 0 0,0 0.08802658210306412,-0.7541579985312794 l 22.92844872178304 2.8764891491673477" fill="#f0ff19" stroke="none" /><path d="M 79.21141760316559 97.0276538004421 l -15.703133594887536 -2.245230029202062 a36.862832741440485,36.862832741440485 0 0,0 0.09521863939789889,-0.6273718638825085 l 15.662159062050335 2.5152010054766625" fill="#ffb010" stroke="none" /><path d="M 79.32604984820605 96.31383870115002 l -16.035404844815158 -2.8591095710473153 a37.28829997502427,37.28829997502427 0 0,0 0.11810496568907926,-0.6309214492989489 l 15.983814155216216 3.134709097808837" fill="#ffb610" stroke="none" /><path d="M 79.46518482838121 95.60439243477599 l -15.476226564974535 -3.3127845564514087 a36.82681680591162,36.82681680591162 0 0,0 0.13802272340347324,-0.6187288054814315 l 15.416909454569025 3.5786915314827996" fill="#ffb010" stroke="none" /><path d="M 79.71946130924805 94.55025226153421 l -15.34460851586996 -4.123373980945503 a36.88896546324043,36.88896546324043 0 0,0 0.17006380366487095,-0.6118099856864597 l 15.271357941638726 4.386895270050905" fill="#ffb010" stroke="none" /><path d="M 79.81627453868168 94.20196356495316 l -15.247307898336935 -4.379986583763258 a36.86394278294756,36.86394278294756 0 0,0 0.18044742510945044,-0.6083790122488869 l 15.169654576115777 4.641794982758683" fill="#ffb010" stroke="none" /><path d="M 79.91906864156998 93.8553929516997 l -18.800748764896476 -5.752881244007103 a40.66122571785404,40.66122571785404 0 0,0 0.21055644381332883,-0.6675214666251512 l 18.698936837314942 6.075652877058669" fill="#ffe215" stroke="none" /><path d="M 80.14247586403 93.16781622104843 l -21.147312825261086 -7.27594873680387 a43.36399494164783,43.36399494164783 0 0,0 0.24892361876164992,-0.703740590654191 l 21.018936125689624 7.638886953884672" fill="#f9ff18" stroke="none" /><path d="M 80.52162464483688 92.15188598940014 l -18.966289162460487 -7.641787212275832 a41.44791031845965,41.44791031845965 0 0,0 0.27232917846824467,-0.6594667066175219 l 18.831938297106042 7.967128489346666" fill="#ffed16" stroke="none" /><path d="M 80.65960295795068 91.81776055985345 l -9.365396420995703 -3.9621687084226753 a31.169042776800723,31.169042776800723 0 0,0 0.21329909582557863,-0.49232372149912756 l 9.295806615327443 4.122791574508402" fill="#ff6108" stroke="none" /><path d="M 81.10775173730289 90.83032412892265 l -8.833914461340452 -4.287691499547886 a30.819487924814368,30.819487924814368 0 0,0 0.23575438766783957,-0.4752664596106272 l 8.7588000607192 4.439117547657475" fill="#ff5c08" stroke="none" /><path d="M 81.26839172434947 90.50648371742162 l -24.611386020440214 -12.473493492045426 a48.5918169344322,48.5918169344322 0 0,0 0.3845476952434885,-0.7428237481373762 l 24.39302889203661 12.895289962443139" fill="#b9ff1f" stroke="none" /><path d="M 81.43458229118936 90.18545643968196 l -8.129424682977984 -4.297592110386376 a30.195479521127048,30.195479521127048 0 0,0 0.24687234638057196,-0.45741696443168545 l 8.05424423737894 4.436890058150535" fill="#ff5307" stroke="none" /><line stroke="#e1ed5e" stroke-width="0.3" x1="26.266209847984243" x2="21.928928074336255" y1="57.711370442889674" y2="55.22380399835377" /><path d="M 25.398753493254645 57.213857153982495 a86.0,86.0 0 0,1 29.58750427330803,-30.492523968695096" fill="none" id="id59" stroke="none" /><text fill="#e1ed5e" style="font-size:6.75px; font-family:Arial;" text-anchor="middle"><textPath startOffset="21.46611528233685" xlink:href="#id59">November</textPath></text><path d="M 81.96595687620814 89.24020034530311 l -11.334842021709202 -6.762800134947603 a34.199019256079296,34.199019256079296 0 0,0 0.3059740682058454,-0.502940917666148 l 11.21675215521714 6.956908825820825" fill="#ff8b0c" stroke="none" /><path d="M 82.15384107792192 88.93136811851018 l -19.15009409096511 -11.87736492285501 a43.53437155111017,43.53437155111017 0 0,0 0.4004590094499681,-0.6334299825107166 l 18.942807485269178 12.205242553079943" fill="#f7ff19" stroke="none" /><path d="M 82.7489923806493 88.02491185347247 l -13.028093442280914 -9.043678537218288 a36.85936128049757,36.85936128049757 0 0,0 0.36628969244425746,-0.5180907935571202 l 12.870491130032779 9.266595831107193" fill="#ffb010" stroke="none" /><path d="M 83.17141714833178 87.43820079747576 l -14.111973971987263 -10.533969791150858 a38.610006500479344,38.610006500479344 0 0,0 0.40213987475039953,-0.5291689368652611 l 13.928558157012754 10.775323503897145" fill="#ffc712" stroke="none" /><path d="M 83.39014120810768 87.1503855733568 l -14.143809778650397 -10.941845108770961 a38.88215114126322,38.88215114126322 0 0,0 0.41408735430819005,-0.5258488887421877 l 13.953368343748235 11.183686391466198" fill="#ffcb12" stroke="none" /><path d="M 83.6137871275137 86.86637796730984 l -16.91814330341256 -13.55996662383128 a42.68170352334478,42.68170352334478 0 0,0 0.46442064837298247,-0.5693248011896841 l 16.682224162963184 13.849175594629045" fill="#fffc17" stroke="none" /><path d="M 84.07557802195018 86.31012108654704 l -13.764655387974537 -11.833174592240754 a39.151852767146075,39.151852767146075 0 0,0 0.4437361673610994,-0.5072671468463429 l 13.558927357035595 12.06835729529004" fill="#ffcf13" stroke="none" /><path d="M 84.5562425177563 85.77008943001954 l -15.339909254738913 -14.134224595116953 a41.85879001401648,41.85879001401648 0 0,0 0.4928028930591253,-0.5256877666274199 l 15.094339039709332 14.396181778622422" fill="#fff216" stroke="none" /><path d="M 85.05521093208273 85.24692304244772 l -11.303581895163461 -11.158579277196955 a36.88347742612292,36.88347742612292 0 0,0 0.44991554675760687,-0.4479834664171399 l 11.109830548238541 11.351498594264203" fill="#ffb010" stroke="none" /><path d="M 85.31137513191541 84.99185889309783 l -14.825338373742719 -15.147828491021754 a42.19545625574922,42.19545625574922 0 0,0 0.5234582570495947,-0.5035664285462712 l 14.562396873080695 15.40077800633034" fill="#fff617" stroke="none" /><path d="M 86.37877921826538 84.01681056812374 l -11.909506029646522 -13.974657188375165 a39.36102876754983,39.36102876754983 0 0,0 0.5194577362124797,-0.43503091527319865 l 11.66719075647493 14.177589261042176" fill="#ffd113" stroke="none" /><path d="M 86.93701828274178 83.55741782278169 l -12.933021937026256 -16.278999741565485 a41.791077148851414,41.791077148851414 0 0,0 0.5670998320115953,-0.4426304140735305 l 12.650889549855235 16.49920854486224" fill="#fff116" stroke="none" /><path d="M 87.22198572758235 83.33499621200491 l -13.748491652508157 -17.930694126930028 a43.594928957458784,43.594928957458784 0 0,0 0.5994382577664746,-0.45148446809133935 l 13.437807240983293 18.164695184527222" fill="#f6ff19" stroke="none" /><path d="M 88.09926311788651 82.69761687909137 l -10.13340310243192 -14.732871126694755 a38.88136879749906,38.88136879749906 0 0,0 0.5546988365132747,-0.3745351305360201 l 9.878299571512105 14.905118169529441" fill="#ffcb12" stroke="none" /><path d="M 88.70189139769569 82.29822771554957 l -9.50159026217762 -14.887003929747634 a38.66077867803767,38.66077867803767 0 0,0 0.5640439114917298,-0.3532042456306349 l 9.243927198313648 15.048352516701199" fill="#ffc812" stroke="none" /><line stroke="#e1ed5e" stroke-width="0.3" x1="56.762969772571076" x2="54.21961505331055" y1="26.818313649435495" y2="22.513508569990535" /><path d="M 56.25429882871897 25.957352633546506 a86.0,86.0 0 0,1 42.265352541879196,-11.944610805530505" fill="none" id="id60" stroke="none" /><text fill="#e1ed5e" style="font-size:6.75px; font-family:Arial;" text-anchor="middle"><textPath startOffset="22.20632615414155" xlink:href="#id60">December</textPath></text><path d="M 89.3179101791058 81.91981866633112 l -9.706383949116073 -16.42873115998017 a40.081852554051494,40.081852554051494 0 0,0 0.5970349737024077,-0.34584119270948804 l 9.422152242948346 16.593376510079707" fill="#ffdb14" stroke="none" /><path d="M 90.91171255644093 81.06846463323043 l -11.589358240474418 -24.141439932470128 a47.779140136291076,47.779140136291076 0 0,0 0.7444940808554207,-0.3495499535373614 l 11.172085948319388 24.3373548686475" fill="#c3ff1e" stroke="none" /><path d="M 91.90106846888425 80.62456947434976 l -8.486764299252108 -20.30325993447119 a43.00562501356785,43.00562501356785 0 0,0 0.6854607804987897,-0.2796166632606643 l 8.136019649164938 20.44633748391543" fill="#feff18" stroke="none" /><path d="M 92.91201910852362 80.23233633223022 l -6.1697570173122225 -17.206829913544905 a39.279521255392254,39.279521255392254 0 0,0 0.6384194036306701,-0.2227319942331505 l 5.872655609618267 17.310482760950265" fill="#ffd013" stroke="none" /><path d="M 93.59665428221793 80.00007090966166 l -5.560709652676775 -17.368076572322963 a39.236545058301104,39.236545058301104 0 0,0 0.6450013942104816,-0.20040507288709988 l 5.260922885755565 17.461221780092586" fill="#ffd013" stroke="none" /><path d="M 94.63758080256005 79.69619591428918 l -4.79459934496848 -18.153859701269205 a39.7763363021687,39.7763363021687 0 0,0 0.6634903355869465,-0.16913845976968309 l 4.481400120696534 18.23370115720775" fill="#ffd714" stroke="none" /><path d="M 95.692805502759 79.44645832069477 l -2.7023486382087474 -12.895362724626306 a34.17547221021358,34.17547221021358 0 0,0 0.5768064439820046,-0.11570194634949577 l 2.4799757847596062 12.939968627053013" fill="#ff8b0c" stroke="none" /><path d="M 96.04723909329186 79.375362276772 l -11.569341769983229 -60.36628279164775 a82.46493119716206,82.46493119716206 0 0,0 1.3964253272202405,-0.2551878028234397 l 10.528521321660094 60.55648607582193" fill="#4be1ff" stroke="none" /><path d="M 96.75951476605007 79.25152402106235 l -4.078385955968971 -26.11346354975139 a47.43002479321651,47.43002479321651 0 0,0 0.8077356250044041,-0.11903923442783372 l 3.628281350535918 26.179797268340195" fill="#c7ff1e" stroke="none" /><path d="M 97.83486435360386 79.11191278185805 l -2.0869137473217236 -20.133443575857992 a41.241313179016274,41.241313179016274 0 0,0 0.7067482066157259,-0.06711425816056141 l 1.7400404136157612 20.166383378533737" fill="#ffea16" stroke="none" /></svg>