<?xml version="1.0" encoding="utf-8" ?>
<svg baseProfile="full" height="200mm" version="1.1" viewBox="0,0,200,200" width="200mm" xmlns="http://www.w3.org/2000/svg" xmlns:ev="http://www.w3.org/2001/xml-events" xmlns:xlink="http://www.w3.org/1999/xlink"><defs /><rect fill="#1a1a1a" height="200" width="200" x="0" y="0" /><text alignment-baseline="middle" fill="#e1ed5e" style="dominant-baseline: central; font-size:9.0px; font-family:Arial;" text-anchor="middle" x="100.0" y="100.0">2018</text><line stroke="#e1ed5e" stroke-width="0.3" x1="100.0" x2="100.0" y1="15.0" y2="10.0" /><path d="M 100.0 14.0 a86.0,86.0 0 0,1 42.46469731375804,11.215312516191453" fill="none" id="id13" stroke="none" /><text fill="#e1ed5e" style="font-size:6.75px; font-family:Arial;" text-anchor="middle"><textPath startOffset="22.20632615414155" xlink:href="#id13">January</textPath></text><path d="M 100.0 79.0 l 0.0 -11.68139569677173 a32.68139569677173,32.68139569677173 0 0,0 0.5625565037982948,0.0048421014336186684 l -0.20107602452576645 11.67966497194667" fill="#ff8d0d" stroke="none" /><path d="M 102.52436894288641 79.15227682838746 l 1.112536182142693 -9.187978012910161 a30.255089233621533,30.255089233621533 0 0,0 0.5164763751397218,0.06705345646435336 l -1.2705272857902608 9.167466233281672" fill="#ff6c09" stroke="none" /><path d="M 103.2404852339499 79.25152402106235 l 1.9512262939500318 -12.493490624595648 a33.64494333862597,33.64494333862597 0 0,0 0.5714366023809662,0.09429193565060569 l -2.165992102469873 12.458052426005418" fill="#ff9a0e" stroke="none" /><path d="M 103.59715602781102 79.31037775812273 l 1.2404554787948123 -7.134679470589791 a28.241711188864652,28.241711188864652 0 0,0 0.47823287081728877,0.08739400035427768 l -1.3630834707150021 7.112269988884775" fill="#ff5007" stroke="none" /><path d="M 104.66035177308747 79.52364482259891 l 2.6107778723221715 -11.47106862440808 a32.76441993829218,32.76441993829218 0 0,0 0.5488450878430479,0.12989389981885963 l -2.807846647127743 11.424428812448351" fill="#ff8e0d" stroke="none" /><path d="M 105.01212808612495 79.60689891045804 l 2.813144257078931 -11.445983468157692 a32.78661606079011,32.78661606079011 0 0,0 0.5468981036281702,0.13941650380905873 l -3.009751249392126 11.395863968179766" fill="#ff8e0d" stroke="none" /><path d="M 105.71112130821622 79.79150937346287 l 1.1139170365561577 -3.941534556375229 a25.095913307606757,25.095913307606757 0 0,0 0.4146917815668747,0.1210599026367577 l -1.1815990358464594 3.921776324819768" fill="#ff2303" stroke="none" /><path d="M 107.4271985657038 80.35727306442388 l 4.819062033928398 -12.744983021614905 a34.625635805646,34.625635805646 0 0,0 0.5556867709091914,0.2155978340008066 l -5.037731969837256 12.66014248372355" fill="#ffa70f" stroke="none" /><path d="M 108.43124777332544 80.76684994638697 l 6.684977695007513 -15.249602736135001 a37.650504808944504,37.650504808944504 0 0,0 0.5913242730829705,0.26530996464349327 l -6.9464840865572635 15.132272440974976" fill="#ffce13" stroke="none" /><line stroke="#e1ed5e" stroke-width="0.3" x1="143.23703022742887" x2="145.7803849466894" y1="26.81831364943548" y2="22.513508569990506" /><path d="M 143.74570117128098 25.957352633546492 a86.0,86.0 0 0,1 28.547481713284135,27.462654790039103" fill="none" id="id14" stroke="none" /><text fill="#e1ed5e" style="font-size:6.75px; font-family:Arial;" text-anchor="middle"><textPath startOffset="19.985693538727396" xlink:href="#id14">February</textPath></text><path d="M 111.60114157652 82.49532879139004 l 10.535471094436001 -15.896707778238905 a40.070958795205286,40.070958795205286 0 0,0 0.5716700545558284,0.3859941727162316 l -10.807545843398373 15.713001693224003" fill="#ffed16" stroke="none" /><path d="M 115.68641384162765 86.03803664274999 l 2.9108420888194484 -2.5908452367224566 a24.89685523296545,24.89685523296545 0 0,0 0.28217400556048594,0.32257366706462537 l -2.955007957957782 2.5403560134548835" fill="#ff2003" stroke="none" /><path d="M 116.82858285166822 87.43820079747576 l 10.151034609031074 -7.577302235160106 a33.66724172015001,33.66724172015001 0 0,0 0.3426642042446241,0.4673935894958891 l -10.279961425789324 7.401446201992723" fill="#ff9a0e" stroke="none" /><line stroke="#e1ed5e" stroke-width="0.3" x1="172.23445277983987" x2="176.4835382374775" y1="55.19839476539836" y2="52.563006222186495" /><path d="M 173.08426987136738 54.67131705675599 a86.0,86.0 0 0,1 12.851231095245387,41.99856678651699" fill="none" id="id15" stroke="none" /><text fill="#e1ed5e" style="font-size:6.75px; font-family:Arial;" text-anchor="middle"><textPath startOffset="22.20632615414155" xlink:href="#id15">March</textPath></text><path d="M 117.84615892207809 88.93136811851018 l 13.518918547597874 -8.384769713895475 a36.90803324901116,36.90803324901116 0 0,0 0.33021125541980795,0.5427804807066283 l -13.661245601303905 8.150821459981765" fill="#ffc412" stroke="none" /><path d="M 118.21658344932153 89.55222093294921 l 10.821877261549501 -6.206684312344029 a33.47541412607772,33.47541412607772 0 0,0 0.2823768484288579,0.5023169048994681 l -10.927111751270791 6.019483897509767" fill="#ff970e" stroke="none" /><path d="M 118.3937258080291 89.86733742301442 l 10.660447367270427 -5.872584881368299 a33.17096509152904,33.17096509152904 0 0,0 0.2711993355867891,0.502491180801455 l -10.759954802075681 5.688212717234386" fill="#ff930d" stroke="none" /><path d="M 118.73160827565052 90.50648371742162 l 10.541224946752987 -5.3424825673088465 a32.81776389001094,32.81776389001094 0 0,0 0.25104024600902225,0.5060818172707355 l -10.631625205715418 5.160241161539162" fill="#ff8f0d" stroke="none" /><path d="M 119.04729006885535 91.15688171328212 l 15.954553426618183 -7.407248099510009 a38.59019895994666,38.59019895994666 0 0,0 0.27453744345426134,0.6049068653343028 l -16.07969318703579 7.131519225333643" fill="#ffda14" stroke="none" /><path d="M 119.196687751892 91.48605970444005 l 3.005802948906781 -1.3331063763689182 a24.288164226186424,24.288164226186424 0 0,0 0.16621118286522127,0.3836383262022433 l -3.0283048416146827 1.2811689055800721" fill="#ff1702" stroke="none" /><path d="M 119.47837535516314 92.15188598940014 l 23.080998222458064 -9.299661918687073 a45.884054949846714,45.884054949846714 0 0,0 0.28886514390248696,0.7351302832044018 l -23.23765691624225 8.900982630586888" fill="#cbff1d" stroke="none" /><path d="M 119.7369772167798 92.82701384747503 l 11.047054534791345 -4.0148178889763635 a32.753985561344656,32.753985561344656 0 0,0 0.18801866907714662,0.5315540963473645 l -11.114526284678302 3.8240661662023845" fill="#ff8e0d" stroke="none" /><path d="M 119.85752413597 93.16781622104841 l 13.218163641913169 -4.547844061698548 a34.9786528561919,34.9786528561919 0 0,0 0.19098795222422704,0.5710296677450385 l -13.294488887909166 4.319641291031195" fill="#ffab0f" stroke="none" /><path d="M 119.97218684219823 93.5106431181261 l 17.60485844798243 -5.720165259141766 a39.510843621115455,39.510843621115455 0 0,0 0.20459940835658366,0.6486360363205396 l -17.70071334010722 5.416279056394808" fill="#ffe615" stroke="none" /><path d="M 120.45610955862082 95.25157060432595 l 14.477587791402387 -3.360648966517454 a35.86252030222056,35.86252030222056 0 0,0 0.13440864971610197,0.6025276217895733 l -14.533290828120528 3.1109431751779164" fill="#ffb711" stroke="none" /><path d="M 120.53481517161879 95.60439243477599 l 12.216239180201303 -2.6149635587319398 a33.49297939329852,33.49297939329852 0 0,0 0.11582303549742087,0.5647942547992479 l -12.259441511613721 2.4042936477692796" fill="#ff980e" stroke="none" /><path d="M 120.6074358757038 95.95851677861258 l 12.612904542113275 -2.473614009398012 a33.85317576538778,33.85317576538778 0 0,0 0.10722473711366969,0.5727988331883507 l -12.653615003136803 2.256137098747099" fill="#ff9c0e" stroke="none" /><path d="M 120.78858239683441 97.02765380044208 l 24.42520862863727 -3.4923100890128196 a45.67361032176437,45.67361032176437 0 0,0 0.10457952008303527,0.779238896665438 l -24.481704147778142 3.071352850282717" fill="#ceff1d" stroke="none" /><path d="M 120.87857604477298 97.74499172005257 l 9.585408724250467 -1.0352801835485592 a30.641154778831492,30.641154778831492 0 0,0 0.0521233391007417,0.5248749114961154 l -9.601809189033437 0.8701297413480088" fill="#ff710a" stroke="none" /><path d="M 120.91429891909075 98.10471618934814 l 20.332113250766035 -1.84252530910046 a41.41542869392293,41.41542869392293 0 0,0 0.05822913857261823,0.7105429795854507 l -20.36081687315815 1.4922684123072405" fill="#fffd17" stroke="none" /><path d="M 120.94382443527127 98.46500227214037 l 10.734396758257734 -0.7867366671638174 a31.763188577143588,31.763188577143588 0 0,0 0.035271370734966126,0.5456324937917181 l -10.746348719997117 0.6018451091190641" fill="#ff800b" stroke="none" /><line stroke="#e1ed5e" stroke-width="0.3" x1="184.98032266829074" x2="189.97916517819016" y1="98.17113171792111" y2="98.06355123074" /><path d="M 185.9800911702706 98.14961562048488 a86.0,86.0 0 0,1 -9.607161424134198,41.387399972396054" fill="none" id="id16" stroke="none" /><text fill="#e1ed5e" style="font-size:6.75px; font-family:Arial;" text-anchor="middle"><textPath startOffset="21.466115282336823" xlink:href="#id16">April</textPath></text><path d="M 120.99513854157772 99.54816195383933 l 11.717744131631424 -0.2521785032931297 a32.72045739431298,32.72045739431298 0 0,0 0.007271721036397631,0.5632028079867415 l -11.720348859785537 0.05043943724592546" fill="#ff8d0d" stroke="none" /><path d="M 120.99980553446 99.90962569577887 l 9.327709357946503 -0.04014252616854132 a30.32779573579578,30.32779573579578 0 0,0 -0.0022467159061703075,0.5220576526411849 l -9.32701834475083 -0.12042460467632829" fill="#ff6d0a" stroke="none" /><path d="M 120.99824983174949 100.27111621757518 l 12.74068969674375 0.16449978581822158 a33.741751611464046,33.741751611464046 0 0,0 -0.01249720137771505,0.5806958412125434 l -12.735970432681029 -0.3837854428208798" fill="#ff9b0e" stroke="none" /><path d="M 120.89721153311464 102.0752229133903 l 8.019323168338914 0.7963686046077079 a29.058768332236763,29.058768332236763 0 0,0 -0.05371402418435943,0.4973251533382685 l -8.004426842653503 -0.9342900798307677" fill="#ff5b08" stroke="none" /><path d="M 120.8583938346157 102.4346265915055 l 11.776011237928778 1.3745157143475393 a32.85595774810341,32.85595774810341 0 0,0 -0.07040326242447523,0.5611832719108665 l -11.750606466257455 -1.5770167405458007" fill="#ff8f0d" stroke="none" /><path d="M 120.81339534386255 102.79330883721812 l 9.471831427749732 1.2711885780604004 a30.55675211547829,30.55675211547829 0 0,0 -0.07445072475423434,0.5207081955283863 l -9.448546651978898 -1.4340422455691961" fill="#ff700a" stroke="none" /><path d="M 120.76222939487914 103.15116336523771 l 24.277740594679653 3.6847260136509083 a45.555771097203035,45.555771097203035 0 0,0 -0.12434175609573336,0.7742762339016066 l -24.21071708422263 -4.1020814772457195" fill="#cfff1d" stroke="none" /><path d="M 120.70491114924044 103.5080841355445 l 13.693453502642399 2.3201155825871935 a34.88861422696999,34.88861422696999 0 0,0 -0.10541936640746864,0.5912477912514711 l -13.65148769389574 -2.5554821245718826" fill="#ffaa0f" stroke="none" /><path d="M 120.41448212921028 104.9243191809786 l 8.00517246651541 1.9309833124543994 a29.23477278202828,29.23477278202828 0 0,0 -0.12221344187699,0.48818194934285997 l -7.970747710343359 -2.068493101194655" fill="#ff5d08" stroke="none" /><path d="M 120.32669344350535 105.2749913415812 l 18.11525198040699 4.701098957033794 a39.715306188183604,39.715306188183604 0 0,0 -0.17741758438994393,0.6602368324763882 l -18.031646319675264 -5.012226722685731" fill="#ffe815" stroke="none" /><path d="M 120.23288151984713 105.62410040840565 l 21.45179207669361 5.962918947615988 a43.26512487451019,43.26512487451019 0 0,0 -0.20562752516754723,0.715816390905206 l -21.345971914639964 -6.331292814025776" fill="#eaff1a" stroke="none" /><path d="M 120.13307415673323 105.97154293290107 l 33.57444186707199 9.958301424641615 a56.02015011317649,56.02015011317649 0 0,0 -0.28216343248388637,0.9221264232242827 l -33.39805166208197 -10.534754820417954" fill="#5bff2a" stroke="none" /><path d="M 119.79798401119884 107.00284435728193 l 23.19678028512591 8.205049657324482 a45.60515099477276,45.60515099477276 0 0,0 -0.2681490343356088,0.7378309770639083 l -23.052106989785077 -8.60312843139452" fill="#ceff1d" stroke="none" /><path d="M 119.54520255179757 107.68017299344265 l 13.717784931370923 5.390323332826244 a35.73883336820653,35.73883336820653 0 0,0 -0.2299153789302558,0.5706311152819047 l -13.622966938183275 -5.625653815950962" fill="#ffb510" stroke="none" /><path d="M 119.41010516605496 108.01547362559984 l 23.10290018917665 9.540426780636977 a45.99527435952152,45.99527435952152 0 0,0 -0.30849472682519796,0.72919040634565 l -22.935254481159145 -9.936691712648791" fill="#caff1d" stroke="none" /><path d="M 119.12269723197855 108.67885076344098 l 14.932391700604683 6.777077393353888 a37.39832613091336,37.39832613091336 0 0,0 -0.27109402499177304,0.5839124121756297 l -14.813523058773079 -7.033109872808349" fill="#ffcb12" stroke="none" /><line stroke="#e1ed5e" stroke-width="0.3" x1="174.80103733775053" x2="179.2010983576182" y1="140.37084112569926" y2="142.7455964860345" /><path d="M 175.68104954172406 140.8457921977663 a86.0,86.0 0 0,1 -30.038265399797805,32.042727171017184" fill="none" id="id17" stroke="none" /><text fill="#e1ed5e" style="font-size:6.75px; font-family:Arial;" text-anchor="middle"><textPath startOffset="22.206326154141568" xlink:href="#id17">May</textPath></text><path d="M 118.30583269289576 110.29060199501025 l 10.418080645129901 5.856511597670038 a32.95136529531559,32.95136529531559 0 0,0 -0.282201774876965,0.4920425813563823 l -10.315726874100557 -6.034974024884735" fill="#ff900d" stroke="none" /><path d="M 118.12598468904814 110.60418214915192 l 14.80556684025843 8.661649575948575 a38.15310417498507,38.15310417498507 0 0,0 -0.336508787842145,0.5640080843727477 l -14.65427717671806 -8.915219754207428" fill="#ffd413" stroke="none" /><path d="M 117.55443506779139 111.5257021239791 l 11.709787917214062 7.6882865753058605 a35.008172026719286,35.008172026719286 0 0,0 -0.33507304107704,0.5008887331029538 l -11.5757117707263 -7.888712222614621" fill="#ffac0f" stroke="none" /><path d="M 117.35343817320211 111.8261652097733 l 5.452396232124398 3.7157442799907328 a27.598134602019588,27.598134602019588 0 0,0 -0.2709073538513132,0.39026224844802276 l -5.387627971110949 -3.809047790625775" fill="#ff4706" stroke="none" /><path d="M 117.14729908036423 112.12312394758627 l 9.410389692405928 6.653136456152721 a32.524741162695506,32.524741162695506 0 0,0 -0.3271372657768725,0.4543650499302459 l -9.294472634253454 -6.814135111534098" fill="#ff8b0c" stroke="none" /><path d="M 116.93607887273984 112.41649034213515 l 14.012118603941607 10.272822689715497 a38.37441664589807,38.37441664589807 0 0,0 -0.39514453556303686,0.5293606789838107 l -13.833212801683478 -10.512496248208622" fill="#ffd714" stroke="none" /><path d="M 116.71984013943494 112.70617746262583 l 13.95240080364309 10.60307270657695 a38.52411592652986,38.52411592652986 0 0,0 -0.40577484836424954,0.5245186905108098 l -13.767819138060773 -10.841669391201014" fill="#ffd914" stroke="none" /><path d="M 116.27256486870786 113.27417163493432 l 9.267333914947464 7.559729027218114 a32.959639662468916,32.959639662468916 0 0,0 -0.3624053638157855,0.43654060674772455 l -9.135832551238135 -7.718130891079609" fill="#ff900d" stroke="none" /><path d="M 116.0416608686014 113.55231037782055 l 7.399777375721316 6.251477359107956 a30.68698479309617,30.68698479309617 0 0,0 -0.3443627535800342,0.40057168045093333 l -7.291072112570503 -6.377926138720418" fill="#ff720a" stroke="none" /><path d="M 115.80600337817218 113.82643327865902 l 11.231165338721949 9.824555549056479 a35.9218285274361,35.9218285274361 0 0,0 -0.4111187424294824,0.46189626535938855 l -11.060387746644128 -10.016425984156733" fill="#ffb811" stroke="none" /><path d="M 115.32070863581623 114.36230785411682 l 11.693284291197564 10.961800319293141 a37.02791202105948,37.02791202105948 0 0,0 -0.43991530787478217,0.46124944154848546 l -11.502862431943816 -11.161456877424135" fill="#ffc612" stroke="none" /><path d="M 114.81725581225074 114.88116024355365 l 36.297906600831745 36.454453609819375 a72.44380634822016,72.44380634822016 0 0,0 -0.8912314676257819,0.872257570430695 l -35.66502518083016 -37.07386128317264" fill="#3effba" stroke="none" /><path d="M 114.55890576462653 115.13401014063108 l 11.158693184179475 11.599482717710627 a37.09547864765509,37.09547864765509 0 0,0 -0.463983473659997,0.438725334733751 l -10.95737387612867 -11.7898426891903" fill="#ffc712" stroke="none" /><path d="M 114.29624159901734 115.38237550388516 l 11.218268150717037 12.070557985636313 a37.4787108229376,37.4787108229376 0 0,0 -0.47633737162110323,0.4351228951258051 l -11.00883122962907 -12.2618736473487" fill="#ffcc13" stroke="none" /><path d="M 114.0293411484842 115.62618273729858 l 6.256128482398898 6.968210827530271 a30.364566499587305,30.364566499587305 0 0,0 -0.3919308547804564,0.3458334103246524 l -6.135255274711853 -7.074867379627212" fill="#ff6d0a" stroke="none" /><path d="M 113.48314897796784 116.09983520530334 l 19.13564486640077 22.849315794083495 a50.8037604458022,50.8037604458022 0 0,0 -0.6752784344134797,0.5557081788005417 l -18.7394963034426 -23.175319091741212" fill="#93ff23" stroke="none" /><path d="M 113.20401910651253 116.32954008644616 l 9.125441885666122 11.285523587664493 a35.51332946833363,35.51332946833363 0 0,0 -0.4786562768891396,0.3802734951519335 l -8.929828116059632 -11.440930996821553" fill="#ffb210" stroke="none" /><path d="M 112.34349029814194 116.9893568818739 l 33.51769054805085 46.133143286284714 a78.02370111758596,78.02370111758596 0 0,0 -1.0933449056662852,0.7800725600851797 l -32.71861831453568 -46.70326010821412" fill="#45fff3" stroke="none" /><path d="M 112.04921762599082 117.19931262002967 l 4.798953525201697 6.850129567823303 a29.363864539374898,29.363864539374898 0 0,0 -0.416467852091384,0.28645038622507835 l -4.680328788487429 -6.931720743413476" fill="#ff5f08" stroke="none" /><path d="M 111.45004920935366 117.60387380957326 l 9.312258333879413 14.317128039750472 a38.0791776904954,38.0791776904954 0 0,0 -0.5525437335896421,0.35265955347884154 l -9.06443279824284 -14.475302022053123" fill="#ffd313" stroke="none" /><path d="M 111.1453310114006 117.79835938074945 l 4.304210943731339 6.873541319564456 a29.10998163499132,29.10998163499132 0 0,0 -0.42697523015075367,0.2622830597978316 l -4.185256513648277 -6.946612846190665" fill="#ff5c08" stroke="none" /><line stroke="#e1ed5e" stroke-width="0.3" x1="143.8653032363475" x2="146.44561519142675" y1="172.8068346515853" y2="177.08958963109032" /><path d="M 144.38136562736335 173.6633856474863 a86.0,86.0 0 0,1 -40.68145358897372,12.25698825130547" fill="none" id="id18" stroke="none" /><text fill="#e1ed5e" style="font-size:6.75px; font-family:Arial;" text-anchor="middle"><textPath startOffset="21.466115282336833" xlink:href="#id18">June</textPath></text><path d="M 110.21172684928248 118.3499491758327 l 5.572149518232821 10.012866772567191 a32.458898344026025,32.458898344026025 0 0,0 -0.4905578041080169,0.26749122819109566 l -5.398968902256155 -10.107298652518057" fill="#ff8a0c" stroke="none" /><path d="M 109.89434966115114 118.52300852407294 l 5.498496481056503 10.293622186012902 a32.67013801377549,32.67013801377549 0 0,0 -0.49831154388225024,0.26069304810117405 l -5.320494034647758 -10.386744653058793" fill="#ff8d0c" stroke="none" /><path d="M 109.57404056367764 118.69057910512821 l 4.178448787413957 8.15722756535808 a30.165140251086115,30.165140251086115 0 0,0 -0.46417843792095004,0.2327487049598667 l -4.037416441810246 -8.227944111227247" fill="#ff6a09" stroke="none" /><path d="M 108.59647513512805 119.15986991738527 l 23.777341362977754 52.99506603983588 a79.08475692346607,79.08475692346607 0 0,0 -1.2468251412893658,0.5465715011279394 l -22.861595547030632 -53.39650209425828" fill="#47fffe" stroke="none" /><path d="M 108.2653958097858 119.30500536409082 l 5.236644426760506 12.230926512770079 a34.30481146852912,34.30481146852912 0 0,0 -0.5448397000625369,0.22774303881394845 l -5.025333267200509 -12.319254594604" fill="#ffa20f" stroke="none" /><path d="M 107.93186726928326 119.44442032107085 l 1.9821669188403308 4.859144184839095 a26.247882230309724,26.247882230309724 0 0,0 -0.41981478284267854,0.16705296608279832 l -1.898231059955786 -4.892543995327962" fill="#ff3304" stroke="none" /><path d="M 107.59598834532513 119.57807347666477 l 5.112284641223156 13.176518945173253 a35.13351002990396,35.13351002990396 0 0,0 -0.5656993328727665,0.213899082724736 l -4.8847150875901155 -13.26256627800462" fill="#ffad10" stroke="none" /><path d="M 107.2578585660854 119.70592522655815 l 5.004247034545822 13.58710933536052 a35.47936561019859,35.47936561019859 0 0,0 -0.5749016246865073,0.20613926859250503 l -4.7696258492295796 -13.671236144992985" fill="#ffb210" stroke="none" /><path d="M 106.91757812671514 119.82793768551818 l 6.645491373111755 19.04805213935166 a41.17401412445134,41.17401412445134 0 0,0 -0.6711957738699912,0.22770604846801296 l -6.316625866304536 -19.1596211747178" fill="#fffa17" stroke="none" /><path d="M 106.57524785965236 119.94407469862006 l 4.480790842521806 13.591157197361131 a35.31073165627141,35.31073165627141 0 0,0 -0.5788919618321844,0.18534292537303723 l -4.246177535598681 -13.666272969393875" fill="#ffb010" stroke="none" /><path d="M 105.88484417918355 120.15858648285463 l 17.654532537550654 60.47575944856389 a84.0,84.0 0 0,0 -1.391475327581577,0.39324482664592386 l -16.61092604186447 -60.77069306854833" fill="#4dd2ff" stroke="none" /><path d="M 105.18746579009965 120.34920634021253 l 2.8831543957470536 11.309935541496936 a32.671641753520845,32.671641753520845 0 0,0 -0.5461558342676213,0.13423181615755136 l -2.6880452767362213 -11.357888615968516" fill="#ff8d0c" stroke="none" /><path d="M 104.83641907484287 120.43548508189849 l 2.4826002252167036 10.489814691747346 a31.779587939501422,31.779587939501422 0 0,0 -0.5334125909177078,0.12140296905057285 l -2.301667484906134 -10.530994394375604" fill="#ff800b" stroke="none" /><path d="M 103.06178313531738 120.77559828337769 l 1.9052295938054002 12.927853779689999 a34.06749031582411,34.06749031582411 0 0,0 -0.5808854405769595,0.0805054290237774 l -1.6824155620416104 -12.95873377420638" fill="#ff9f0e" stroke="none" /><path d="M 102.34483914955558 120.86867818915974 l 1.7097819083145158 15.21677443206523 a36.312530107410524,36.312530107410524 0 0,0 -0.6217524838763085,0.06444718714630844 l -1.4475968278326046 -15.243950987667297" fill="#ffbd11" stroke="none" /><path d="M 101.98527174616119 120.90594882070398 l 1.4921893940036235 15.713534009718467 a36.78422567825726,36.78422567825726 0 0,0 -0.6308594235953259,0.054433205585820654 l -1.221485652666756 -15.73689146758295" fill="#ffc312" stroke="none" /><path d="M 100.90346689309514 120.98055641714683 l 0.6599839008762903 15.326327475383723 a36.34053104139873,36.34053104139873 0 0,0 -0.6251949654568054,0.02153297871671049 l -0.3960685837448326 -15.335417252526527" fill="#ffbd11" stroke="none" /><line stroke="#e1ed5e" stroke-width="0.3" x1="102.19456741930631" x2="102.32365962044197" y1="184.97166512339345" y2="189.96999836594603" /><path d="M 102.22038585953345 185.97133177190398 a86.0,86.0 0 0,1 -42.740103519485714,-10.115201625700543" fill="none" id="id19" stroke="none" /><text fill="#e1ed5e" style="font-size:6.75px; font-family:Arial;" text-anchor="middle"><textPath startOffset="22.20632615414155" xlink:href="#id19">July</textPath></text><path d="M 100.54218724476979 120.99299961872073 l 0.3826721933768632 14.816721136747518 a35.82166195983853,35.82166195983853 0 0,0 -0.6165425051106694,0.010614338354445588 l -0.12756999837352584 -14.821112952381123" fill="#ffb610" stroke="none" /><path d="M 99.81925306533755 120.99922214144158 l -0.1369521526054361 15.911133877213416 a36.91172326150476,36.91172326150476 0 0,0 -0.6353040334397287,-0.010937335079051633 l 0.41081587593783275 -15.906419064855205" fill="#ffc412" stroke="none" /><path d="M 99.09653310690486 120.98055641714683 l -0.6800829477092951 15.793073063112093 a36.80770918231234,36.80770918231234 0 0,0 -0.632762961389578,-0.03270661742774399 l 0.951833977512362 -15.779026638922147" fill="#ffc312" stroke="none" /><path d="M 98.73552117531835 120.96189622390904 l -0.6280937992361044 10.412224215603393 a31.43115117983804,31.43115117983804 0 0,0 -0.5397735041446127,-0.037225941123880425 l 0.8072300641596472 -10.399869929963227" fill="#ff7c0b" stroke="none" /><path d="M 98.37488393609728 120.93702456842531 l -0.41050261194551446 5.2886704295235445 a26.30457795743741,26.30457795743741 0 0,0 -0.4511306295610321,-0.03892544897721696 l 0.5014775592480882 -5.280820728267663" fill="#ff3404" stroke="none" /><path d="M 97.65516085044442 120.86867818915974 l -1.7397377839957056 15.483376740195315 a36.58081008278721,36.58081008278721 0 0,0 -0.6251356943465507,-0.07569522671171217 l 2.0060009013936457 -15.451135984758254" fill="#ffc011" stroke="none" /><path d="M 96.93821686468263 120.77559828337769 l -2.494576236679126 16.926840174502985 a38.109670624935255,38.109670624935255 0 0,0 -0.6481622665199459,-0.10122961590015095 l 2.785574366807589 -16.881392251255726" fill="#ffd413" stroke="none" /><path d="M 95.86986931433489 120.58985236759428 l -2.5637273771948466 12.780895381934142 a34.035489435710645,34.035489435710645 0 0,0 -0.5734307988944919,-0.12016799927156828 l 2.783349637518725 -12.734871401936031" fill="#ff9f0e" stroke="none" /><path d="M 95.51606077576429 120.51570834832081 l -3.62643347674369 16.592297047947135 a37.98397306546859,37.98397306546859 0 0,0 -0.6375516738848522,-0.1451046852861456 l 3.9115053000214046 -16.5274156290833" fill="#ffd213" stroke="none" /><path d="M 95.16358092515715 120.4354850818985 l -1.169046947454051 4.939613603585934 a26.0760667172608,26.0760667172608 0 0,0 -0.43590083656720463,-0.10713382021355551 l 1.2539010687644663 -4.918758525058348" fill="#ff3104" stroke="none" /><path d="M 94.46302465271185 120.25689768951611 l -3.401362231986085 12.443805943992873 a33.900293461969525,33.900293461969525 0 0,0 -0.561564547025054,-0.15870375030592662 l 3.6150579471157527 -12.383413400348424" fill="#ff9d0e" stroke="none" /><path d="M 94.11515582081647 120.15858648285463 l -3.6704828423735165 12.57327187583856 a34.0980765748224,34.0980765748224 0 0,0 -0.5620094107618504,-0.16932882522905043 l 3.886367227575613 -12.508227681503785" fill="#ffa00e" stroke="none" /><path d="M 93.42475214034765 119.94407469862007 l -3.703643625898089 11.233910372450206 a32.828682021421486,32.828682021421486 0 0,0 -0.5351548325577196,-0.18155357495424665 l 3.8964681913930344 -11.168493810597836" fill="#ff8f0d" stroke="none" /><path d="M 93.08242187328487 119.8279376855182 l -6.240903947086092 17.88837831642801 a39.94579005659058,39.94579005659058 0 0,0 -0.6472748091166353,-0.23208971761458191 l 6.547898316832454 -17.77830105777347" fill="#ffeb16" stroke="none" /><path d="M 92.40401165467489 119.57807347666478 l -6.113192857726768 15.756282593463403 a37.900638096854195,37.900638096854195 0 0,0 -0.6061916924427784,-0.2412161847937245 l 6.383505626211404 -15.648719564263612" fill="#ffd113" stroke="none" /><path d="M 92.06813273071674 119.44442032107085 l -7.445860690889747 18.253009034388686 a40.71327421403183,40.71327421403183 0 0,0 -0.6466209013183637,-0.27028758919358487 l 7.758953051705573 -18.12213640217513" fill="#fff517" stroke="none" /><path d="M 91.07499286063937 119.00905698771935 l -3.506036863689313 7.46738389138021 a29.249491903795835,29.249491903795835 0 0,0 -0.4539066132798355,-0.21790275823378724 l 3.6340561449693904 -7.40592685664686" fill="#ff5e08" stroke="none" /><path d="M 90.7491055286396 118.85261126421891 l -5.111023024162139 10.415871733842371 a32.60228168634825,32.60228168634825 0 0,0 -0.5016809489318732,-0.25155324252010125 l 5.289557880776773 -10.326350650412968" fill="#ff8c0c" stroke="none" /><path d="M 90.42595943632237 118.69057910512821 l -2.8420873230019548 5.548363575539865 a27.23392322040831,27.23392322040831 0 0,0 -0.41539396987579524,-0.21731449230756147 l 2.937172195404246 -5.498619664287586" fill="#ff4106" stroke="none" /><line stroke="#e1ed5e" stroke-width="0.3" x1="58.666819895761336" x2="56.23545636021788" y1="174.27360380694188" y2="178.64263932499728" /><path d="M 58.180547188652646 175.14741091055294 a86.0,86.0 0 0,1 -31.652253787137756,-30.449443065178592" fill="none" id="id20" stroke="none" /><text fill="#e1ed5e" style="font-size:6.75px; font-family:Arial;" text-anchor="middle"><textPath startOffset="22.20632615414155" xlink:href="#id20">August</textPath></text><path d="M 89.4739219176387 118.17145234162733 l -7.8775856458204965 13.599288453881854 a36.716138268007235,36.716138268007235 0 0,0 -0.5441543752746754,-0.32149599640863186 l 8.110507892123554 -13.461673885179472" fill="#ffc212" stroke="none" /><path d="M 89.1626897886671 117.98757091392108 l -8.742332538255347 14.510364972343703 a37.94045660069578,37.94045660069578 0 0,0 -0.556497609384754,-0.34184628393566807 l 8.99080934757241 -14.357730221579658" fill="#ffd213" stroke="none" /><path d="M 88.54995079064634 117.60387380957326 l -8.71396200996484 13.397277583708782 a36.981870371331894,36.981870371331894 0 0,0 -0.5306463443238697,-0.3516834617571104 l 8.943283053028672 -13.245296100860353" fill="#ffc512" stroke="none" /><path d="M 88.24862548938628 117.40417183066458 l -4.586668130810143 6.793006231462868 a29.19649060286674,29.19649060286674 0 0,0 -0.4140939866303018,-0.284817619914882 l 4.702919002063335 -6.713047822182885" fill="#ff5d08" stroke="none" /><path d="M 87.65650970185807 116.9893568818739 l -17.06788779544573 23.49193218228211 a50.03762510011566,50.03762510011566 0 0,0 -0.6924612332692811,-0.5122662659625811 l 17.469733999133577 -23.19465596757976" fill="#9cff22" stroke="none" /><path d="M 87.36589467227662 116.77436683061367 l -24.03982626756472 31.91780137145792 a60.958219321718225,60.958219321718225 0 0,0 -0.8327219945521053,-0.638495716335089 l 24.58567699061031 -31.49926631329546" fill="#30ff36" stroke="none" /><path d="M 87.07902340077011 116.55440617244103 l -2.2003961421919764 2.8191562145766422 a24.576224957236253,24.576224957236253 0 0,0 -0.3312436348303994,-0.263159976888721 l 2.2485972697397343 -2.7808623236827907" fill="#ff1b02" stroke="none" /><path d="M 86.51685102203217 116.09983520530335 l -4.859277568055409 5.802321712113171 a28.568323178503043,28.568323178503043 0 0,0 -0.37429199917666967,-0.3189797617898709 l 4.958435043809135 -5.7178175601003485" fill="#ff5407" stroke="none" /><path d="M 85.70375840098266 115.38237550388516 l -7.778514654767077 8.369474763935523 a32.42599658929495,32.42599658929495 0 0,0 -0.4055784446749225,-0.38349973437025947 l 7.921428933832817 -8.234340392819332" fill="#ff890c" stroke="none" /><path d="M 85.18274418774928 114.88116024355367 l -2.834959132719933 2.847185853608003 a25.017892553214644,25.017892553214644 0 0,0 -0.30254896929724856,-0.3064805085659432 l 2.8835487270727147 -2.797964851061395" fill="#ff2203" stroke="none" /><path d="M 84.67929136418377 114.36230785411682 l -11.44052878742514 10.724856164600753 a36.68146162471082,36.68146162471082 0 0,0 -0.4278693230923685,-0.4643676449991438 l 11.623444518513239 -10.526337264800265" fill="#ffc112" stroke="none" /><path d="M 83.95833913139862 113.55231037782056 l -17.66668310852247 14.925161103606527 a44.127302610238885,44.127302610238885 0 0,0 -0.48519860412440724,-0.58445297499869 l 17.920977712540413 -14.618846871494075" fill="#e0ff1b" stroke="none" /><path d="M 82.44556493220864 111.52570212397912 l -6.607354991666567 4.338186057668265 a28.904239258578173,28.904239258578173 0 0,0 -0.26949092736266067,-0.4182559038754476 l 6.681050782406273 -4.223808553871369" fill="#ff5908" stroke="none" /><line stroke="#e1ed5e" stroke-width="0.3" x1="26.63291911575756" x2="22.317208475507996" y1="142.92168965132927" y2="145.44649492493687" /><path d="M 25.769776987707644 143.4266507060508 a86.0,86.0 0 0,1 -11.730757126820373,-40.83630448921669" fill="none" id="id21" stroke="none" /><text fill="#e1ed5e" style="font-size:6.75px; font-family:Arial;" text-anchor="middle"><textPath startOffset="21.46611528233685" xlink:href="#id21">September</textPath></text><path d="M 81.87401531095188 110.60418214915194 l -5.898401814229729 3.450721618714163 a27.833639122163962,27.833639122163962 0 0,0 -0.2383725921874423,-0.41562270696440157 l 5.9569264025695485 -3.3486790658914547" fill="#ff4a06" stroke="none" /><path d="M 81.69416730710424 110.29060199501025 l -17.5143952213486 9.845696365189335 a41.09208244272109,41.09208244272109 0 0,0 -0.3413061220368433,-0.619569750561558 l 17.68127775283696 -9.542756096229954" fill="#fff917" stroke="none" /><path d="M 81.51974371655577 109.97397251340807 l -12.314738736045927 6.64638324161985 a34.99382722244187,34.99382722244187 0 0,0 -0.28152949223063123,-0.5325477021410854 l 12.427320736501445 -6.433420524392638" fill="#ffab0f" stroke="none" /><path d="M 81.18737489456691 109.33194174019688 l -21.876376343525532 10.851705616854252 a45.41997863877914,45.41997863877914 0 0,0 -0.34139979584572944,-0.7033846987215157 l 22.05992939598598 -10.473531962167451" fill="#d1ff1d" stroke="none" /><path d="M 81.02952815118164 109.00673069616217 l -15.677707348267104 7.443404104251621 a38.35496391114364,38.35496391114364 0 0,0 -0.2780285274984981,-0.5988487136527996 l 15.803510492605428 -7.172435323319994" fill="#ffd714" stroke="none" /><path d="M 80.45479744820244 107.68017299344265 l -8.60159580351185 3.379946747319111 a30.24183371316027,30.24183371316027 0 0,0 -0.18621152831873775,-0.4861395408244477 l 8.658501611424096 -3.231383639661505" fill="#ff6b09" stroke="none" /><path d="M 80.32549172779594 107.34259656027581 l -13.319841880411147 4.971012429962407 a35.21721323952045,35.21721323952045 0 0,0 -0.20707006809935155,-0.5697678943539243 l 13.403436209515723 -4.740996738602366" fill="#ffae10" stroke="none" /><path d="M 80.20201598880116 107.00284435728193 l -5.950539969812459 2.1047953784996745 a27.311821410471723,27.311821410471723 0 0,0 -0.1529581248339296,-0.44456790887854364 l 5.985888925589617 -2.002054766531834" fill="#ff4206" stroke="none" /><path d="M 79.97269907076064 106.31721596034903 l -2.351531996333456 0.7417442575510013 a23.465742742743025,23.465742742743025 0 0,0 -0.11819273073527517,-0.38626068262851404 l 2.3639514995748616 -0.7011566023704394" fill="#ff0b01" stroke="none" /><path d="M 79.76711848015287 105.62410040840567 l -8.082815289240983 2.2467667160851987 a29.389270747597557,29.389270747597557 0 0,0 -0.1312887630354538,-0.4885743278735816 l 8.120292128618212 -2.1073014550360782" fill="#ff6008" stroke="none" /><path d="M 79.67330655649465 105.27499134158121 l -12.867380058259112 3.3392208420321623 a34.29360242355496,34.29360242355496 0 0,0 -0.14336144213579455,-0.5726576979388027 l 12.922952814689964 -3.1172353046959675" fill="#ffa20f" stroke="none" /><path d="M 79.4281124754447 104.21870165774334 l -18.377755088347325 3.768748286430658 a39.760206441661296,39.760206441661296 0 0,0 -0.13172001081179593,-0.6716374973392201 l 18.43990503213479 -3.4518470620234827" fill="#ffe915" stroke="none" /><path d="M 79.18660465613746 102.79330883721812 l -24.260369635613117 3.2559178249270797 a45.477878497518056,45.477878497518056 0 0,0 -0.09744932833540623,-0.7767670280825785 l 24.31282047319537 -2.8378330425570923" fill="#d0ff1d" stroke="none" /><path d="M 79.10278846688536 102.07522291339032 l -17.108625367541034 1.6989927734171804 a38.19277867044744,38.19277867044744 0 0,0 -0.05933594397255493,-0.654767197352687 l 17.135335907790665 -1.4042441875159273" fill="#ffd513" stroke="none" /><path d="M 79.07016306316243 101.71520430193888 l -9.138787317199393 0.7489254392315061 a30.169423261172568,30.169423261172568 0 0,0 -0.03796095169868714,-0.5179470258120104 l 9.150324827562414 -0.5915052769227351" fill="#ff6a09" stroke="none" /><path d="M 79.0235259727143 100.99374915477108 l -36.0621752491664 1.70842612187587 a57.10262045219845,57.10262045219845 0 0,0 -0.038062614044674974,-0.9822269410694274 l 36.08623999606228 -1.0874219337924458" fill="#50ff2b" stroke="none" /><line stroke="#e1ed5e" stroke-width="0.3" x1="15.007084014347285" x2="10.007500721073583" y1="101.09737516637583" y2="101.16192664675087" /><path d="M 14.007167355692545 101.11028546245083 a86.0,86.0 0 0,1 10.666146001902534,-42.60595125391555" fill="none" id="id22" stroke="none" /><text fill="#e1ed5e" style="font-size:6.75px; font-family:Arial;" text-anchor="middle"><textPath startOffset="22.20632615414155" xlink:href="#id22">October</textPath></text><path d="M 79.00486145842228 99.54816195383935 l -10.461899997325064 -0.22515138180956368 a31.464322467258018,31.464322467258018 0 0,0 0.016313959846172243,-0.5413809046888941 l 10.456474343023247 0.4052024339234522" fill="#ff7c0b" stroke="none" /><path d="M 79.08570108090925 98.10471618934814 l -4.041000584309897 -0.3662012776955278 a25.057559500263523,25.057559500263523 0 0,0 0.042625145177999556,-0.42922939490830747 l 4.034098313449669 0.43570620330826554" fill="#ff2203" stroke="none" /><path d="M 79.12142395522702 97.74499172005258 l -14.042600723328169 -1.5166829785323614 a35.124268559192245,35.124268559192245 0 0,0 0.0700974141106137,-0.600551836330341 l 14.014412956213967 1.7581785531875642" fill="#ffad10" stroke="none" /><path d="M 79.21141760316559 97.0276538004421 l -14.90591133929584 -2.1312433947900975 a36.05750282293796,36.05750282293796 0 0,0 0.09313842978286228,-0.6136658816115559 l 14.867017016073675 2.3875083887937456" fill="#ffb911" stroke="none" /><path d="M 79.26566170972629 96.67025291283419 l -15.046009955803994 -2.4162530350586255 a36.23878913560992,36.23878913560992 0 0,0 0.10420919126955473,-0.6150485458170165 l 15.002188903014217 2.6748873691914703" fill="#ffbc11" stroke="none" /><path d="M 79.46518482838121 95.60439243477599 l -5.613632507434816 -1.2016336797699405 a26.740800765475697,26.740800765475697 0 0,0 0.1002214817287213,-0.4492732511321422 l 5.5921166387040575 1.298085100452042" fill="#ff3a05" stroke="none" /><path d="M 79.54389044137918 95.25157060432595 l -5.4900492834410395 -1.274392441362554 a26.636019626404213,26.636019626404213 0 0,0 0.10751718075848875,-0.4457281269775522 l 5.467299302421736 1.3687057999995031" fill="#ff3905" stroke="none" /><path d="M 79.62865764111835 94.90015583598534 l -15.653952947647195 -3.918873836461368 a37.137032410987274,37.137032410987274 0 0,0 0.16057994125566324,-0.6187800183386735 l 15.584176674521224 4.187750280348906" fill="#ffc712" stroke="none" /><path d="M 79.71946130924805 94.55025226153421 l -33.619447359879274 -9.034153875879044 a55.812112504654955,55.812112504654955 0 0,0 0.25730242157567834,-0.925653710365791 l 33.45895816773724 9.611518889663778" fill="#5eff2a" stroke="none" /><path d="M 79.81627453868168 94.20196356495316 l -4.446441651683295 -1.277297927589119 a25.626265595234187,25.626265595234187 0 0,0 0.1254394753447251,-0.422919551558875 l 4.423796279226863 1.3536468658945333" fill="#ff2a04" stroke="none" /><path d="M 79.91906864156998 93.8553929516997 l -5.7475215558578 -1.7586963887287992 a27.010575431918127,27.010575431918127 0 0,0 0.13986914088030358,-0.4434233992800263 l 5.716396931209292 1.85736995443524" fill="#ff3e05" stroke="none" /><path d="M 80.14247586403 93.16781622104843 l -16.320716710041335 -5.615309099145224 a38.259707129854945,38.259707129854945 0 0,0 0.2196233249344275,-0.6209047143846322 l 16.2216403042971 5.895411439956468" fill="#ffd614" stroke="none" /><path d="M 80.2630227832202 92.82701384747504 l -16.38375402294276 -5.954328235887663 a38.43219494570268,38.43219494570268 0 0,0 0.23131681404513138,-0.6198140581565421 l 16.278832620396003 6.235465431073546" fill="#ffd814" stroke="none" /><path d="M 80.38941819471856 92.48833698450439 l -23.956364342920867 -9.176277267408391 a46.65368310826199,46.65368310826199 0 0,0 0.2937103727946585,-0.7474608622405933 l 23.794860420244518 9.587287134544749" fill="#c2ff1e" stroke="none" /><path d="M 80.95270993114464 91.15688171328213 l -1.5644034133477682 -0.7263082770498738 a22.724784552634127,22.724784552634127 0 0,0 0.16777579245702187,-0.35337860707607377 l 1.5516694270489948 0.7531292997664798" fill="#ff0000" stroke="none" /><path d="M 81.10775173730289 90.83032412892265 l -10.12655392797885 -4.91509617698061 a32.25634331766908,32.25634331766908 0 0,0 0.24674564632003004,-0.4974241663577489 l 10.040448268705408 5.08867993183732" fill="#ff870c" stroke="none" /><path d="M 81.26839172434947 90.50648371742162 l -6.079705939344695 -3.081304417596939 a27.81595636890419,27.81595636890419 0 0,0 0.22013093124484398,-0.4252228928968855 l 6.025765574939737 3.18550003275416" fill="#ff4a06" stroke="none" /><line stroke="#e1ed5e" stroke-width="0.3" x1="26.266209847984243" x2="21.928928074336255" y1="57.711370442889674" y2="55.22380399835377" /><path d="M 25.398753493254645 57.213857153982495 a86.0,86.0 0 0,1 29.58750427330803,-30.492523968695096" fill="none" id="id23" stroke="none" /><text fill="#e1ed5e" style="font-size:6.75px; font-family:Arial;" text-anchor="middle"><textPath startOffset="21.46611528233685" xlink:href="#id23">November</textPath></text><path d="M 81.78341655067845 89.55222093294921 l -11.655732878290648 -6.684926529484654 a34.43667933809069,34.43667933809069 0 0,0 0.29933726935886235,-0.5116644249357928 l 11.53893593446146 6.884570366774338" fill="#ffa40f" stroke="none" /><path d="M 82.34701348167596 88.62581576622439 l -41.473662087248684 -26.722338055380014 a70.33708542337396,70.33708542337396 0 0,0 0.664529257481656,-1.0121236498763506 l 41.007536194409106 27.432279769234032" fill="#3cffa3" stroke="none" /><path d="M 82.95767976084542 87.72973835380427 l -4.375648842056451 -3.1504135241252498 a26.391790812149637,26.391790812149637 0 0,0 0.26861487710835985,-0.3663903905003355 l 4.320771352434458 3.2252663582970857" fill="#ff3505" stroke="none" /><path d="M 83.84228863543731 86.58626213691792 l -8.370444888951686 -6.948939178603276 a31.87897528937836,31.87897528937836 0 0,0 0.3541441232342002,-0.4191949391026857 l 8.249590152230361 7.091993067335078" fill="#ff820c" stroke="none" /><path d="M 84.07557802195018 86.31012108654704 l -7.298957335024704 -6.27475472884853 a30.625348050108002,30.625348050108002 0 0,0 0.3470991436517204,-0.39679432334785314 l 7.18986632779514 6.399464608399326" fill="#ff710a" stroke="none" /><path d="M 84.31358615837235 86.03803664274999 l -10.274204318820043 -9.144732867087283 a34.75446885907438,34.75446885907438 0 0,0 0.4015901374126679,-0.4434458600340949 l 10.11527054079133 9.320231514390935" fill="#ffa80f" stroke="none" /><path d="M 84.80347519578584 85.50635884689758 l -5.754891050777642 -5.488710533479426 a28.952654545914125,28.952654545914125 0 0,0 0.34706751475547376,-0.3576835820513619 l 5.65955927231905 5.586958311080911" fill="#ff5a08" stroke="none" /><path d="M 85.57189188830299 84.74124197986013 l -16.807466838796053 -17.775100341589376 a45.46313826332999,45.46313826332999 0 0,0 0.5732514566701998,-0.5327747537742726 l 16.499007498330997 18.061779681438296" fill="#d0ff1d" stroke="none" /><path d="M 86.10567301691215 84.25364557470407 l -3.5726575739078887 -4.048870626655517 a26.399744020950923,26.399744020950923 0 0,0 0.3433301812504505,-0.2977325499486029 l 3.5024335940106646 4.1097681700238" fill="#ff3505" stroke="none" /><path d="M 86.37877921826538 84.01681056812374 l -8.802166309473453 -10.328493590225571 a34.570405726541864,34.570405726541864 0 0,0 0.4562346376846042,-0.3820833884550804 l 8.623074134829738 10.478478136074465" fill="#ffa60f" stroke="none" /><path d="M 87.51073957382395 83.11751280151077 l -14.635243670095168 -19.783342285769194 a45.60835202281868,45.60835202281868 0 0,0 0.6351607696408951,-0.46147131126472796 l 14.292537584100492 20.03233283185059" fill="#ceff1d" stroke="none" /><path d="M 88.39885842347998 82.49532879139004 l -3.945343790247465 -5.953030173598595 a28.141729893451554,28.141729893451554 0 0,0 0.40608914805656476,-0.2641316780005274 l 3.842287616406613 6.020060775758658" fill="#ff4e07" stroke="none" /><line stroke="#e1ed5e" stroke-width="0.3" x1="56.762969772571076" x2="54.21961505331055" y1="26.818313649435495" y2="22.513508569990535" /><path d="M 56.25429882871897 25.957352633546506 a86.0,86.0 0 0,1 42.265352541879196,-11.944610805530505" fill="none" id="id24" stroke="none" /><text fill="#e1ed5e" style="font-size:6.75px; font-family:Arial;" text-anchor="middle"><textPath startOffset="22.20632615414155" xlink:href="#id24">December</textPath></text><path d="M 90.58718382345135 81.22770947309562 l -3.7091507649178483 -7.397282010096386 a29.275118158297577,29.275118158297577 0 0,0 0.45241033352535165,-0.2219957858643828 l 3.581269164382071 7.460032956095598" fill="#ff5e08" stroke="none" /><path d="M 93.25333710446033 80.11325718540243 l -2.490155375684669 -7.34008506003284 a28.750982033495404,28.750982033495404 0 0,0 0.47003361949994465,-0.15496269429814397 l 2.363438933942315 7.381861478590218" fill="#ff5708" stroke="none" /><path d="M 94.63758080256005 79.69619591428918 l -2.1469303637743655 -8.128952975654927 a29.40768615418686,29.40768615418686 0 0,0 0.4905357649596605,-0.125048488722633 l 2.0066857101297058 8.164704460546423" fill="#ff6008" stroke="none" /><path d="M 94.98787191387505 79.60689891045804 l -2.980663213638803 -12.127576387739541 a33.48849319307967,33.48849319307967 0 0,0 0.5609742221258021,-0.13276447402697614 l 2.771465304550467 12.177086773907387" fill="#ff980e" stroke="none" /><path d="M 97.11714578562143 79.19881850522333 l -1.2018429645844415 -8.671875778474078 a29.754761905889076,29.754761905889076 0 0,0 0.5079354238103189,-0.06594459585485454 l 1.052392812266265 8.69127869749307" fill="#ff6509" stroke="none" /><path d="M 98.19473922651362 79.07773832637324 l -0.419409765746736 -4.860794072692963 a25.878854739457896,25.878854739457896 0 0,0 0.4441425302936991,-0.03447400839043844 l 0.3356770460907027 4.8672933432718635" fill="#ff2e04" stroke="none" /></svg>