<?xml version="1.0" encoding="utf-8" ?>
<svg baseProfile="full" height="200mm" version="1.1" viewBox="0,0,200,200" width="200mm" xmlns="http://www.w3.org/2000/svg" xmlns:ev="http://www.w3.org/2001/xml-events" xmlns:xlink="http://www.w3.org/1999/xlink"><defs /><rect fill="#1a1a1a" height="200" width="200" x="0" y="0" /><text alignment-baseline="middle" fill="#e1ed5e" style="dominant-baseline: central; font-size:9.0px; font-family:Arial;" text-anchor="middle" x="100.0" y="100.0">2022</text><line stroke="#e1ed5e" stroke-width="0.3" x1="100.0" x2="100.0" y1="15.0" y2="10.0" /><path d="M 100.0 14.0 a86.0,86.0 0 0,1 42.46469731375804,11.215312516191453" fill="none" id="id61" stroke="none" /><text fill="#e1ed5e" style="font-size:6.75px; font-family:Arial;" text-anchor="middle"><textPath startOffset="22.20632615414155" xlink:href="#id61">January</textPath></text><path d="M 100.0 79.0 l 0.0 -13.587344073074284 a34.587344073074284,34.587344073074284 0 0,0 0.5953642720142255,0.005124488252435265 l -0.23388379274169716 13.585330961430408" fill="#ffa70f" stroke="none" /><path d="M 101.80526077348638 79.07773832637324 l 1.3719746477927552 -15.900646051964179 a36.95972616632347,36.95972616632347 0 0,0 0.6333750836611921,0.060146596028677356 l -1.6454748585441916 15.874673911420324" fill="#ffc612" stroke="none" /><path d="M 102.88285421437855 79.19881850522331 l 1.9396750788911419 -13.995689811740062 a35.12946116163373,35.12946116163373 0 0,0 0.5982564291536671,0.08816744627005298 l -2.1803004884734647 13.96022788130904" fill="#ffae10" stroke="none" /><path d="M 103.59715602781102 79.31037775812273 l 2.1639251100895094 -12.446163786425723 a33.63287635024625,33.63287635024625 0 0,0 0.5695245200709728,0.10407696573385154 l -2.3778447512633827 12.407071339341133" fill="#ff9a0e" stroke="none" /><path d="M 104.307194497241 79.44645832069477 l 2.3140566086116023 -11.042468359354654 a32.28232978844386,32.28232978844386 0 0,0 0.5428923640982977,0.1186552433183551 l -2.503791696863428 11.000999617940428" fill="#ff880c" stroke="none" /><path d="M 104.66035177308747 79.52364482259891 l 13.981055319262426 -61.429065532203275 a84.0,84.0 0 0,0 1.407105252149906,0.3330163514365254 l -15.036384258374856 61.17930326862588" fill="#4dd2ff" stroke="none" /><path d="M 109.73455568895987 81.39251694778311 l 5.251620959730992 -10.038408647216105 a32.32912930781483,32.32912930781483 0 0,0 0.4908715724392148,0.26220659403792795 l -5.423637578698518 9.946523326676424" fill="#ff890c" stroke="none" /><path d="M 110.05341064243156 81.56283822128135 l 6.661267935779372 -12.216239737089964 a34.91434525323769,34.91434525323769 0 0,0 0.5251714576819011,0.2922573476089051 l -6.870563482533308 12.099766991920879" fill="#ffab0f" stroke="none" /><line stroke="#e1ed5e" stroke-width="0.3" x1="143.23703022742887" x2="145.7803849466894" y1="26.81831364943548" y2="22.513508569990506" /><path d="M 143.74570117128098 25.957352633546492 a86.0,86.0 0 0,1 28.547481713284135,27.462654790039103" fill="none" id="id62" stroke="none" /><text fill="#e1ed5e" style="font-size:6.75px; font-family:Arial;" text-anchor="middle"><textPath startOffset="19.985693538727396" xlink:href="#id62">February</textPath></text><line stroke="#e1ed5e" stroke-width="0.3" x1="172.23445277983987" x2="176.4835382374775" y1="55.19839476539836" y2="52.563006222186495" /><path d="M 173.08426987136738 54.67131705675599 a86.0,86.0 0 0,1 12.851231095245387,41.99856678651699" fill="none" id="id63" stroke="none" /><text fill="#e1ed5e" style="font-size:6.75px; font-family:Arial;" text-anchor="middle"><textPath startOffset="22.20632615414155" xlink:href="#id63">March</textPath></text><path d="M 120.94382443527127 98.46500227214037 l 12.21971936222942 -0.8955977220910839 a33.252495116157334,33.252495116157334 0 0,0 0.036925168273207076,0.5712160097201892 l -12.233325121507042 0.6851226481178595" fill="#ff950d" stroke="none" /><path d="M 120.96714384426684 98.82574320788733 l 16.505157763215294 -0.9243649851549152 a37.531021850279146,37.531021850279146 0 0,0 0.030572398246099006,0.6453350070107292 l -16.51862376969489 0.6401188715211863" fill="#ffcd13" stroke="none" /><path d="M 120.98425023603335 99.18683210126433 l 14.361797272544473 -0.5565389460581573 a35.37257654340882,35.37257654340882 0 0,0 0.018340353395034172,0.6086270413156116 l -14.369249320395152 0.3092417573175466" fill="#ffb110" stroke="none" /><line stroke="#e1ed5e" stroke-width="0.3" x1="184.98032266829074" x2="189.97916517819016" y1="98.17113171792111" y2="98.06355123074" /><path d="M 185.9800911702706 98.14961562048488 a86.0,86.0 0 0,1 -9.607161424134198,41.387399972396054" fill="none" id="id64" stroke="none" /><text fill="#e1ed5e" style="font-size:6.75px; font-family:Arial;" text-anchor="middle"><textPath startOffset="21.466115282336823" xlink:href="#id64">April</textPath></text><path d="M 120.99980553446 99.90962569577887 l 20.971195625697305 -0.09025117924294801 a41.97138982629956,41.97138982629956 0 0,0 -0.0031092859483857083,0.7224885528012184 l -20.969642042459416 -0.27074685176195507" fill="#f9ff18" stroke="none" /><path d="M 120.99824983174949 100.27111621757518 l 25.673117627999197 0.331475175333031 a46.67525743849407,46.67525743849407 0 0,0 -0.01728748697703554,0.8032815899471407 l -25.663608078337152 -0.7733465810702865" fill="#c1ff1e" stroke="none" /><path d="M 120.9764740272857 100.99374915477107 l 13.708339342066175 0.6494251901808266 a34.723713804757104,34.723713804757104 0 0,0 -0.03342347460624833,0.5967985917148071 l -13.695129516572399 -0.8852954982310569" fill="#ffa90f" stroke="none" /><path d="M 120.95626037817324 101.35467743843564 l 14.187578026083813 0.9171288918512848 a35.21719014610428,35.21719014610428 0 0,0 -0.04431235037297389,0.6046068145129441 l -14.1696891170465 -1.161208842860999" fill="#ffaf10" stroke="none" /><path d="M 120.92983693683757 101.71520430193887 l 17.055627773298646 1.3977120900326554 a38.11280333048737,38.11280333048737 0 0,0 -0.05921169503188466,0.6533961206458799 l -17.029041481989683 -1.6910895992271058" fill="#ffd513" stroke="none" /><path d="M 120.8583938346157 102.4346265915055 l 19.621735285843275 2.2902817387174017 a40.754945863515026,40.754945863515026 0 0,0 -0.08732909783736124,0.6960988336295817 l -19.579404678759065 -2.6276983266343783" fill="#fff617" stroke="none" /><path d="M 120.81339534386255 102.79330883721812 l 23.41263150098148 3.142145209551671 a44.622539878655274,44.622539878655274 0 0,0 -0.10872164756861656,0.7603989498719784 l -23.35507580239626 -3.5446896314040583" fill="#d9ff1c" stroke="none" /><path d="M 120.70491114924044 103.5080841355445 l 15.158251741801926 2.568299959111677 a36.37428894446225,36.37428894446225 0 0,0 -0.10990847813849743,0.6164251138450529 l -15.11179682132424 -2.828843823689948" fill="#ffbe11" stroke="none" /><path d="M 120.49622156327973 104.57218783832717 l 17.114423650212547 3.8177943886824037 a38.53508057789326,38.53508057789326 0 0,0 -0.14999217515512098,0.6461623649083235 l -17.046170909126875 -4.111825410939292" fill="#ffda14" stroke="none" /><path d="M 120.41448212921028 104.9243191809786 l 14.397778483128484 3.472988258982265 a35.810728297294034,35.810728297294034 0 0,0 -0.1497036557788627,0.5979916887983291 l -14.33586351305456 -3.72030778717799" fill="#ffb711" stroke="none" /><path d="M 120.32669344350535 105.2749913415812 l 28.17072742818368 7.310600894470268 a50.103861758729714,50.103861758729714 0 0,0 -0.2238256978234333,0.8329386868043555 l -28.04071365401847 -7.7944305144501715" fill="#9aff22" stroke="none" /><path d="M 120.23288151984713 105.62410040840565 l 11.021502701670677 3.0636287661204307 a32.43937686325329,32.43937686325329 0 0,0 -0.15417565075139936,0.5367056662108084 l -10.967134414033177 -3.252891907835821" fill="#ff8b0c" stroke="none" /><path d="M 120.13307415673323 105.97154293290107 l 16.939045627828367 5.024182468185982 a38.66843728956465,38.66843728956465 0 0,0 -0.19476597210768873,0.6365064659316543 l -16.850052883214545 -5.315015906669694" fill="#ffdc14" stroke="none" /><path d="M 120.02730092923936 106.31721596034902 l 16.865181236154033 5.319787846382429 a38.684300406259794,38.684300406259794 0 0,0 -0.20577791044736018,0.6333192872981686 l -16.771111074690428 -5.609306033658393" fill="#ffdc14" stroke="none" /><path d="M 119.79798401119884 107.00284435728193 l 13.224581086409078 4.677732994732792 a35.02749909574121,35.02749909574121 0 0,0 -0.20595458742787612,0.5666985706258966 l -13.142102237975976 -4.90467936236482" fill="#ffad10" stroke="none" /><path d="M 119.67450827220406 107.3425965602758 l 15.952988423326103 5.95371209804124 a38.027757555859765,38.027757555859765 0 0,0 -0.23415269458113874,0.6112987979543383 l -15.848141449151457 -6.227434462828722" fill="#ffd413" stroke="none" /><path d="M 119.54520255179757 107.68017299344265 l 31.374174552107018 12.328298335515942 a54.709431449900855,54.709431449900855 0 0,0 -0.3519571983021905,0.8735289023862864 l -31.157314739547434 -12.866526605745042" fill="#69ff28" stroke="none" /><path d="M 119.12269723197855 108.67885076344098 l 17.177357615418394 7.795956890703127 a39.86368358750946,39.86368358750946 0 0,0 -0.2889649765849693,0.6224048520328851 l -17.040618021993595 -8.090481810014841" fill="#ffeb16" stroke="none" /><path d="M 118.81262510543309 109.33194174019688 l 17.00411225114645 8.434834797491362 a39.981208378566414,39.981208378566414 0 0,0 -0.3111324884179852,0.6138939167955091 l -16.856401092942193 -8.726282925989565" fill="#ffec16" stroke="none" /><path d="M 118.64920377521936 109.65438752849418 l 13.511552297275834 6.994709455786533 a36.214729897467436,36.214729897467436 0 0,0 -0.2913517991185761,0.5511278051400881 l -13.389147989932365 -7.226252276012755" fill="#ffbc11" stroke="none" /><line stroke="#e1ed5e" stroke-width="0.3" x1="174.80103733775053" x2="179.2010983576182" y1="140.37084112569926" y2="142.7455964860345" /><path d="M 175.68104954172406 140.8457921977663 a86.0,86.0 0 0,1 -30.038265399797805,32.042727171017184" fill="none" id="id65" stroke="none" /><text fill="#e1ed5e" style="font-size:6.75px; font-family:Arial;" text-anchor="middle"><textPath startOffset="22.206326154141568" xlink:href="#id65">May</textPath></text><path d="M 118.48025628344425 109.97397251340804 l 20.509324037493116 11.06907994570358 a44.30572683524953,44.30572683524953 0 0,0 -0.3679982836411823,0.6680237771358817 l -20.315749344400423 -11.420474241237267" fill="#ddff1b" stroke="none" /><path d="M 118.12598468904814 110.60418214915192 l 10.009686036485373 5.855932011839713 a32.596799311719565,32.596799311719565 0 0,0 -0.287502410645587,0.48187057734976685 l -9.907402750141559 -6.027364683075584" fill="#ff8d0d" stroke="none" /><path d="M 117.94076556474637 110.91462005526583 l 14.00680614309184 8.521317927481208 a37.395227279649646,37.395227279649646 0 0,0 -0.33929110021078424,0.5470452861779892 l -13.858050403213092 -8.761159545024471" fill="#ffcc13" stroke="none" /><path d="M 117.55443506779139 111.5257021239791 l 9.477647145156496 6.222731600840876 a32.33790915399293,32.33790915399293 0 0,0 -0.30951520559346646,0.4626832367876667 l -9.369128834152308 -6.3849517518343495" fill="#ff890c" stroke="none" /><path d="M 117.14729908036423 112.12312394758627 l 25.660434767243842 18.1419026853319 a52.4258897326397,52.4258897326397 0 0,0 -0.5273051102010434,0.7323806786610033 l -25.344349864667198 -18.580916969444036" fill="#81ff25" stroke="none" /><path d="M 116.93607887273984 112.41649034213515 l 9.351984547827024 6.8562993057853046 a32.59605343008161,32.59605343008161 0 0,0 -0.3356442525933308,0.4496503265486123 l -9.232579028538602 -7.016262511843231" fill="#ff8d0d" stroke="none" /><path d="M 116.71984013943494 112.70617746262583 l 13.342419907944151 10.139520098123356 a37.75798427079319,37.75798427079319 0 0,0 -0.3977051769660407,0.5140875524259735 l -13.165907913760043 -10.367685644662583" fill="#ffd013" stroke="none" /><path d="M 116.498646956653 112.99209946851258 l 12.822847775071557 10.097537949689011 a37.321326469011865,37.321326469011865 0 0,0 -0.40179444823793564,0.5013003528975032 l -12.647135414778766 -10.316766136164764" fill="#ffcb12" stroke="none" /><path d="M 116.0416608686014 113.55231037782055 l 5.892242062394411 4.977881897947181 a28.713483305988298,28.713483305988298 0 0,0 -0.32221654368431146,0.37481063509593104 l -5.805683009139321 -5.07856963220464" fill="#ff5708" stroke="none" /><path d="M 115.80600337817218 113.82643327865902 l 12.31073987863343 10.768922381600536 a37.356161090558885,37.356161090558885 0 0,0 -0.4275344156774718,0.48033944827486197 l -12.12354661330762 -10.979235999616265" fill="#ffcb12" stroke="none" /><path d="M 115.56566222782051 114.09645910891815 l 15.821047180157008 14.327738927595583 a42.34454582918296,42.34454582918296 0 0,0 -0.4939261239356255,0.5360592559378887 l -15.57207464822566 -14.597949438334807" fill="#f5ff19" stroke="none" /><path d="M 115.07121518719521 114.62390073753431 l 8.646625521126882 8.389993226493283 a33.04807533356286,33.04807533356286 0 0,0 -0.3996604073728189,0.40485388262867444 l -8.500924488698528 -8.537587603102622" fill="#ff930d" stroke="none" /><path d="M 114.81725581225074 114.88116024355365 l 11.435736589882309 11.485057074901007 a37.20748615198874,37.20748615198874 0 0,0 -0.4577407533020604,0.44799566876381813 l -11.236345884204454 -11.680202846587399" fill="#ffc912" stroke="none" /><path d="M 114.55890576462653 115.13401014063108 l 14.314912650450355 14.88037883592422 a41.64806040505125,41.64806040505125 0 0,0 -0.52092633502543,0.49256836434896945 l -14.056650481034117 -15.124581837019111" fill="#fdff18" stroke="none" /><path d="M 113.75828350139079 115.86535959552629 l 21.85013193091227 25.1964716571345 a54.3510187155813,54.3510187155813 0 0,0 -0.7120876967554022,0.6068565835876168 l -21.413178757579818 -25.568852630945063" fill="#6cff28" stroke="none" /><path d="M 113.20401910651253 116.32954008644616 l 8.634334798365296 10.67816663035282 a34.73226055665426,34.73226055665426 0 0,0 -0.46812886245474633,0.3719098804347137 l -8.4492484431932 -10.82521042479266" fill="#ffa90f" stroke="none" /><path d="M 112.92097659922987 116.55440617244103 l 9.981435469828424 12.788254485454145 a37.22246919624405,37.22246919624405 0 0,0 -0.5084789079494425,0.3898799439626778 l -9.759827833385488 -12.958173771244194" fill="#ffc912" stroke="none" /><path d="M 112.63410532772338 116.77436683061366 l 9.344038339068076 12.406127914329335 a36.531357387835605,36.531357387835605 0 0,0 -0.5055505479959925,0.3739942094007902 l -9.12910282065352 -12.565132072469895" fill="#ffc011" stroke="none" /><path d="M 111.7513745106137 117.40417183066458 l 5.788092092629442 8.572354600804296 a31.34346525467602,31.34346525467602 0 0,0 -0.44974186239993896,0.29806438272449065 l -5.639675531489539 -8.670717004620105" fill="#ff7c0b" stroke="none" /><path d="M 111.45004920935366 117.60387380957326 l 6.26351968744985 9.629845965340527 a32.48762865831139,32.48762865831139 0 0,0 -0.47140817431091164,0.3008750007510327 l -6.096829711092008 -9.736235394915369" fill="#ff8b0c" stroke="none" /><path d="M 111.1453310114006 117.79835938074945 l 7.307030906427963 11.668846976892517 a34.767886200779955,34.767886200779955 0 0,0 -0.509963434486985,0.3132611930088596 l -7.10508827200867 -11.792896636729756" fill="#ffa90f" stroke="none" /><line stroke="#e1ed5e" stroke-width="0.3" x1="143.8653032363475" x2="146.44561519142675" y1="172.8068346515853" y2="177.08958963109032" /><path d="M 144.38136562736335 173.6633856474863 a86.0,86.0 0 0,1 -40.68145358897372,12.25698825130547" fill="none" id="id66" stroke="none" /><text fill="#e1ed5e" style="font-size:6.75px; font-family:Arial;" text-anchor="middle"><textPath startOffset="21.466115282336833" xlink:href="#id66">June</textPath></text><path d="M 110.5260780823613 118.17145234162733 l 7.302457687600295 12.60642955606989 a35.568732080429825,35.568732080429825 0 0,0 -0.5324321327872676,0.302328860621703 l -7.084376787891829 -12.730261582486222" fill="#ffb410" stroke="none" /><path d="M 108.92500713936063 119.00905698771935 l 5.342334662809888 11.378449615458418 a33.57018915136069,33.57018915136069 0 0,0 -0.5251848344934933,0.24108659882647518 l -5.145681832548975 -11.468723284618969" fill="#ff9a0e" stroke="none" /><path d="M 107.93186726928326 119.44442032107085 l 4.766064478125122 11.683675210864209 a33.618384882488286,33.618384882488286 0 0,0 -0.5377003304543122,0.21396205835789847 l -4.564243071628943 -11.763984113628176" fill="#ff9a0e" stroke="none" /><path d="M 107.59598834532513 119.57807347666477 l 5.928422797095777 15.280052028214065 a37.389819609930235,37.389819609930235 0 0,0 -0.6020291166913743,0.22763589834890421 l -5.664523459644128 -15.3798361766696" fill="#ffcc13" stroke="none" /><path d="M 107.2578585660854 119.70592522655815 l 7.801719114682903 21.182569502104794 a43.573614505787695,43.573614505787695 0 0,0 -0.7060594613799999,0.2531678024584771 l -7.435940092673167 -21.31372484560323" fill="#e6ff1a" stroke="none" /><path d="M 106.91757812671514 119.82793768551818 l 3.7758488300153608 10.822761079105094 a32.4625124541926,32.4625124541926 0 0,0 -0.529185740855826,0.1795285349624957 l -3.588993356222308 -10.886152600965712" fill="#ff8b0c" stroke="none" /><path d="M 106.57524785965236 119.94407469862006 l 5.217008979203539 15.824257732256504 a37.66206216126834,37.66206216126834 0 0,0 -0.6174401953325169,0.1976848524267518 l -4.943847438780081 -15.911715431342962" fill="#ffcf13" stroke="none" /><line stroke="#e1ed5e" stroke-width="0.3" x1="102.19456741930631" x2="102.32365962044197" y1="184.97166512339345" y2="189.96999836594603" /><path d="M 102.22038585953345 185.97133177190398 a86.0,86.0 0 0,1 -42.740103519485714,-10.115201625700543" fill="none" id="id67" stroke="none" /><text fill="#e1ed5e" style="font-size:6.75px; font-family:Arial;" text-anchor="middle"><textPath startOffset="22.20632615414155" xlink:href="#id67">July</textPath></text><path d="M 99.81925306533755 120.99922214144158 l -0.08386827523997145 9.743836296160564 a30.74419722983724,30.74419722983724 0 0,0 -0.5291520086073025,-0.009109831704602804 l 0.25157997373994184 -9.740948987176802" fill="#ff730a" stroke="none" /><path d="M 99.09653310690486 120.98055641714683 l -0.44680664393837655 10.37586664475376 a31.385482406069595,31.385482406069595 0 0,0 -0.539549220342364,-0.02788853174089387 l 0.6253439326942294 -10.366638306250664" fill="#ff7c0b" stroke="none" /><path d="M 98.37488393609728 120.93702456842531 l -0.892205697807677 11.494645231816873 a32.52921940169979,32.52921940169979 0 0,0 -0.5578849146168698,-0.048136657890439534 l 1.0899349301660886 -11.477584321647772" fill="#ff8c0c" stroke="none" /><path d="M 97.2962882734958 120.8252237178851 l -1.8211371045100826 14.027230510776542 a35.144954441633374,35.144954441633374 0 0,0 -0.5992573023614429,-0.0830516016623172 l 2.0623229980583564 -13.993804343621619" fill="#ffae10" stroke="none" /><path d="M 96.58105272829116 120.7198165907248 l -1.8076654235437535 10.954979137335764 a32.10311767851433,32.10311767851433 0 0,0 -0.5444551609598426,-0.09466050859814398 l 1.9959695559756458 -10.922240050216613" fill="#ff860c" stroke="none" /><path d="M 94.11515582081647 120.15858648285463 l -4.649223934434035 15.92595825934836 a37.5907031096039,37.5907031096039 0 0,0 -0.6195753845057514,-0.1866729808972046 l 4.922674293380032 -15.84356990934543" fill="#ffce13" stroke="none" /><path d="M 93.76903079525671 120.05430185196036 l -4.143124427866804 13.334597741780133 a34.963415662361214,34.963415662361214 0 0,0 -0.5731979864411461,-0.18351989426264317 l 4.37204375939889 -13.261305000857783" fill="#ffac0f" stroke="none" /><path d="M 93.42475214034765 119.94407469862007 l -2.7040577467488855 8.201961483683665 a29.636208686546603,29.636208686546603 0 0,0 -0.4831129159235051,-0.16389813126282965 l 2.844840395609616 -8.154200365522712" fill="#ff6409" stroke="none" /><path d="M 92.40401165467489 119.57807347666478 l -6.27008527360126 16.160660681775333 a38.33438556770071,38.33438556770071 0 0,0 -0.6131291511940875,-0.24397674280370182 l 6.547335500837206 -16.050337094565563" fill="#ffd814" stroke="none" /><path d="M 91.7346041902142 119.30500536409082 l -4.445693577390979 10.383548511618244 a32.295232227678405,32.295232227678405 0 0,0 -0.5091563665576796,-0.223199188372548 l 4.623770618606402 -10.305484769951244" fill="#ff890c" stroke="none" /><path d="M 91.40352486487194 119.15986991738527 l -7.054516106369954 15.723143358587075 a38.23320732103325,38.23320732103325 0 0,0 -0.5981348680675631,-0.27457438126713046 l 7.324118970204936 -15.59938190698587" fill="#ffd614" stroke="none" /><path d="M 90.7491055286396 118.85261126421891 l -3.9590047606440515 8.068147137196616 a29.987141754877143,29.987141754877143 0 0,0 -0.4614394132310322,-0.23137530111912205 l 4.097298081557844 -7.998803995168192" fill="#ff6909" stroke="none" /><path d="M 90.42595943632237 118.69057910512821 l -3.0728193584703427 5.9988019596605815 a27.740018083137294,27.740018083137294 0 0,0 -0.4231133407670666,-0.22135290231787524 l 3.175623601763905 -5.945019638397989" fill="#ff4a06" stroke="none" /><path d="M 90.10565033884886 118.52300852407294 l -7.745523013453906 14.500234347379838 a37.43927987719894,37.43927987719894 0 0,0 -0.5658273034803994,-0.3085341606729411 l 7.993973128802946 -14.36475953494713" fill="#ffcc13" stroke="none" /><line stroke="#e1ed5e" stroke-width="0.3" x1="58.666819895761336" x2="56.23545636021788" y1="174.27360380694188" y2="178.64263932499728" /><path d="M 58.180547188652646 175.14741091055294 a86.0,86.0 0 0,1 -31.652253787137756,-30.449443065178592" fill="none" id="id68" stroke="none" /><text fill="#e1ed5e" style="font-size:6.75px; font-family:Arial;" text-anchor="middle"><textPath startOffset="22.20632615414155" xlink:href="#id68">August</textPath></text><path d="M 89.4739219176387 118.17145234162733 l -7.124050922397131 12.298441148046805 a35.212802546186246,35.212802546186246 0 0,0 -0.5218740715955597,-0.3083324002729057 l 7.334692865021072 -12.173990175480151" fill="#ffaf10" stroke="none" /><path d="M 89.1626897886671 117.98757091392108 l -9.27350979814068 15.392003353430015 a38.969745440829485,38.969745440829485 0 0,0 -0.571594865196122,-0.3511202515317699 l 9.53708386326911 -15.230094635069868" fill="#ffe015" stroke="none" /><path d="M 88.8546689885994 117.79835938074946 l -9.054247870148215 14.459037362859984 a38.05998727885412,38.05998727885412 0 0,0 -0.5522652732252117,-0.3524818268993662 l 9.301794945420351 -14.301041107136815" fill="#ffd413" stroke="none" /><path d="M 87.95078237400918 117.19931262002967 l -17.851744510665615 25.48196440485393 a52.112944123054675,52.112944123054675 0 0,0 -0.7302578724168068,-0.5210196024203285 l 18.28772971093131 -25.170900540589383" fill="#84ff25" stroke="none" /><path d="M 87.36589467227662 116.77436683061367 l -6.9366867034651 9.20987472675529 a32.52993559845654,32.52993559845654 0 0,0 -0.444376380340677,-0.3407288592642796 l 7.094191812299264 -9.089106525663643" fill="#ff8c0c" stroke="none" /><path d="M 87.07902340077011 116.55440617244103 l -11.615258884445481 14.881515487198184 a39.87786381316512,39.87786381316512 0 0,0 -0.5374824075597139,-0.4270085311191846 l 11.869698784722553 -14.67937304207387" fill="#ffeb16" stroke="none" /><path d="M 86.51685102203217 116.09983520530335 l -5.21738730482067 6.229930111067777 a29.126078973114453,29.126078973114453 0 0,0 -0.381599517021279,-0.32520738703026103 l 5.323852298419005 -6.139198333814564" fill="#ff5d08" stroke="none" /><path d="M 85.97065885151581 115.62618273729859 l -19.441368719291965 21.65421576505611 a50.10106317781309,50.10106317781309 0 0,0 -0.6367617302070425,-0.5816667430692276 l 19.811229998965864 -21.316356255400308" fill="#9aff22" stroke="none" /><path d="M 85.44109423537348 115.13401014063109 l -6.905968307274537 7.178767146574144 a30.961279837742367,30.961279837742367 0 0,0 -0.3808975295517668,-0.37278840096946075 l 7.028515789202098 -7.058828642682113" fill="#ff760a" stroke="none" /><path d="M 85.18274418774928 114.88116024355367 l -10.155776441339032 10.199576664953106 a35.39344153671084,35.39344153671084 0 0,0 -0.42802363284745765,-0.43358568028849787 l 10.329840699242023 -10.023250490683944" fill="#ffb210" stroke="none" /><path d="M 84.19399662182784 113.82643327865904 l -13.738527519405753 12.0178915282537 a39.253132749923815,39.253132749923815 0 0,0 -0.4404902264443868,-0.5123896484003168 l 13.94336025542092 -11.779624780691853" fill="#ffe315" stroke="none" /><path d="M 83.50135304334701 112.99209946851258 l -13.278136377297658 10.456061580295978 a37.90083221102017,37.90083221102017 0 0,0 -0.39920979556378594,-0.5160324747881873 l 13.456152990079513 -10.22595111139454" fill="#ffd213" stroke="none" /><path d="M 83.06392112726016 112.41649034213515 l -14.760161765634033 10.821241881811037 a39.301957578694854,39.301957578694854 0 0,0 -0.39530322094366643,-0.5490415996940011 l 14.944244778953307 -10.565566676665897" fill="#ffe415" stroke="none" /><path d="M 82.6465618267979 111.8261652097733 l -25.38569412228636 17.300053721834477 a51.72011270891829,51.72011270891829 0 0,0 -0.49502771629998066,-0.7399992696259206 l 25.679724943997073 -16.860517538002735" fill="#89ff24" stroke="none" /><path d="M 82.05923443525364 110.91462005526583 l -11.175775872830924 6.799004592894631 a34.081453658288595,34.081453658288595 0 0,0 -0.3005970000723574,-0.5038178624284119 l 11.291153748601513 -6.605624636580108" fill="#ffa00e" stroke="none" /><line stroke="#e1ed5e" stroke-width="0.3" x1="26.63291911575756" x2="22.317208475507996" y1="142.92168965132927" y2="145.44649492493687" /><path d="M 25.769776987707644 143.4266507060508 a86.0,86.0 0 0,1 -11.730757126820373,-40.83630448921669" fill="none" id="id69" stroke="none" /><text fill="#e1ed5e" style="font-size:6.75px; font-family:Arial;" text-anchor="middle"><textPath startOffset="21.46611528233685" xlink:href="#id69">September</textPath></text><path d="M 81.87401531095188 110.60418214915194 l -18.712885997091146 10.947534992091503 a42.67995905769192,42.67995905769192 0 0,0 -0.3655193067059123,-0.6373137209558181 l 18.898557299949434 -10.623801425277378" fill="#f1ff19" stroke="none" /><path d="M 81.35079622478065 109.6543875284942 l -1.4466561667621172 0.7489102174413411 a22.62901214808819,22.62901214808819 0 0,0 -0.17609825079349056,-0.34745855526094355 l 1.4593330873418746 -0.7238974504777126" fill="#ff0000" stroke="none" /><path d="M 81.02952815118164 109.00673069616217 l -11.399049444400212 5.411998676477026 a33.61856005691893,33.61856005691893 0 0,0 -0.24369515171227535,-0.5248976766497757 l 11.490519212952314 -5.214980932548423" fill="#ff9a0e" stroke="none" /><path d="M 80.87730276802145 108.67885076344099 l -11.852108508765866 5.3790885109906315 a34.01564709542448,34.01564709542448 0 0,0 -0.2373950638318572,-0.5352631984743056 l 11.942944657329003 -5.17427697602363" fill="#ffa00e" stroke="none" /><path d="M 80.73074385275274 108.34839909993369 l -21.18422308705551 9.17805791782126 a44.08696720977048,44.08696720977048 0 0,0 -0.2956955273191964,-0.6989368795358732 l 21.339069595567015 -8.812046512619228" fill="#e0ff1b" stroke="none" /><path d="M 80.32549172779594 107.34259656027581 l -38.19634114108193 14.255010554640446 a61.76966767682585,61.76966767682585 0 0,0 -0.363193112564656,-0.9993514605429343 l 38.43605851465181 -13.595411297091395" fill="#31ff40" stroke="none" /><path d="M 79.97269907076064 106.31721596034903 l -10.395771120019837 3.279140382998133 a31.90067974170637,31.90067974170637 0 0,0 -0.16067799312040887,-0.5251049782839619 l 10.450675885646376 -3.0997084321621236" fill="#ff830c" stroke="none" /><path d="M 79.86692584326677 105.97154293290107 l -19.63550370031216 5.823961727987673 a41.481004266735496,41.481004266735496 0 0,0 -0.1971480788180541,-0.6862983257637717 l 19.732844416016317 -5.485105926719306" fill="#ffff18" stroke="none" /><path d="M 79.76711848015287 105.62410040840567 l -13.850533434599772 3.850009731424433 a35.37566872722897,35.37566872722897 0 0,0 -0.15803140638083168,-0.5880936522692465 l 13.914752917322378 -3.6110251459796476" fill="#ffb110" stroke="none" /><path d="M 79.67330655649465 105.27499134158121 l -5.86155813715069 1.5211361605654576 a27.05571787769025,27.05571787769025 0 0,0 -0.11310409110886263,-0.4517946211821072 l 5.8868735425546115 -1.4200136999859585" fill="#ff4006" stroke="none" /><path d="M 79.58551787078972 104.9243191809786 l -17.464147396662305 4.212648425784412 a38.965045256041265,38.965045256041265 0 0,0 -0.15166574989138665,-0.653372081070637 l 17.534073712484247 -3.911407687365201" fill="#ffe014" stroke="none" /><path d="M 79.4281124754447 104.21870165774334 l -15.2412619933969 3.1255438841426404 a36.55844117265821,36.55844117265821 0 0,0 -0.12111300965176129,-0.617552626942581 l 15.292804936024327 -2.862727530132105" fill="#ffc111" stroke="none" /><path d="M 79.29508885075956 103.50808413554451 l -27.354993592177163 4.634823996922047 a48.744860207081565,48.744860207081565 0 0,0 -0.13304618433209736,-0.8284787168384842 l 27.43072153087055 -4.163266050390349" fill="#aaff21" stroke="none" /><path d="M 79.23777060512086 103.15116336523772 l -15.121185677929292 2.295000476153129 a36.29435462816124,36.29435462816124 0 0,0 -0.0884302427280934,-0.6184809116779335 l 15.158449971673985 -2.034374092494795" fill="#ffbd11" stroke="none" /><path d="M 79.18660465613746 102.79330883721812 l -7.011072102610044 0.9409368024313748 a28.07393059721161,28.07393059721161 0 0,0 -0.06015640506586925,-0.4795057367898711 l 7.026230016922762 -0.8201133113540952" fill="#ff4e07" stroke="none" /><path d="M 79.1416061653843 102.43462659150553 l -31.094020265010183 3.6293460164882565 a52.305115376696236,52.305115376696236 0 0,0 -0.0966840094592995,-0.8951738500297842 l 31.151886575970536 -3.09357584457369" fill="#82ff25" stroke="none" /><path d="M 79.07016306316243 101.71520430193888 l -18.27872842954268 1.497945432204656 a39.340004185354886,39.340004185354886 0 0,0 -0.04949991870173937,-0.6753870628166813 l 18.301804906908757 -1.183085232891214" fill="#ffe415" stroke="none" /><path d="M 79.04373962182676 101.35467743843564 l -20.26926262491356 1.3102677804240344 a41.311568354367296,41.311568354367296 0 0,0 -0.03976464509528251,-0.7100244505539542 l 20.28881362089637 -0.9611716135346424" fill="#fffd17" stroke="none" /><line stroke="#e1ed5e" stroke-width="0.3" x1="15.007084014347285" x2="10.007500721073583" y1="101.09737516637583" y2="101.16192664675087" /><path d="M 14.007167355692545 101.11028546245083 a86.0,86.0 0 0,1 10.666146001902534,-42.60595125391555" fill="none" id="id70" stroke="none" /><text fill="#e1ed5e" style="font-size:6.75px; font-family:Arial;" text-anchor="middle"><textPath startOffset="22.20632615414155" xlink:href="#id70">October</textPath></text><path d="M 79.00175016825051 100.2711162175752 l -23.614852825922238 0.30490015253931957 a44.61682108356216,44.61682108356216 0 0,0 -0.003305262356831274,-0.7680265683042925 l 23.616602385568573 0.10163589396864824" fill="#d9ff1c" stroke="none" /><path d="M 79.01574976396665 99.18683210126434 l -14.430386962330543 -0.5591968887194723 a35.4412177133008,35.4412177133008 0 0,0 0.028870064518361195,-0.6094014325727998 l 14.418623289578683 0.807509427915281" fill="#ffb210" stroke="none" /><path d="M 79.16333360222342 97.38593545837743 l -11.200824001078217 -1.405199675380793 a32.28862455885659,32.28862455885659 0 0,0 0.07393172636710996,-0.5508772352094712 l 11.174976275653274 1.5977952526549235" fill="#ff880c" stroke="none" /><path d="M 79.62865764111835 94.90015583598534 l -12.281753749528697 -3.074663862594745 a33.66076747405181,33.66076747405181 0 0,0 0.14554862660497872,-0.5608582313304414 l 12.22700879105341 3.2856185194740504" fill="#ff9b0e" stroke="none" /><path d="M 80.14247586403 93.16781622104843 l -15.638333575381864 -5.380528219528641 a37.53806400205477,37.53806400205477 0 0,0 0.21548085561009014,-0.609193395773812 l 15.543399638961963 5.648919241729064" fill="#ffcd13" stroke="none" /><path d="M 80.65960295795068 91.81776055985345 l -13.94854715704446 -5.901138039357425 a36.14547450401751,36.14547450401751 0 0,0 0.24735430873199224,-0.5709278482050416 l 13.844902138469788 6.140365032149067" fill="#ffbb11" stroke="none" /><path d="M 81.10775173730289 90.83032412892265 l -11.777287295754283 -5.716307854997785 a34.09124407914865,34.09124407914865 0 0,0 0.2607817622512611,-0.5257201195797068 l 11.67714552054961 5.9181875630764536" fill="#ffa10e" stroke="none" /><path d="M 81.43458229118936 90.18545643968196 l -26.501436167200637 -14.00989214212738 a50.976710906272764,50.976710906272764 0 0,0 0.41677563767087755,-0.7722219593546812 l 26.256352430311285 14.463995084814535" fill="#91ff24" stroke="none" /><line stroke="#e1ed5e" stroke-width="0.3" x1="26.266209847984243" x2="21.928928074336255" y1="57.711370442889674" y2="55.22380399835377" /><path d="M 25.398753493254645 57.213857153982495 a86.0,86.0 0 0,1 29.58750427330803,-30.492523968695096" fill="none" id="id71" stroke="none" /><text fill="#e1ed5e" style="font-size:6.75px; font-family:Arial;" text-anchor="middle"><textPath startOffset="21.46611528233685" xlink:href="#id71">November</textPath></text><path d="M 81.96595687620814 89.24020034530311 l -14.920794285315628 -8.902316363386078 a38.374732767398726,38.374732767398726 0 0,0 0.34333362057059347,-0.5643501987209141 l 14.765344866458818 9.157834335314066" fill="#ffd814" stroke="none" /><path d="M 82.34701348167596 88.62581576622439 l -10.264826289286571 -6.613839829360113 a33.211041562359,33.211041562359 0 0,0 0.3137705899638085,-0.47789413507770523 l 10.149459063964843 6.789552028415485" fill="#ff950d" stroke="none" /><path d="M 82.7489923806493 88.02491185347247 l -28.885939626668808 -20.05167934866698 a56.16343772752194,56.16343772752194 0 0,0 0.5581238420078372,-0.7894265936871641 l 28.536503164857095 20.54593244268593" fill="#59ff2a" stroke="none" /><path d="M 83.39014120810768 87.1503855733568 l -12.378718213565339 -9.576346080559222 a36.65052934777275,36.65052934777275 0 0,0 0.39032101584287066,-0.49566805240069084 l 12.212043117128498 9.788006526912962" fill="#ffc212" stroke="none" /><path d="M 84.80347519578584 85.50635884689758 l -8.3498871870803 -7.963680520224557 a32.53866645090202,32.53866645090202 0 0,0 0.3900545312922124,-0.4019854812579033 l 8.211568392084969 8.106230197032584" fill="#ff8c0c" stroke="none" /><path d="M 86.65592168130627 83.78471172551755 l -9.99054299742078 -12.140181648577755 a36.72243492095857,36.72243492095857 0 0,0 0.4915500787008457,-0.39746597862611976 l 9.780089520155434 12.310353724468008" fill="#ffc312" stroke="none" /><path d="M 86.93701828274178 83.55741782278169 l -9.568954480603434 -12.044594703023657 a36.3830150299597,36.3830150299597 0 0,0 0.4937130870801823,-0.3853508956133033 l 9.360208838363826 12.207523987860183" fill="#ffbf11" stroke="none" /><path d="M 87.22198572758235 83.33499621200491 l -5.700688896036993 -7.434801685243637 a30.368784872559573,30.368784872559573 0 0,0 0.41757635417312383,-0.31450985269748927 l 5.571866388105478 7.531828127446981" fill="#ff6e0a" stroke="none" /><path d="M 87.51073957382395 83.11751280151077 l -5.343294413647595 -7.222853592443219 a29.984453751274337,29.984453751274337 0 0,0 0.4175759017206476,-0.30338665127023834 l 5.218173195573166 7.313759478530125" fill="#ff6909" stroke="none" /><path d="M 87.80319425747018 82.90503203632743 l -13.791367274422349 -19.329895606141797 a44.745455890387696,44.745455890387696 0 0,0 0.6308445778226991,-0.4419469413858969 l 13.45659155701599 19.564427390291637" fill="#d8ff1c" stroke="none" /><path d="M 89.00827224532344 82.1063720568725 l -10.371187677859139 -16.883439781066585 a40.8144410138232,40.8144410138232 0 0,0 0.6017951992381834,-0.362574874008567 l 10.079030412403307 17.05946126453377" fill="#fff717" stroke="none" /><line stroke="#e1ed5e" stroke-width="0.3" x1="56.762969772571076" x2="54.21961505331055" y1="26.818313649435495" y2="22.513508569990535" /><path d="M 56.25429882871897 25.957352633546506 a86.0,86.0 0 0,1 42.265352541879196,-11.944610805530505" fill="none" id="id72" stroke="none" /><text fill="#e1ed5e" style="font-size:6.75px; font-family:Arial;" text-anchor="middle"><textPath startOffset="22.20632615414155" xlink:href="#id72">December</textPath></text><path d="M 89.3179101791058 81.91981866633112 l -7.64954179373414 -12.947382494356738 a36.038291229699624,36.038291229699624 0 0,0 0.5368045358579256,-0.3109518355042046 l 7.425540525410894 13.07713848725099" fill="#ffba11" stroke="none" /><path d="M 90.58718382345135 81.22770947309562 l -11.433154929113343 -22.80151890176622 a46.50737728306677,46.50737728306677 0 0,0 0.7187133440162742,-0.35266951657100143 l 11.038970318086644 22.99494357847205" fill="#c3ff1e" stroke="none" /><path d="M 90.91171255644093 81.06846463323043 l -4.488581562642112 -9.350027838304326 a31.37161438839473,31.37161438839473 0 0,0 0.4888321797423554,-0.22951326291295293 l 4.326971171600148 9.425906083857287" fill="#ff7c0b" stroke="none" /><path d="M 91.23893434514133 80.91482961587045 l -5.0684541824247935 -11.041158172588954 a33.1489259439453,33.1489259439453 0 0,0 0.5206242157111343,-0.23358890975795643 l 4.877647848246885 11.126767412863439" fill="#ff940d" stroke="none" /><path d="M 91.56875222667455 80.76684994638697 l -5.739194683633118 -13.092106353040643 a35.29481040014067,35.29481040014067 0 0,0 0.558525655318014,-0.23913153734266565 l 5.512985270524796 13.188957418346096" fill="#ffb010" stroke="none" /><path d="M 91.90106846888425 80.62456947434976 l -9.759659573566623 -23.348463349163065 a46.3061592455102,46.3061592455102 0 0,0 0.7380675446134006,-0.30107628322019653 l 9.356308159364842 23.513000518566837" fill="#c6ff1e" stroke="none" /><path d="M 92.57280143429618 80.3572730644239 l -10.97770651029458 -29.032762414125507 a52.03886811114772,52.03886811114772 0 0,0 0.8405954195281682,-0.30959838708878923 l 10.476328764993843 29.21742406902062" fill="#85ff25" stroke="none" /><path d="M 93.25333710446033 80.11325718540243 l -5.457611550428767 -16.08708171222068 a37.987634380661675,37.987634380661675 0 0,0 0.6210384488217137,-0.20474661236899902 l 5.179890279364644 16.178642048848914" fill="#ffd313" stroke="none" /><path d="M 93.59665428221793 80.00007090966166 l -2.2904052289562133 -7.153751208537103 a28.511465400737464,28.511465400737464 0 0,0 0.46869404294221606,-0.14562552062784043 l 2.1669258133032683 7.192116864047469" fill="#ff5507" stroke="none" /></svg>