<?xml version="1.0" encoding="utf-8" ?>
<svg baseProfile="full" height="200mm" version="1.1" viewBox="0,0,200,200" width="200mm" xmlns="http://www.w3.org/2000/svg" xmlns:ev="http://www.w3.org/2001/xml-events" xmlns:xlink="http://www.w3.org/1999/xlink"><defs /><rect fill="#1a1a1a" height="200" width="200" x="0" y="0" /><text alignment-baseline="middle" fill="#e1ed5e" style="dominant-baseline: central; font-size:9.0px; font-family:Arial;" text-anchor="middle" x="100.0" y="100.0">2022</text><line stroke="#e1ed5e" stroke-width="0.3" x1="100.0" x2="100.0" y1="15.0" y2="10.0" /><path d="M 100.0 14.0 a86.0,86.0 0 0,1 42.46469731375804,11.215312516191453" fill="none" id="id61" stroke="none" /><text fill="#e1ed5e" style="font-size:6.75px; font-family:Arial;" text-anchor="middle"><textPath startOffset="22.20632615414155" xlink:href="#id61">January</textPath></text><path d="M 100.0 79.0 l 0.0 -13.587259557730448 a34.58725955773045,34.58725955773045 0 0,0 0.5953628172215114,0.00512447573057508 l -0.23388233794898305 13.585246458608431" fill="#ffa70f" stroke="none" /><path d="M 101.80526077348638 79.07773832637324 l 1.3719638053829997 -15.900520392703525 a36.959600040165846,36.959600040165846 0 0,0 0.6333729222500042,0.0601463907766412 l -1.645461854723248 15.874548457411706" fill="#ffc612" stroke="none" /><path d="M 102.88285421437855 79.19881850522331 l 1.9398812111680492 -13.997177155388068 a35.130962721370416,35.130962721370416 0 0,0 0.5982820007888852,0.0881712148643618 l -2.18053219238559 13.961711456362737" fill="#ffae10" stroke="none" /><path d="M 103.59715602781102 79.31037775812273 l 2.164447953669244 -12.449171005482299 a33.635928682446895,33.635928682446895 0 0,0 0.5695762069387139,0.10408641117855709 l -2.378419281710859 12.410069112953003" fill="#ff9b0e" stroke="none" /><path d="M 104.307194497241 79.44645832069477 l 2.3143241871489004 -11.043745219877756 a32.283634384576416,32.283634384576416 0 0,0 0.5429143035085954,0.11866003842368222 l -2.504081214811024 11.002271683358204" fill="#ff880c" stroke="none" /><path d="M 104.66035177308747 79.52364482259891 l 13.981055319262426 -61.429065532203275 a84.0,84.0 0 0,0 1.407105252149906,0.3330163514365254 l -15.036384258374856 61.17930326862588" fill="#4dd2ff" stroke="none" /><path d="M 109.73455568895987 81.39251694778311 l 5.252650717943258 -10.040377017329222 a32.33135076744263,32.33135076744263 0 0,0 0.4909053021252272,0.26222461126806274 l -5.424701066596795 9.948473679559404" fill="#ff890c" stroke="none" /><path d="M 110.05341064243156 81.56283822128135 l 6.664367545427241 -12.22192417658629 a34.92081985224895,34.92081985224895 0 0,0 0.5252688467228789,0.2923115445047694 l -6.873760481222155 12.105397234521341" fill="#ffac0f" stroke="none" /><line stroke="#e1ed5e" stroke-width="0.3" x1="143.23703022742887" x2="145.7803849466894" y1="26.81831364943548" y2="22.513508569990506" /><path d="M 143.74570117128098 25.957352633546492 a86.0,86.0 0 0,1 28.547481713284135,27.462654790039103" fill="none" id="id62" stroke="none" /><text fill="#e1ed5e" style="font-size:6.75px; font-family:Arial;" text-anchor="middle"><textPath startOffset="19.985693538727396" xlink:href="#id62">February</textPath></text><line stroke="#e1ed5e" stroke-width="0.3" x1="172.23445277983987" x2="176.4835382374775" y1="55.19839476539836" y2="52.563006222186495" /><path d="M 173.08426987136738 54.67131705675599 a86.0,86.0 0 0,1 12.851231095245387,41.99856678651699" fill="none" id="id63" stroke="none" /><text fill="#e1ed5e" style="font-size:6.75px; font-family:Arial;" text-anchor="middle"><textPath startOffset="22.20632615414155" xlink:href="#id63">March</textPath></text><path d="M 120.94382443527127 98.46500227214037 l 12.21932154658521 -0.8955685657107935 a33.252096233491265,33.252096233491265 0 0,0 0.036924725334729395,0.5712091576579886 l -12.232926862924355 0.6851003437997696" fill="#ff950d" stroke="none" /><path d="M 120.96714384426684 98.82574320788733 l 16.504620434183934 -0.9243348922500657 a37.53048367923676,37.53048367923676 0 0,0 0.030571959857304317,0.6453257533161509 l -16.518086002274735 0.640098032310915" fill="#ffcd13" stroke="none" /><path d="M 120.98425023603335 99.18683210126433 l 14.361329721084031 -0.5565208278106926 a35.37210864102685,35.37210864102685 0 0,0 0.0183401107919818,0.608618990501388 l -14.368781526331658 0.3092316898843055" fill="#ffb110" stroke="none" /><line stroke="#e1ed5e" stroke-width="0.3" x1="184.98032266829074" x2="189.97916517819016" y1="98.17113171792111" y2="98.06355123074" /><path d="M 185.9800911702706 98.14961562048488 a86.0,86.0 0 0,1 -9.607161424134198,41.387399972396054" fill="none" id="id64" stroke="none" /><text fill="#e1ed5e" style="font-size:6.75px; font-family:Arial;" text-anchor="middle"><textPath startOffset="21.466115282336823" xlink:href="#id64">April</textPath></text><path d="M 120.99980553446 99.90962569577887 l 20.970512903823714 -0.0902482410960113 a41.97070709810372,41.97070709810372 0 0,0 -0.003109235371142623,0.7224768004311347 l -20.96895937116307 -0.2707380375388081" fill="#f9ff18" stroke="none" /><path d="M 120.99824983174949 100.27111621757518 l 25.672281834023465 0.33146438408598955 a46.67442157485634,46.67442157485634 0 0,0 -0.017287177391560393,0.8032672047266032 l -25.662772593946897 -0.7733214046027076" fill="#c1ff1e" stroke="none" /><path d="M 120.9764740272857 100.99374915477107 l 13.707893064071994 0.6494040480013099 a34.72326702624392,34.72326702624392 0 0,0 -0.03342304455748183,0.5967909129051908 l -13.694683668626983 -0.885266677241924" fill="#ffa90f" stroke="none" /><path d="M 120.95626037817324 101.35467743843564 l 14.187116146369156 0.9170990345190402 a35.21672730236056,35.21672730236056 0 0,0 -0.04431176799561628,0.6045988684366005 l -14.169227819709203 -1.1611710394524108" fill="#ffaf10" stroke="none" /><path d="M 120.92983693683757 101.71520430193887 l 17.055072523595356 1.3976665872089782 a38.11224621942127,38.11224621942127 0 0,0 -0.05921082950933944,0.6533865696767162 l -17.02848709780894 -1.6910345454342648" fill="#ffd513" stroke="none" /><path d="M 120.8583938346157 102.4346265915055 l 19.621096495947054 2.290207178093029 a40.75430273691923,40.75430273691923 0 0,0 -0.08732771975516249,0.6960878489585504 l -19.578767266945043 -2.627612781338974" fill="#fff617" stroke="none" /><path d="M 120.81339534386255 102.79330883721812 l 23.411869297627444 3.1420429163251495 a44.62177084168796,44.62177084168796 0 0,0 -0.10871977383022438,0.7603858449500276 l -23.35431547278062 -3.5445742332555867" fill="#d9ff1c" stroke="none" /><path d="M 120.70491114924044 103.5080841355445 l 15.157758261591535 2.5682163475431556 a36.37378843111334,36.37378843111334 0 0,0 -0.10990696578837147,0.6164166317823917 l -15.111304853463976 -2.8287517300587655" fill="#ffbe11" stroke="none" /><path d="M 120.49622156327973 104.57218783832717 l 17.113866486396596 3.8176700995486534 a38.53450971949876,38.53450971949876 0 0,0 -0.1499899531721638,0.6461527926638987 l -17.04561596729388 -4.111691549561117" fill="#ffda14" stroke="none" /><path d="M 120.41448212921028 104.9243191809786 l 14.397309760291837 3.4728751950877 a35.81024613078561,35.81024613078561 0 0,0 -0.14970164012343098,0.5979836372568396 l -14.335396805873346 -3.7201866717419354" fill="#ffb711" stroke="none" /><path d="M 120.32669344350535 105.2749913415812 l 28.169810323973056 7.31036289625458 a50.10291427612628,50.10291427612628 0 0,0 -0.22382146519649707,0.8329229356249498 l -28.03980078243478 -7.794176765055079" fill="#9aff22" stroke="none" /><path d="M 120.23288151984713 105.62410040840565 l 11.02114389423268 3.063529029013949 a32.4390044518303,32.4390044518303 0 0,0 -0.15417388077986974,0.5366995047077154 l -10.96677737656671 -3.2527860092262464" fill="#ff8a0c" stroke="none" /><path d="M 120.13307415673323 105.97154293290107 l 16.938494173482407 5.024018904823687 a38.667862089713154,38.667862089713154 0 0,0 -0.19476307492936745,0.6364969977852707 l -16.849504326046908 -5.314842875161014" fill="#ffdc14" stroke="none" /><path d="M 120.02730092923936 106.31721596034902 l 16.864632186479543 5.319614659522204 a38.68372468998105,38.68372468998105 0 0,0 -0.2057748479726196,0.6333098619700764 l -16.770565087490677 -5.609123421470076" fill="#ffdc14" stroke="none" /><path d="M 119.79798401119884 107.00284435728193 l 13.224150557271019 4.677580710109095 a35.02704242743124,35.02704242743124 0 0,0 -0.20595190231087376,0.5666911823371179 l -13.141674393954919 -4.904519689452344" fill="#ffad10" stroke="none" /><path d="M 119.67450827220406 107.3425965602758 l 15.952469070288718 5.95351827363795 a38.02720321347752,38.02720321347752 0 0,0 -0.23414928126489645,0.611289886862712 l -15.847625509430314 -6.227231727333806" fill="#ffd413" stroke="none" /><path d="M 119.54520255179757 107.68017299344265 l 31.373153158972602 12.32789698505944 a54.7083340319659,54.7083340319659 0 0,0 -0.35195013838343087,0.8735113802468897 l -31.156300406331784 -12.866107733149143" fill="#69ff28" stroke="none" /><path d="M 119.12269723197855 108.67885076344098 l 17.1767984027734 7.795703091616519 a39.86306947615255,39.86306947615255 0 0,0 -0.2889605249975117,0.6223952637095334 l -17.040063260936055 -8.090218422604883" fill="#ffeb16" stroke="none" /><path d="M 118.81262510543309 109.33194174019688 l 17.003558678542287 8.434560199594364 a39.98059044116415,39.98059044116415 0 0,0 -0.31112767964882965,0.6138844286377572 l -16.85585232910719 -8.725998839934816" fill="#ffec16" stroke="none" /><path d="M 118.64920377521936 109.65438752849418 l 13.511112425727056 6.99448174148592 a36.214234578598294,36.214234578598294 0 0,0 -0.29134781421950134,0.5511202672127871 l -13.388712103282662 -7.226017023784841" fill="#ffbc11" stroke="none" /><line stroke="#e1ed5e" stroke-width="0.3" x1="174.80103733775053" x2="179.2010983576182" y1="140.37084112569926" y2="142.7455964860345" /><path d="M 175.68104954172406 140.8457921977663 a86.0,86.0 0 0,1 -30.038265399797805,32.042727171017184" fill="none" id="id65" stroke="none" /><text fill="#e1ed5e" style="font-size:6.75px; font-family:Arial;" text-anchor="middle"><textPath startOffset="22.206326154141568" xlink:href="#id65">May</textPath></text><path d="M 118.48025628344425 109.97397251340804 l 20.508656351950393 11.068719589377965 a44.30496811220034,44.30496811220034 0 0,0 -0.36799198177459336,0.6680123374175105 l -20.31508796072429 -11.420102445193283" fill="#ddff1b" stroke="none" /><path d="M 118.12598468904814 110.60418214915192 l 10.009360168960852 5.855741370688582 a32.59642177537424,32.59642177537424 0 0,0 -0.28749908079076447,0.4818649963215514 l -9.907080212471861 -6.027168460896237" fill="#ff8d0d" stroke="none" /><path d="M 117.94076556474637 110.91462005526583 l 14.006350148445486 8.521040514106945 a37.3946935294293,37.3946935294293 0 0,0 -0.3392862574350432,0.5470374780815214 l -13.85759925134248 -8.76087432355374" fill="#ffcc13" stroke="none" /><path d="M 117.55443506779139 111.5257021239791 l 9.477338598274782 6.222529018448666 a32.337540045873475,32.337540045873475 0 0,0 -0.30951167275604846,0.4626779556750685 l -9.368823820108013 -6.384743888329542" fill="#ff890c" stroke="none" /><path d="M 117.14729908036423 112.12312394758627 l 25.659599386161425 18.141312071710587 a52.42486665590624,52.42486665590624 0 0,0 -0.5272948199877073,0.732366386454687 l -25.343524773798116 -18.580312063616404" fill="#81ff25" stroke="none" /><path d="M 116.93607887273984 112.41649034213515 l 9.35168009191873 6.856076097457487 a32.59567591801862,32.59567591801862 0 0,0 -0.335640365320459,0.44964511891135145 l -9.232278459903178 -7.016034095878154" fill="#ff8d0d" stroke="none" /><path d="M 116.71984013943494 112.70617746262583 l 13.341985542537406 10.139190003822472 a37.75743871093941,37.75743871093941 0 0,0 -0.39769943057935236,0.514080124446558 l -13.165479294739985 -10.367348122382282" fill="#ffd013" stroke="none" /><path d="M 116.498646956653 112.99209946851258 l 12.822430324449568 10.097209222126182 a37.32079512464861,37.32079512464861 0 0,0 -0.40178872788350406,0.5012932158758051 l -12.646723684511212 -10.316430271580238" fill="#ffcb12" stroke="none" /><path d="M 116.0416608686014 113.55231037782055 l 5.892050239161616 4.977719841910103 a28.713232191847332,28.713232191847332 0 0,0 -0.322213725735343,0.37480735718465663 l -5.805494003855492 -5.078404298256288" fill="#ff5708" stroke="none" /><path d="M 115.80600337817218 113.82643327865902 l 12.310339099796344 10.768571796970258 a37.35562861214689,37.35562861214689 0 0,0 -0.4275283215596669,0.48033260146889556 l -12.123151928588344 -10.97887856818002" fill="#ffcb12" stroke="none" /><path d="M 115.56566222782051 114.09645910891815 l 15.820532122495738 14.327272484912033 a42.34385095281161,42.34385095281161 0 0,0 -0.49391801858023215,0.5360504591754414 l -15.571567695919782 -14.597474198888808" fill="#f5ff19" stroke="none" /><path d="M 115.07121518719521 114.62390073753431 l 8.646344028336422 8.389720088423468 a33.04768310582766,33.04768310582766 0 0,0 -0.39965566404374897,0.4048490776613694 l -8.500647739237138 -8.537309660065501" fill="#ff930d" stroke="none" /><path d="M 114.81725581225074 114.88116024355365 l 11.435364296969212 11.484683176348703 a37.20695851372197,37.20695851372197 0 0,0 -0.45773426209390095,0.4479893157504159 l -11.235980082499516 -11.679822595021692" fill="#ffc912" stroke="none" /><path d="M 114.55890576462653 115.13401014063108 l 14.314446625329067 14.879894401927231 a41.64738820291564,41.64738820291564 0 0,0 -0.5209179272438552,0.4925604142667033 l -14.056192863694404 -15.124089452939856" fill="#fdff18" stroke="none" /><path d="M 113.75828350139079 115.86535959552629 l 21.84942059507447 25.1956513804729 a54.34993296585152,54.34993296585152 0 0,0 -0.7120734716489994,0.6068444606433333 l -21.412481646848423 -25.56802023133918" fill="#6cff28" stroke="none" /><path d="M 113.20401910651253 116.32954008644616 l 8.634053705702012 10.677819000295933 a34.731813499899694,34.731813499899694 0 0,0 -0.46812283692785533,0.37190509339173194 l -8.448973376056806 -10.824858007692791" fill="#ffa90f" stroke="none" /><path d="M 112.92097659922987 116.55440617244103 l 9.981110522007295 12.787838161024291 a37.221941070201,37.221941070201 0 0,0 -0.5084716934642289,0.3898744122030574 l -9.759510100049573 -12.95775191505472" fill="#ffc912" stroke="none" /><path d="M 112.63410532772338 116.77436683061366 l 9.34373414185035 12.405724030113822 a36.53085176108907,36.53085176108907 0 0,0 -0.5055435507230448,0.37398903298554464 l -9.12880562070874 -12.564723011839135" fill="#ffc011" stroke="none" /><path d="M 111.7513745106137 117.40417183066458 l 5.787903660021758 8.572075525919935 a31.34312852089583,31.34312852089583 0 0,0 -0.44973703066623616,0.2980611805148588 l -5.6394919306155575 -8.670434727526112" fill="#ff7c0b" stroke="none" /><path d="M 111.45004920935366 117.60387380957326 l 6.263315777192531 9.629532463592833 a32.48725467604062,32.48725467604062 0 0,0 -0.4714027476821681,0.3008715372198165 l -6.096631227463433 -9.735918429636458" fill="#ff8b0c" stroke="none" /><path d="M 111.1453310114006 117.79835938074945 l 7.306793024434021 11.668467095019643 a34.76743798422473,34.76743798422473 0 0,0 -0.5099568602002257,0.3132571545449735 l -7.1048569643014865 -11.792512716392995" fill="#ffa90f" stroke="none" /><line stroke="#e1ed5e" stroke-width="0.3" x1="143.8653032363475" x2="146.44561519142675" y1="172.8068346515853" y2="177.08958963109032" /><path d="M 144.38136562736335 173.6633856474863 a86.0,86.0 0 0,1 -40.68145358897372,12.25698825130547" fill="none" id="id66" stroke="none" /><text fill="#e1ed5e" style="font-size:6.75px; font-family:Arial;" text-anchor="middle"><textPath startOffset="21.466115282336833" xlink:href="#id66">June</textPath></text><path d="M 110.5260780823613 118.17145234162733 l 7.302219954488494 12.606019150990493 a35.56825779216132,35.56825779216132 0 0,0 -0.5324250331157439,0.30232482924292065 l -7.084146154451552 -12.72984714602804" fill="#ffb410" stroke="none" /><path d="M 108.92500713936063 119.00905698771935 l 5.342160741933108 11.378079187535343 a33.56977992609561,33.56977992609561 0 0,0 -0.5251784324174686,0.24108365994737427 l -5.145514313748219 -11.468349917816791" fill="#ff9a0e" stroke="none" /><path d="M 107.93186726928326 119.44442032107085 l 4.765909317850607 11.68329484625492 a33.61797408820061,33.61797408820061 0 0,0 -0.5376937601141545,0.21395944388395333 l -4.564094481694586 -11.763601134544944" fill="#ff9a0e" stroke="none" /><path d="M 107.59598834532513 119.57807347666477 l 5.9282297959912285 15.279554582768634 a37.389286035757756,37.389286035757756 0 0,0 -0.6020205253905576,0.22763264985406376 l -5.664339049840396 -15.37933548272933" fill="#ffcc13" stroke="none" /><path d="M 107.2578585660854 119.70592522655815 l 7.801465128005832 21.181879898908296 a43.57287961681598,43.57287961681598 0 0,0 -0.7060475533637055,0.25316353266750086 l -7.435698014012392 -21.313030972615756" fill="#e6ff1a" stroke="none" /><path d="M 106.91757812671514 119.82793768551818 l 3.775725906428475 10.822408741744212 a32.46213928958537,32.46213928958537 0 0,0 -0.5291796577348904,0.17952647123759674 l -3.5888765157563576 -10.885798199879932" fill="#ff8b0c" stroke="none" /><path d="M 106.57524785965236 119.94407469862006 l 5.21683913833188 15.823742570075012 a37.66151972417989,37.66151972417989 0 0,0 -0.617431302498651,0.19768200522217438 l -4.943686490742289 -15.911197421956894" fill="#ffcf13" stroke="none" /><line stroke="#e1ed5e" stroke-width="0.3" x1="102.19456741930631" x2="102.32365962044197" y1="184.97166512339345" y2="189.96999836594603" /><path d="M 102.22038585953345 185.97133177190398 a86.0,86.0 0 0,1 -42.740103519485714,-10.115201625700543" fill="none" id="id67" stroke="none" /><text fill="#e1ed5e" style="font-size:6.75px; font-family:Arial;" text-anchor="middle"><textPath startOffset="22.20632615414155" xlink:href="#id67">July</textPath></text><path d="M 99.81925306533755 120.99922214144158 l -0.08386554488987463 9.743519083432648 a30.74388000535905,30.74388000535905 0 0,0 -0.5291465487161705,-0.00910973770762551 l 0.25157178349871306 -9.740631868445863" fill="#ff730a" stroke="none" /><path d="M 99.09653310690486 120.98055641714683 l -0.4467920980500768 10.37552885613921 a31.385144304411828,31.385144304411828 0 0,0 -0.5395434080217667,-0.027888231310309684 l 0.6253235744853325 -10.3663008180667" fill="#ff7c0b" stroke="none" /><path d="M 98.37488393609728 120.93702456842531 l -0.8921766518554806 11.494271021120015 a32.52884406543325,32.52884406543325 0 0,0 -0.5578784774983387,-0.048136102468766685 l 1.089899447095361 -11.477210666372585" fill="#ff8c0c" stroke="none" /><path d="M 97.2962882734958 120.8252237178851 l -1.821077816992181 14.026773851210407 a35.14449394953885,35.14449394953885 0 0,0 -0.5992494505017747,-0.08305051346611349 l 2.062255858680787 -13.99334877225169" fill="#ffae10" stroke="none" /><path d="M 96.58105272829116 120.7198165907248 l -1.807606574599381 10.954622495586989 a32.10275621408285,32.10275621408285 0 0,0 -0.544449030677507,-0.09465944276998153 l 1.9959045767489378 -10.921884474296" fill="#ff860c" stroke="none" /><path d="M 94.11515582081647 120.15858648285463 l -4.649072577929049 15.925439786283892 a37.59016299562502,37.59016299562502 0 0,0 -0.6195664822693351,-0.18667029872639848 l 4.92251403463863 -15.843054118451768" fill="#ffce13" stroke="none" /><path d="M 93.76903079525671 120.05430185196036 l -4.142989547542269 13.334163631025737 a34.96296108030148,34.96296108030148 0 0,0 -0.5731905339220951,-0.18351750820138585 l 4.371901426555305 -13.260873276164643" fill="#ffac0f" stroke="none" /><path d="M 93.42475214034765 119.94407469862007 l -2.70396971555581 8.201694467028478 a29.635927532878476,29.635927532878476 0 0,0 -0.483108332713491,-0.16389657638915162 l 2.844747781206527 -8.153934903741204" fill="#ff6409" stroke="none" /><path d="M 92.40401165467489 119.57807347666478 l -6.269881149599843 16.16013456792202 a38.33382124297628,38.33382124297628 0 0,0 -0.6131201252521254,-0.2439731511951209 l 6.547122350893828 -16.049814572320834" fill="#ffd814" stroke="none" /><path d="M 91.7346041902142 119.30500536409082 l -4.44554884686141 10.38321047291883 a32.29486450891564,32.29486450891564 0 0,0 -0.5091505692205419,-0.22319664699031486 l 4.623620090739695 -10.305149272634063" fill="#ff890c" stroke="none" /><path d="M 91.40352486487194 119.15986991738527 l -7.054286445050716 15.722631488206193 a38.23264629018884,38.23264629018884 0 0,0 -0.5981260910871941,-0.27457035218592674 l 7.3238805319053295 -15.598874065686193" fill="#ffd614" stroke="none" /><path d="M 90.7491055286396 118.85261126421891 l -3.958875874375668 8.067884476896829 a29.986849176506,29.986849176506 0 0,0 -0.4614349110616355,-0.23137304363792302 l 4.097164693120064 -7.998543592349605" fill="#ff6909" stroke="none" /><path d="M 90.42595943632237 118.69057910512821 l -3.072719322162111 5.998606667346959 a27.739798660370187,27.739798660370187 0 0,0 -0.42310999395237625,-0.2213511514226095 l 3.1755202186409828 -5.944826096979633" fill="#ff4a06" stroke="none" /><path d="M 90.10565033884886 118.52300852407294 l -7.745270856253237 14.499762289070059 a37.438744692836615,37.438744692836615 0 0,0 -0.5658192151323972,-0.3085297502607062 l 7.9937128832542745 -14.364291887049587" fill="#ffcc13" stroke="none" /><line stroke="#e1ed5e" stroke-width="0.3" x1="58.666819895761336" x2="56.23545636021788" y1="174.27360380694188" y2="178.64263932499728" /><path d="M 58.180547188652646 175.14741091055294 a86.0,86.0 0 0,1 -31.652253787137756,-30.449443065178592" fill="none" id="id68" stroke="none" /><text fill="#e1ed5e" style="font-size:6.75px; font-family:Arial;" text-anchor="middle"><textPath startOffset="22.20632615414155" xlink:href="#id68">August</textPath></text><path d="M 89.4739219176387 118.17145234162733 l -7.123818997356705 12.298040769597591 a35.212339845281804,35.212339845281804 0 0,0 -0.5218672141009136,-0.3083283487441957 l 7.334454082486 -12.173593848559646" fill="#ffaf10" stroke="none" /><path d="M 89.1626897886671 117.98757091392108 l -9.273207896995073 15.391502263384634 a38.969160431825024,38.969160431825024 0 0,0 -0.5715862844846172,-0.3511149805579293 l 9.536773381411999 -15.229598815998326" fill="#ffe015" stroke="none" /><path d="M 88.8546689885994 117.79835938074946 l -9.05395310712277 14.458566645727073 a38.05943188722618,38.05943188722618 0 0,0 -0.5522572142758772,-0.3524766832966049 l 9.30149212344557 -14.300575533606663" fill="#ffd413" stroke="none" /><path d="M 87.95078237400918 117.19931262002967 l -17.85116334320732 25.481134833913302 a52.11193123433418,52.11193123433418 0 0,0 -0.7302436788229854,-0.521009475667996 l 18.28713434987919 -25.170081096401088" fill="#84ff25" stroke="none" /><path d="M 87.36589467227662 116.77436683061367 l -6.936460878107919 9.209574897263392 a32.52956023887406,32.52956023887406 0 0,0 -0.44437125272731043,-0.3407249276290028 l 7.093960859328717 -9.088810627807023" fill="#ff8c0c" stroke="none" /><path d="M 87.07902340077011 116.55440617244103 l -11.614880747144712 14.881031016197264 a39.877249240167856,39.877249240167856 0 0,0 -0.5374741242129494,-0.42700195032754396 l 11.86931236407502 -14.67889515186459" fill="#ffeb16" stroke="none" /><path d="M 86.51685102203217 116.09983520530335 l -5.217217451632536 6.229727294326486 a29.12581442683104,29.12581442683104 0 0,0 -0.38159605103005945,-0.3252044332373507 l 5.323678979239652 -6.138998470866184" fill="#ff5d08" stroke="none" /><path d="M 85.97065885151581 115.62618273729859 l -19.440735801268875 21.653510807312063 a50.100115786318064,50.100115786318064 0 0,0 -0.6367496892919488,-0.5816557439787763 l 19.810585040027682 -21.31566229674671" fill="#9aff22" stroke="none" /><path d="M 85.44109423537348 115.13401014063109 l -6.9057434819614825 7.178533440235038 a30.96095554609226,30.96095554609226 0 0,0 -0.3808935399916121,-0.3727844963451583 l 7.028286974328888 -7.05859884096731" fill="#ff760a" stroke="none" /><path d="M 85.18274418774928 114.88116024355367 l -10.155445817809335 10.199244615497522 a35.39297295506444,35.39297295506444 0 0,0 -0.428017966147361,-0.43357993995121774 l 10.329504409012229 -10.022924181565639" fill="#ffb210" stroke="none" /><path d="M 84.19399662182784 113.82643327865904 l -13.73808025862884 12.017500283158894 a39.252538515183346,39.252538515183346 0 0,0 -0.4404835580697317,-0.5123818915740865 l 13.942906326269352 -11.779241292423276" fill="#ffe315" stroke="none" /><path d="M 83.50135304334701 112.99209946851258 l -13.277704104655358 10.455721180917713 a37.900282000720374,37.900282000720374 0 0,0 -0.39920400019390917,-0.5160249834913978 l 13.455714922067337 -10.225618203313061" fill="#ffd213" stroke="none" /><path d="M 83.06392112726016 112.41649034213515 l -14.759681245330137 10.820889593907953 a39.30136175445138,39.30136175445138 0 0,0 -0.39529722808078954,-0.5490332761316113 l 14.943758265786533 -10.5652227123252" fill="#ffe415" stroke="none" /><path d="M 82.6465618267979 111.8261652097733 l -25.384867685445904 17.299490514790826 a51.719112608910656,51.719112608910656 0 0,0 -0.4950181440620848,-0.7399849604290387 l 25.67888893491872 -16.859968640155962" fill="#89ff24" stroke="none" /><path d="M 82.05923443525364 110.91462005526583 l -11.175412042996 6.7987832498087615 a34.08102778869536,34.08102778869536 0 0,0 -0.3005932439203038,-0.5038115669015165 l 11.290786162614534 -6.605409589021133" fill="#ffa00e" stroke="none" /><line stroke="#e1ed5e" stroke-width="0.3" x1="26.63291911575756" x2="22.317208475507996" y1="142.92168965132927" y2="145.44649492493687" /><path d="M 25.769776987707644 143.4266507060508 a86.0,86.0 0 0,1 -11.730757126820373,-40.83630448921669" fill="none" id="id69" stroke="none" /><text fill="#e1ed5e" style="font-size:6.75px; font-family:Arial;" text-anchor="middle"><textPath startOffset="21.46611528233685" xlink:href="#id69">September</textPath></text><path d="M 81.87401531095188 110.60418214915194 l -18.712276794982873 10.947178592688513 a42.679253261869334,42.679253261869334 0 0,0 -0.3655132621359211,-0.6373031817385401 l 18.897942053271173 -10.623455565091666" fill="#f1ff19" stroke="none" /><path d="M 81.35079622478065 109.6543875284942 l -1.4466090705532866 0.7488858365049401 a22.628959115240388,22.628959115240388 0 0,0 -0.17609783809356044,-0.3474577409648285 l 1.4592855784331138 -0.7238738838374266" fill="#ff0000" stroke="none" /><path d="M 81.02952815118164 109.00673069616217 l -11.39867834584519 5.411822487673001 a33.61814925692842,33.61814925692842 0 0,0 -0.24369217389389639,-0.5248912626939066 l 11.490145136578912 -5.214811157700267" fill="#ff9a0e" stroke="none" /><path d="M 80.87730276802145 108.67885076344099 l -11.851722660773623 5.378913393584263 a34.015223368178326,34.015223368178326 0 0,0 -0.23739210664111599,-0.5352565307898597 l 11.94255585214602 -5.1741085263017075" fill="#ffa00e" stroke="none" /><path d="M 80.73074385275274 108.34839909993369 l -21.183533430026188 9.177759124132553 a44.08621560848888,44.08621560848888 0 0,0 -0.2956904862571465,-0.6989249639542929 l 21.338374897475642 -8.811759634512102" fill="#e0ff1b" stroke="none" /><path d="M 80.32549172779594 107.34259656027581 l -38.19509765081778 14.254546479645029 a61.76834041135187,61.76834041135187 0 0,0 -0.3631853085129778,-0.9993299871444229 l 38.43480722033598 -13.594968695494488" fill="#31ff40" stroke="none" /><path d="M 79.97269907076064 106.31721596034903 l -10.39543268341073 3.279033629863691 a31.900324867686333,31.900324867686333 0 0,0 -0.16067620568372062,-0.5250991368374442 l 10.450335661600581 -3.099607520474199" fill="#ff830c" stroke="none" /><path d="M 79.86692584326677 105.97154293290107 l -19.634864462182183 5.823772127636143 a41.48033750314912,41.48033750314912 0 0,0 -0.19714490986970284,-0.6862872942388341 l 19.73220200893799 -5.484927357892714" fill="#ffff18" stroke="none" /><path d="M 79.76711848015287 105.62410040840567 l -13.850082527445716 3.849884393513133 a35.375200724180274,35.375200724180274 0 0,0 -0.15802931570148915,-0.5880858720736465 l 13.914299919488977 -3.610907588263948" fill="#ffb110" stroke="none" /><path d="M 79.67330655649465 105.27499134158121 l -5.8613673128398105 1.5210866396440912 a27.055520732466427,27.055520732466427 0 0,0 -0.1131032669602838,-0.45179132911822195 l 5.886681894095155 -1.4199674711284773" fill="#ff4006" stroke="none" /><path d="M 79.58551787078972 104.9243191809786 l -17.463578847513073 4.212511282090872 a38.964460400052346,38.964460400052346 0 0,0 -0.1516634734248368,-0.6533622741123211 l 17.53350288686846 -3.9112803506299767" fill="#ffe014" stroke="none" /><path d="M 79.4281124754447 104.21870165774334 l -15.24076581076956 3.1254421313759098 a36.55793466419312,36.55793466419312 0 0,0 -0.1211113316599582,-0.6175440708985278 l 15.292307075405184 -2.8626343334094266" fill="#ffc111" stroke="none" /><path d="M 79.29508885075956 103.50808413554451 l -27.3541030443605 4.634673109210187 a48.74395696707174,48.74395696707174 0 0,0 -0.1330437189924424,-0.8284633651660994 l 27.429828517714235 -4.163130514350874" fill="#aaff21" stroke="none" /><path d="M 79.23777060512086 103.15116336523772 l -15.120693404412743 2.294925761909224 a36.29385671709153,36.29385671709153 0 0,0 -0.08842902958083669,-0.6184724269288455 l 15.157956485010178 -2.034307862999978" fill="#ffbd11" stroke="none" /><path d="M 79.18660465613746 102.79330883721812 l -7.0108438556198776 0.9409061700273788 a28.073700303849364,28.073700303849364 0 0,0 -0.060155911596643935,-0.4795018033546166 l 7.0260012764633695 -0.8200866123853535" fill="#ff4e07" stroke="none" /><path d="M 79.1416061653843 102.43462659150553 l -31.093007992360036 3.629227862332599 a52.304096231798425,52.304096231798425 0 0,0 -0.09668212560885331,-0.8951564079143173 l 31.15087241946994 -3.0934751325334995" fill="#82ff25" stroke="none" /><path d="M 79.07016306316243 101.71520430193888 l -18.278133361529253 1.497896666262539 a39.339407122495786,39.339407122495786 0 0,0 -0.04949916744195694,-0.6753768124738285 l 18.301209087635545 -1.1830467172919497" fill="#ffe415" stroke="none" /><path d="M 79.04373962182676 101.35467743843564 l -20.268602754622773 1.3102251243690373 a41.31090710680421,41.31090710680421 0 0,0 -0.039764008608319815,-0.7100130856516674 l 20.288153114118625 -0.9611403223819324" fill="#fffd17" stroke="none" /><line stroke="#e1ed5e" stroke-width="0.3" x1="15.007084014347285" x2="10.007500721073583" y1="101.09737516637583" y2="101.16192664675087" /><path d="M 14.007167355692545 101.11028546245083 a86.0,86.0 0 0,1 10.666146001902534,-42.60595125391555" fill="none" id="id70" stroke="none" /><text fill="#e1ed5e" style="font-size:6.75px; font-family:Arial;" text-anchor="middle"><textPath startOffset="22.20632615414155" xlink:href="#id70">October</textPath></text><path d="M 79.00175016825051 100.2711162175752 l -23.61408403920862 0.3048902264479744 a44.61605223277148,44.61605223277148 0 0,0 -0.003305205399533225,-0.7680133334341255 l 23.615833541897658 0.10163258518982646" fill="#d9ff1c" stroke="none" /><path d="M 79.01574976396665 99.18683210126434 l -14.429917177917705 -0.5591786839421011 a35.44074757629049,35.44074757629049 0 0,0 0.02886968154941442,-0.6093933487036193 l 14.418153888134793 0.8074831392687296" fill="#ffb210" stroke="none" /><path d="M 79.16333360222342 97.38593545837743 l -11.200459355795982 -1.4051539287971329 a32.288257055207936,32.288257055207936 0 0,0 0.07393088488873908,-0.5508709652182074 l 11.174612471849407 1.5977432360799997" fill="#ff880c" stroke="none" /><path d="M 79.62865764111835 94.90015583598534 l -12.2813539143414 -3.0745637662382763 a33.660355299989575,33.660355299989575 0 0,0 0.14554684437084736,-0.5608513636553142 l 12.226610738100245 3.2855115554424543" fill="#ff9b0e" stroke="none" /><path d="M 80.14247586403 93.16781622104843 l -15.637824466002076 -5.380353055252245 a37.537525601753586,37.537525601753586 0 0,0 0.2154777650149664,-0.6091846582452132 l 15.542893620177301 5.64873533992407" fill="#ffcd13" stroke="none" /><path d="M 80.65960295795067 91.81776055985345 l -13.948093059032173 -5.900945926514148 a36.14498143977289,36.14498143977289 0 0,0 0.2473509345456822,-0.5709200601178172 l 13.844451414643812 6.140165131218565" fill="#ffbb11" stroke="none" /><path d="M 81.10775173730289 90.83032412892265 l -11.776903883583046 -5.716121759341704 a34.090817890826116,34.090817890826116 0 0,0 0.2607785021138034,-0.5257135473415283 l 11.676765368515829 5.917994895182194" fill="#ffa10e" stroke="none" /><path d="M 81.43458229118936 90.18545643968196 l -26.500573407133164 -14.009436047015646 a50.975735007873865,50.975735007873865 0 0,0 0.41676765891606443,-0.7722071759337753 l 26.255497648998627 14.463524206281894" fill="#91ff24" stroke="none" /><line stroke="#e1ed5e" stroke-width="0.3" x1="26.266209847984243" x2="21.928928074336255" y1="57.711370442889674" y2="55.22380399835377" /><path d="M 25.398753493254645 57.213857153982495 a86.0,86.0 0 0,1 29.58750427330803,-30.492523968695096" fill="none" id="id71" stroke="none" /><text fill="#e1ed5e" style="font-size:6.75px; font-family:Arial;" text-anchor="middle"><textPath startOffset="21.46611528233685" xlink:href="#id71">November</textPath></text><path d="M 81.96595687620814 89.24020034530311 l -14.920308535584812 -8.902026546524157 a38.37416712916236,38.37416712916236 0 0,0 0.3433285598806607,-0.5643418802772904 l 14.764864177417932 9.15753620000852" fill="#ffd814" stroke="none" /><path d="M 82.34701348167596 88.62581576622439 l -10.26449211561515 -6.613624514353732 a33.210644029222465,33.210644029222465 0 0,0 0.31376683415848255,-0.4778884147285228 l 10.149128646098747 6.789330993059922" fill="#ff950d" stroke="none" /><path d="M 82.7489923806493 88.02491185347247 l -28.884999238568184 -20.051026561847486 a56.16229297409368,56.16229297409368 0 0,0 0.5581124660271746,-0.7894105031692747 l 28.53557415273713 20.545263565348545" fill="#59ff2a" stroke="none" /><path d="M 83.39014120810768 87.1503855733568 l -12.378315221678648 -9.576034320512017 a36.65001984135692,36.65001984135692 0 0,0 0.3903155896985463,-0.4956611617484325 l 12.21164555138613 9.787687876213496" fill="#ffc212" stroke="none" /><path d="M 84.80347519578584 85.50635884689758 l -8.349615354671394 -7.963421260858403 a32.53829080708473,32.53829080708473 0 0,0 0.3900500282935086,-0.4019808405219068 l 8.211301062674773 8.105966296930433" fill="#ff8c0c" stroke="none" /><path d="M 86.65592168130627 83.78471172551755 l -9.990217753102092 -12.139786422301258 a36.72192307364103,36.72192307364103 0 0,0 0.4915432273417308,-0.39746043863685815 l 9.779771127195861 12.309952958202253" fill="#ffc312" stroke="none" /><path d="M 86.93701828274178 83.55741782278169 l -9.568642961191387 -12.04420258860114 a36.382514232531165,36.382514232531165 0 0,0 0.4937062913200112,-0.38534559141470126 l 9.359904114711949 12.20712656923906" fill="#ffbf11" stroke="none" /><path d="M 87.22198572758235 83.33499621200491 l -5.700503308859546 -7.434559643643964 a30.36847986971302,30.36847986971302 0 0,0 0.4175721603281211,-0.3145066939803808 l 5.571684994773035 7.531582927130199" fill="#ff6e0a" stroke="none" /><path d="M 87.51073957382395 83.11751280151077 l -5.343120461525915 -7.222618450860195 a29.98416126041174,29.98416126041174 0 0,0 0.41757182837194806,-0.30338369180917674 l 5.218003316800186 7.3135213774860395" fill="#ff6909" stroke="none" /><path d="M 87.80319425747018 82.90503203632743 l -13.79091829343562 -19.329266317150363 a44.74468285186266,44.74468285186266 0 0,0 0.6308336791257865,-0.4419393061522198 l 13.456153474726174 19.563790466066525" fill="#d8ff1c" stroke="none" /><path d="M 89.00827224532344 82.1063720568725 l -10.370850041569383 -16.882890136981157 a40.81379595034973,40.81379595034973 0 0,0 0.6017856879943267,-0.36256914359056275 l 10.078702287357409 17.05890589003034" fill="#fff717" stroke="none" /><line stroke="#e1ed5e" stroke-width="0.3" x1="56.76296977257108" x2="54.21961505331056" y1="26.818313649435495" y2="22.513508569990535" /><path d="M 56.25429882871898 25.957352633546506 a86.0,86.0 0 0,1 42.26535254187918,-11.944610805530505" fill="none" id="id72" stroke="none" /><text fill="#e1ed5e" style="font-size:6.75px; font-family:Arial;" text-anchor="middle"><textPath startOffset="22.20632615414155" xlink:href="#id72">December</textPath></text><path d="M 89.3179101791058 81.91981866633112 l -7.649292761223131 -12.946960989479651 a36.03780165483002,36.03780165483002 0 0,0 0.5367972434474971,-0.31094761126939413 l 7.425298785310311 13.076712758139092" fill="#ffba11" stroke="none" /><path d="M 90.58718382345135 81.22770947309562 l -11.432782720246783 -22.800776593316897 a46.50654688480432,46.50654688480432 0 0,0 0.7187005112497985,-0.3526632195882239 l 11.038610941986558 22.994194973039953" fill="#c3ff1e" stroke="none" /><path d="M 90.91171255644093 81.06846463323043 l -4.488435435884777 -9.349723446097137 a31.371276738213318,31.371276738213318 0 0,0 0.48882691848062604,-0.2295107926800252 l 4.326830306104543 9.425599221417169" fill="#ff7c0b" stroke="none" /><path d="M 91.23893434514133 80.91482961587045 l -5.068289177787129 -11.040798725262789 a33.14853043299635,33.14853043299635 0 0,0 0.5206180039690721,-0.23358612273036108 l 4.877489055351283 11.126405178509678" fill="#ff940d" stroke="none" /><path d="M 91.56875222667455 80.76684994638697 l -5.73900784289131 -13.09168013664659 a35.29434502945255,35.29434502945255 0 0,0 0.5585182910209516,-0.2391283843349905 l 5.51280579408005 13.188528048944367" fill="#ffb010" stroke="none" /><path d="M 91.90106846888425 80.62456947434976 l -9.759341845708441 -23.347703234817285 a46.3053353979451,46.3053353979451 0 0,0 0.7380544134196368,-0.3010709266765556 l 9.356003562700424 23.512235047677418" fill="#c6ff1e" stroke="none" /><path d="M 92.57280143429618 80.3572730644239 l -10.977349128651198 -29.03181724617683 a52.03785763398804,52.03785763398804 0 0,0 0.8405790970656964,-0.30959237538810885 l 10.475987705812933 29.21647288937126" fill="#85ff25" stroke="none" /><path d="M 93.25333710446033 80.11325718540243 l -5.4574338766876265 -16.08655799374687 a37.98708134449821,37.98708134449821 0 0,0 0.6210294075448166,-0.2047436316021565 l 5.179721646900401 16.17811534960826" fill="#ffd313" stroke="none" /><path d="M 93.59665428221793 80.00007090966166 l -2.290330664311589 -7.153518316597349 a28.51122086333372,28.51122086333372 0 0,0 0.46869002304275453,-0.14562427162550987 l 2.1668552685581055 7.191882723105384" fill="#ff5507" stroke="none" /></svg>