<?xml version="1.0" encoding="utf-8" ?>
<svg baseProfile="full" height="200mm" version="1.1" viewBox="0,0,200,200" width="200mm" xmlns="http://www.w3.org/2000/svg" xmlns:ev="http://www.w3.org/2001/xml-events" xmlns:xlink="http://www.w3.org/1999/xlink"><defs /><rect fill="#1a1a1a" height="200" width="200" x="0" y="0" /><text alignment-baseline="middle" fill="#e1ed5e" style="dominant-baseline: central; font-size:9.0px; font-family:Arial;" text-anchor="middle" x="100.0" y="100.0">2023</text><line stroke="#e1ed5e" stroke-width="0.3" x1="100.0" x2="100.0" y1="15.0" y2="10.0" /><path d="M 100.0 14.0 a86.0,86.0 0 0,1 42.46469731375804,11.215312516191453" fill="none" id="id73" stroke="none" /><text fill="#e1ed5e" style="font-size:6.75px; font-family:Arial;" text-anchor="middle"><textPath startOffset="22.20632615414155" xlink:href="#id73">January</textPath></text><path d="M 100.0 79.0 l 0.0 -24.196737392596205 a45.196737392596205,45.196737392596205 0 0,0 0.7779875378204896,0.006696384357452467 l -0.41650705854796116 24.193152384847313" fill="#d4ff1c" stroke="none" /><path d="M 101.44485096284872 79.0497635885617 l 0.9887984738487479 -14.337507689760026 a35.37156390849004,35.37156390849004 0 0,0 0.6070599357246068,0.047119534586856186 l -1.2354485989356958 14.318362892984705" fill="#ffaf10" stroke="none" /><path d="M 102.52436894288641 79.15227682838746 l 1.937714872142635 -16.002788876714547 a37.11967712947197,37.11967712947197 0 0,0 0.6336598825457074,0.08226723891483191 l -2.2128894831961885 15.967063314635578" fill="#ffc612" stroke="none" /><path d="M 103.59715602781102 79.31037775812273 l 2.630654357471498 -15.130632222854725 a36.35761615003362,36.35761615003362 0 0,0 0.615664080381901,0.11250867546402618 l -2.8907135589562998 15.08310806603996" fill="#ffbc11" stroke="none" /><path d="M 103.95276090670814 79.375362276772 l 1.80646433263094 -9.425733885704284 a30.597279441028157,30.597279441028157 0 0,0 0.5164144577533961,0.10358788205034612 l -1.9684451998514614 9.393242047576729" fill="#ff6f0a" stroke="none" /><path d="M 105.71112130821622 79.79150937346287 l 2.6460724634870894 -9.362982799645412 a30.72970433201752,30.72970433201752 0 0,0 0.507786095698898,0.1482366857460729 l -2.8068487769094146 9.316047784980636" fill="#ff710a" stroke="none" /><path d="M 107.76421540070413 80.48803036053334 l 1.2993108249253131 -3.2652511631598875 a24.51426717514265,24.51426717514265 0 0,0 0.39072955470191234,0.15938839599775942 l -1.3553242492156128 3.2424018809785484" fill="#ff1902" stroke="none" /><path d="M 109.08828744355905 81.06846463323043 l 5.135431199685318 -10.697460658482607 a32.86626808000243,32.86626808000243 0 0,0 0.5079070637189845,0.2492277903507462 l -5.318809530414734 10.607477707997027" fill="#ff8e0d" stroke="none" /><path d="M 109.41281617654863 81.2277094730956 l 6.685795413486638 -13.333702852724329 a35.91601461771032,35.91601461771032 0 0,0 0.5502667157551069,0.2818679842849597 l -6.914322616830501 13.216642343126868" fill="#ffb710" stroke="none" /><path d="M 109.73455568895987 81.39251694778311 l 10.812491706623277 -20.66794444572393 a44.325391840595685,44.325391840595685 0 0,0 0.6730176549022626,0.35950272317138166 l -11.16665440805385 20.478762996050794" fill="#deff1b" stroke="none" /><path d="M 110.36928655335952 81.73862282372117 l 7.889895743971899 -13.894915655070566 a36.978708831200066,36.978708831200066 0 0,0 0.5508124262672667,0.31906610977606253 l -8.127904902704493 13.757045387904453" fill="#ffc412" stroke="none" /><line stroke="#e1ed5e" stroke-width="0.3" x1="143.23703022742887" x2="145.7803849466894" y1="26.81831364943548" y2="22.513508569990506" /><path d="M 143.74570117128098 25.957352633546492 a86.0,86.0 0 0,1 28.547481713284135,27.462654790039103" fill="none" id="id74" stroke="none" /><text fill="#e1ed5e" style="font-size:6.75px; font-family:Arial;" text-anchor="middle"><textPath startOffset="19.985693538727396" xlink:href="#id74">February</textPath></text><path d="M 110.68208982089419 81.91981866633111 l 15.176245240519997 -25.68685252731397 a50.83509363753333,50.83509363753333 0 0,0 0.7495463503599401,0.4515932893605073 l -15.616153657097573 25.42181262849485" fill="#93ff23" stroke="none" /><path d="M 110.99172775467656 82.1063720568725 l 0.9497527436728251 -1.5461192828411854 a22.81452889502686,22.81452889502686 0 0,0 0.33285403338503916,0.20843316516962382 l -0.9762259294301275 1.5295417763486174" fill="#ff0000" stroke="none" /><path d="M 111.2981086023043 82.29822771554956 l 8.4365675814827 -13.218336223049285 a36.681201645999636,36.681201645999636 0 0,0 0.5293149348854204,0.34428115750227717 l -8.6628495421524 13.071156141387478" fill="#ffc111" stroke="none" /><path d="M 111.90073688211348 82.69761687909136 l 22.062958277434934 -32.07715292576132 a59.93222145953802,59.93222145953802 0 0,0 0.8449554528450325,0.591945292263653 l -22.611844869863617 31.69262279073373" fill="#34ff2f" stroke="none" /><path d="M 113.06298171725822 83.55741782278167 l 14.625439223037642 -18.409272209651586 a44.511800776542366,44.511800776542366 0 0,0 0.595815043907643,0.4817743293477076 l -14.940157665509776 18.15479178303975" fill="#dcff1b" stroke="none" /><path d="M 113.34407831869373 83.78471172551755 l 11.484056412426158 -13.955050385685835 a39.07282443202547,39.07282443202547 0 0,0 0.5156542286216912,0.4318455870489338 l -11.722568178006968 13.755303641243081" fill="#ffdf14" stroke="none" /><path d="M 113.89432698308785 84.25364557470407 l 24.41998993589753 -27.67502283923839 a57.908573497518205,57.908573497518205 0 0,0 0.7417509521344022,0.6659513285907923 l -24.89275187562792 27.250572501878302" fill="#48ff2c" stroke="none" /><path d="M 114.42810811169701 84.74124197986012 l 13.656583471421508 -14.442815437688944 a40.87705184072953,40.87705184072953 0 0,0 0.5071027122016136,0.4878324073609999 l -13.90316942723554 14.205599943565641" fill="#fff617" stroke="none" /><path d="M 114.68862486808459 84.99185889309783 l 12.213399392456138 -12.479072964495797 a38.461225236874355,38.461225236874355 0 0,0 0.4691613803518238,0.4671466522855974 l -12.426396572975284 12.266990461560082" fill="#ffd714" stroke="none" /><path d="M 115.19652480421416 85.50635884689758 l 24.318859727889258 -23.19404144629944 a54.60610803228202,54.60610803228202 0 0,0 0.6428768726472047,0.6857762244463654 l -24.714503922506925 22.77199580497502" fill="#6bff28" stroke="none" /><path d="M 115.68641384162765 86.03803664274999 l 35.96064261765484 -32.00739057377585 a69.14188268874545,69.14188268874545 0 0,0 0.7836347927365401,0.8958300330689686 l -36.50626927396923 31.38364498450394" fill="#3aff95" stroke="none" /><path d="M 116.38621287248628 86.86637796730983 l 10.55774767645802 -8.46208142040775 a34.53044189837733,34.53044189837733 0 0,0 0.3677424964694907,0.46699562568104036 l -10.701844253521475 8.279093400773672" fill="#ffa40f" stroke="none" /><path d="M 117.04232023915458 87.72973835380427 l 5.998466114700645 -4.318822065912975 a28.39146939155055,28.39146939155055 0 0,0 0.282140065106711,0.3990671133822262 l -6.07191879961124 4.214928452198955" fill="#ff5107" stroke="none" /><path d="M 117.2510076193507 88.02491185347247 l 19.456549173774906 -13.506103325921053 a44.68485028033694,44.68485028033694 0 0,0 0.43317820344439245,0.6356355621718183 l -19.686151842888034 13.16918974047883" fill="#daff1c" stroke="none" /><path d="M 117.65298651832404 88.62581576622439 l 16.121032315300447 -10.38711446375057 a40.177586651975204,40.177586651975204 0 0,0 0.36958099955230744,0.5845883862227302 l -16.297440911098708 10.108078429813634" fill="#ffed16" stroke="none" /><line stroke="#e1ed5e" stroke-width="0.3" x1="172.23445277983987" x2="176.4835382374775" y1="55.19839476539836" y2="52.563006222186495" /><path d="M 173.08426987136738 54.67131705675599 a86.0,86.0 0 0,1 12.851231095245387,41.99856678651699" fill="none" id="id75" stroke="none" /><text fill="#e1ed5e" style="font-size:6.75px; font-family:Arial;" text-anchor="middle"><textPath startOffset="22.20632615414155" xlink:href="#id75">March</textPath></text><path d="M 117.84615892207809 88.93136811851018 l 20.030098503888794 -12.42316555946643 a44.56989369075306,44.56989369075306 0 0,0 0.39876089983595253,0.6554580722113771 l -20.240975202010972 12.076539714047971" fill="#dbff1b" stroke="none" /><path d="M 118.56541770881063 90.18545643968196 l 31.692043580154476 -16.753888714570188 a56.84799036691754,56.84799036691754 0 0,0 0.4498857020374415,0.8690359805934134 l -31.975738715352033 16.20588001171643" fill="#53ff2b" stroke="none" /><path d="M 119.04729006885535 91.15688171328212 l 19.806691780025435 -9.195687031916634 a42.8372548471159,42.8372548471159 0 0,0 0.30475174389570236,0.6714800712997249 l -19.962045840884485 8.853384951774846" fill="#f0ff19" stroke="none" /><path d="M 119.61058180528143 92.48833698450437 l 29.440753744418725 -11.277024988147264 a52.526643868683564,52.526643868683564 0 0,0 0.31614889363861154,0.8471218556106265 l -29.63050722655896 10.768579995507304" fill="#81ff25" stroke="none" /><path d="M 120.08093135843002 93.85539295169968 l 17.492819725997002 -5.352665245672727 a39.29343508470901,39.29343508470901 0 0,0 0.19233968613962976,0.648473804483001 l -17.582365309248335 5.050762054443196" fill="#ffe215" stroke="none" /><path d="M 120.28053869075195 94.5502522615342 l 30.459237652140988 -8.184948340935462 a52.539792924072685,52.539792924072685 0 0,0 0.22718123429907217,0.8754219688122024 l -30.595615218310364 7.6594299465744085" fill="#81ff25" stroke="none" /><path d="M 120.83666639777658 97.38593545837742 l 62.50999919332973 -7.84219362486773 a84.0,84.0 0 0,0 0.16763858798564435,1.436225046700589 l -62.63572813431897 6.7650248398422885" fill="#4dd2ff" stroke="none" /><path d="M 120.96714384426684 98.82574320788733 l 9.971359914261328 -0.5584421604053139 a30.986985340244363,30.986985340244363 0 0,0 0.025241690994910554,0.5328122021713413 l -9.979495213489734 0.3867188516109729" fill="#ff750a" stroke="none" /><line stroke="#e1ed5e" stroke-width="0.3" x1="184.98032266829074" x2="189.97916517819016" y1="98.17113171792111" y2="98.06355123074" /><path d="M 185.9800911702706 98.14961562048488 a86.0,86.0 0 0,1 -9.607161424134198,41.387399972396054" fill="none" id="id76" stroke="none" /><text fill="#e1ed5e" style="font-size:6.75px; font-family:Arial;" text-anchor="middle"><textPath startOffset="21.466115282336823" xlink:href="#id76">April</textPath></text><path d="M 120.99980553446 99.90962569577887 l 13.064617110533298 -0.05622460071558368 a34.06473809345465,34.06473809345465 0 0,0 -0.00252355263735035,0.5863847594408448 l -13.063649260606445 -0.1686696369289458" fill="#ff9e0e" stroke="none" /><path d="M 120.5718875245553 104.21870165774334 l 12.540997267125155 2.5717973568261208 a33.801982428460775,33.801982428460775 0 0,0 -0.12179330921280801,0.568977793561827 l -12.494869919187904 -2.787288969804117" fill="#ff9b0e" stroke="none" /><path d="M 120.41448212921028 104.9243191809786 l 13.401473735753498 3.232662663331778 a34.78584804010947,34.78584804010947 0 0,0 -0.1454192324082354,0.5808775471723356 l -13.343843189050201 -3.4628680499015094" fill="#ffa80f" stroke="none" /><path d="M 120.23288151984713 105.62410040840565 l 17.30817716489946 4.811125205590787 a38.964407101694675,38.964407101694675 0 0,0 -0.18518736800555655,0.6446615223276186 l -17.222797160007804 -5.108344203422988" fill="#ffde14" stroke="none" /><path d="M 120.13307415673323 105.97154293290107 l 16.47833062641663 4.887532725114248 a38.187883999275854,38.187883999275854 0 0,0 -0.19234551151261048,0.6285962606600257 l -16.391758342397885 -5.170455958326331" fill="#ffd413" stroke="none" /><path d="M 119.9155931802556 106.66101706037122 l 10.15495532144259 3.3964507123241248 a31.70789405166778,31.70789405166778 0 0,0 -0.17757805104555824,0.5161249387815452 l -10.0949864394538 -3.5707483541949703" fill="#ff7e0b" stroke="none" /><path d="M 119.67450827220406 107.3425965602758 l 9.96284782026933 3.718170290385899 a31.634055059014585,31.634055059014585 0 0,0 -0.19478401327545491,0.5085195939726707 l -9.897369527400368 -3.889113451191714" fill="#ff7d0b" stroke="none" /><path d="M 119.41010516605496 108.01547362559984 l 12.100195912300046 4.996819974435234 a34.091331138312775,34.091331138312775 0 0,0 -0.22865383527044955,0.5404701233283177 l -12.012391095837287 -5.204364623429715" fill="#ff9f0e" stroke="none" /><path d="M 119.12269723197855 108.67885076344098 l 17.783691509451295 8.071141992223614 a40.52954215443786,40.52954215443786 0 0,0 -0.2937916706555005,0.6328011216579469 l -17.64212522195596 -8.376063181160392" fill="#fff116" stroke="none" /><path d="M 118.97047184881838 109.00673069616215 l 18.260253799860877 8.669535988856424 a41.21380031308834,41.21380031308834 0 0,0 -0.309784007712022,0.638246810878958 l -18.10831653553414 -8.982571755700658" fill="#fffa17" stroke="none" /><path d="M 118.64920377521936 109.65438752849418 l 21.212457093941758 10.981341814099 a44.88636020829459,44.88636020829459 0 0,0 -0.36111609390977795,0.6830955595241032 l -21.020288491807086 -11.344852388709239" fill="#d8ff1c" stroke="none" /><line stroke="#e1ed5e" stroke-width="0.3" x1="174.80103733775053" x2="179.2010983576182" y1="140.37084112569926" y2="142.7455964860345" /><path d="M 175.68104954172406 140.8457921977663 a86.0,86.0 0 0,1 -30.038265399797805,32.042727171017184" fill="none" id="id77" stroke="none" /><text fill="#e1ed5e" style="font-size:6.75px; font-family:Arial;" text-anchor="middle"><textPath startOffset="22.206326154141568" xlink:href="#id77">May</textPath></text><path d="M 118.12598468904814 110.60418214915192 l 7.147401186387781 4.181419402793325 a29.28067702191276,29.28067702191276 0 0,0 -0.25825435033151056,0.43284914591808865 l -7.074365960358044 -4.303830642597518" fill="#ff5d08" stroke="none" /><path d="M 117.75023020441432 111.22182372390056 l 18.037663203952345 11.403540941993048 a42.34005716662746,42.34005716662746 0 0,0 -0.39476082274111063,0.612677563382332 l -17.838697517834184 -11.712340105296834" fill="#f6ff19" stroke="none" /><path d="M 117.14729908036423 112.12312394758627 l 8.095029818021679 5.723178290840132 a30.913842721336863,30.913842721336863 0 0,0 -0.31093467990803486,0.4318610752766375 l -7.995315345738042 -5.861672971567901" fill="#ff740a" stroke="none" /><path d="M 116.93607887273984 112.41649034213515 l 13.9201128723698 10.205369751755862 a38.26033354688052,38.26033354688052 0 0,0 -0.3939698124762247,0.5277869454385226 l -13.742381793198485 -10.4434695767037" fill="#ffd513" stroke="none" /><path d="M 116.71984013943494 112.70617746262583 l 13.037444185374731 9.907754984315842 a37.3749369377716,37.3749369377716 0 0,0 -0.39367053607331803,0.5088722351970639 l -12.864966832083343 -10.130705213626158" fill="#ffca12" stroke="none" /><path d="M 116.0416608686014 113.55231037782055 l 11.944818712665635 10.091217606880951 a36.636859239242106,36.636859239242106 0 0,0 -0.4111309669299249,0.47823819677484863 l -11.76934523616493 -10.295332902817329" fill="#ffc011" stroke="none" /><path d="M 115.80600337817218 113.82643327865902 l 21.739654532880326 19.016944113466757 a49.883502949325624,49.883502949325624 0 0,0 -0.5709075467814967,0.6414206809583612 l -21.409088136450492 -19.388338964165985" fill="#9eff22" stroke="none" /><path d="M 115.32070863581623 114.36230785411682 l 12.053332710979221 11.29932558461955 a37.52142814979382,37.52142814979382 0 0,0 -0.4457785955370695,0.4673970752212786 l -11.857047564063187 -11.505129776423336" fill="#ffcb13" stroke="none" /><path d="M 114.0293411484842 115.62618273729858 l 15.6115465617951 17.388477249540184 a44.36834455216871,44.36834455216871 0 0,0 -0.5726847180828889,0.5053276787977284 l -15.309919490805624 -17.6546280701102" fill="#deff1b" stroke="none" /><path d="M 113.20401910651253 116.32954008644616 l 10.121066828575177 12.51682273114121 a37.09679611075751,37.09679611075751 0 0,0 -0.499998580159144,0.3972291116369479 l -9.904110755698682 -12.689185756783283" fill="#ffc612" stroke="none" /><path d="M 112.04921762599082 117.19931262002967 l 11.838194905952292 16.898094246809926 a41.632218683539236,41.632218683539236 0 0,0 -0.5904699863222252,0.4061306407852204 l -11.545568035007184 -17.09936567696024" fill="#ffff18" stroke="none" /><path d="M 111.45004920935366 117.60387380957326 l 11.596145859636371 17.828490049080514 a42.267949036710725,42.267949036710725 0 0,0 -0.6133244410304131,0.3914526767071821 l -11.287539616559027 -18.025457154611505" fill="#f7ff18" stroke="none" /><path d="M 111.1453310114006 117.79835938074945 l 7.373981411359142 11.775762522628114 a34.89403414579088,34.89403414579088 0 0,0 -0.511813729294088,0.31439779520323896 l -7.170188482132746 -11.90094878465973" fill="#ffa90f" stroke="none" /><line stroke="#e1ed5e" stroke-width="0.3" x1="143.8653032363475" x2="146.44561519142675" y1="172.8068346515853" y2="177.08958963109032" /><path d="M 144.38136562736335 173.6633856474863 a86.0,86.0 0 0,1 -40.68145358897372,12.25698825130547" fill="none" id="id78" stroke="none" /><text fill="#e1ed5e" style="font-size:6.75px; font-family:Arial;" text-anchor="middle"><textPath startOffset="21.466115282336833" xlink:href="#id78">June</textPath></text><path d="M 110.5260780823613 118.17145234162733 l 10.682609798531685 18.441677262826595 a42.31228782589848,42.31228782589848 0 0,0 -0.6333771358312535,0.35964806785282677 l -10.363583895779232 -18.62282849647405" fill="#f7ff19" stroke="none" /><path d="M 109.89434966115114 118.52300852407294 l 12.61808472563635 23.62205692488578 a47.78091924310817,47.78091924310817 0 0,0 -0.7287934818673513,0.38127030480586666 l -12.209600341242504 -23.835756648636362" fill="#b6ff1f" stroke="none" /><path d="M 109.2508944713604 118.85261126421891 l 6.104230540019796 12.439952244017224 a34.856913159832516,34.856913159832516 0 0,0 -0.5409250681621617,0.25967690468009547 l -5.889192803857402 -12.54318342519688" fill="#ffa90f" stroke="none" /><path d="M 108.92500713936063 119.00905698771935 l 5.219129210906148 11.116038681790116 a33.2802942023059,33.2802942023059 0 0,0 -0.5206496074158804,0.23900469851398443 l -5.027011607722849 -11.204230450638175" fill="#ff940d" stroke="none" /><path d="M 107.93186726928326 119.44442032107085 l 2.0398162363610584 5.000467472665265 a26.400511570518624,26.400511570518624 0 0,0 -0.4222559722976217,0.16802436574732876 l -1.9534391880215702 -5.034838682818663" fill="#ff3405" stroke="none" /><path d="M 107.59598834532513 119.57807347666477 l 3.3720110358425996 8.691098093177128 a30.322319694747193,30.322319694747193 0 0,0 -0.48823234592482095,0.18460769684759995 l -3.221908469157504 -8.74785404013136" fill="#ff6b09" stroke="none" /><path d="M 106.91757812671514 119.82793768551818 l 5.499886653708403 15.764391503725191 a37.69625085719434,37.69625085719434 0 0,0 -0.6145032201527917,0.20847285617588668 l -5.227713700618384 -15.856727346799202" fill="#ffce13" stroke="none" /><path d="M 106.57524785965236 119.94407469862006 l 7.39404569006027 22.427656373606027 a44.61507319656769,44.61507319656769 0 0,0 -0.731429399465884,0.23418059592983248 l -7.006894945503445 -22.551609816195565" fill="#dbff1b" stroke="none" /><path d="M 105.88484417918355 120.15858648285463 l 3.5009165244285883 11.992420933860604 a33.49298108402935,33.49298108402935 0 0,0 -0.5548173431617061,0.15679692309814677 l -3.2939680131622766 -12.050906650297271" fill="#ff970d" stroke="none" /><path d="M 105.53697534728816 120.25689768951611 l 1.868965547631628 6.837567716848649 a28.08839646892898,28.08839646892898 0 0,0 -0.467483952951927,0.12346676087013383 l -1.7509911518682035 -6.868725827022367" fill="#ff4c07" stroke="none" /><path d="M 104.48393922423573 120.51570834832081 l 4.185771268448843 19.151477810432247 a40.60356557964011,40.60356557964011 0 0,0 -0.6840899142137561,0.14335769280514216 l -3.855489892805709 -19.22069148396393" fill="#fff216" stroke="none" /><path d="M 104.13013068566511 120.58985236759428 l 2.8440629949829708 14.178446554750412 a35.460879676746686,35.460879676746686 0 0,0 -0.5995124143343402,0.11489798105874821 l -2.599582966076926 -14.225301734157627" fill="#ffb110" stroke="none" /><path d="M 102.70371172650421 120.8252237178851 l 0.4518524519523756 3.4803741490405895 a24.509583288033692,24.509583288033692 0 0,0 -0.4188484435482607,0.05071671347349901 l -0.3918765853527346 -3.4876363912394397" fill="#ff1902" stroke="none" /><path d="M 101.98527174616119 120.90594882070398 l 1.8276415854905679 19.24602086476972 a40.332604400136205,40.332604400136205 0 0,0 -0.6917150788091215,0.05968408758490965 l -1.4960821889399045 -19.274629204633293" fill="#ffef16" stroke="none" /><path d="M 101.62511606390274 120.93702456842531 l 0.9095212516368484 11.717728483524112 a32.7529736543894,32.7529736543894 0 0,0 -0.5624734283333058,0.038791460799960084 l -0.7076850625246122 -11.731648288840358" fill="#ff8d0d" stroke="none" /><path d="M 101.26447882468166 120.96189622390904 l 1.2421276099550898 20.59136898815664 a41.62879923325232,41.62879923325232 0 0,0 -0.7156425343249467,0.03699054466428524 l -0.8874970072166635 -20.609699339583127" fill="#ffff18" stroke="none" /><line stroke="#e1ed5e" stroke-width="0.3" x1="102.19456741930631" x2="102.32365962044197" y1="184.97166512339345" y2="189.96999836594603" /><path d="M 102.22038585953345 185.97133177190398 a86.0,86.0 0 0,1 -42.740103519485714,-10.115201625700543" fill="none" id="id79" stroke="none" /><text fill="#e1ed5e" style="font-size:6.75px; font-family:Arial;" text-anchor="middle"><textPath startOffset="22.20632615414155" xlink:href="#id79">July</textPath></text><path d="M 100.54218724476979 120.99299961872073 l 0.308484477100881 11.944239877700715 a32.9482228355797,32.9482228355797 0 0,0 -0.5670864704370193,0.009762907866938344 l -0.10283831677119372 -11.947780262846813" fill="#ff8f0d" stroke="none" /><path d="M 100.18074693466247 120.99922214144158 l 0.10150054776190721 11.792357939074604 a32.792794754614015,32.792794754614015 0 0,0 -0.5644949648487172,0.0 l 0.1015005477618991 -11.792357939074604" fill="#ff8d0d" stroke="none" /><path d="M 99.45781275523022 120.99299961872073 l -0.30650501168560024 11.86759676757788 a32.87155416784228,32.87155416784228 0 0,0 -0.5655154061745704,-0.01947749402657326 l 0.5107407695348137 -11.860562475125214" fill="#ff8e0d" stroke="none" /><path d="M 99.09653310690486 120.98055641714683 l -0.4681736796514714 10.872057818632857 a31.882133421623458,31.882133421623458 0 0,0 -0.5480871699828165,-0.028329846213369286 l 0.6552489180477769 -10.862388165657286" fill="#ff810b" stroke="none" /><path d="M 98.37488393609728 120.93702456842531 l -0.4121423999537511 5.309796478658159 a26.32576755056116,26.32576755056116 0 0,0 -0.4514940368166637,-0.03895680528437084 l 0.5034807545119565 -5.301915421095124" fill="#ff3304" stroke="none" /><path d="M 97.65516085044442 120.86867818915974 l -2.2826468749263253 20.31517729536248 a41.44301605188486,41.44301605188486 0 0,0 -0.7082267603363123,-0.08575639764578799 l 2.6320010583140268 -20.272875368991343" fill="#fffd17" stroke="none" /><path d="M 96.93821686468263 120.77559828337769 l -2.882682328169238 19.56031743000254 a40.771592636092834,40.771592636092834 0 0,0 -0.6934357463416876,-0.1083004023521684 l 3.2189539381194425 -19.507798720303267" fill="#fff417" stroke="none" /><path d="M 96.58105272829116 120.7198165907248 l -1.5859311657272974 9.611204931791743 a30.7411723064179,30.7411723064179 0 0,0 -0.5213571492897938,-0.09064462319733693 l 1.7511372864891412 -9.5824817300734" fill="#ff710a" stroke="none" /><path d="M 95.16358092515715 120.4354850818985 l -3.5734640122345285 15.099078343431742 a36.5161790356977,36.5161790356977 0 0,0 -0.6104230811528816,-0.15002714182759982 l 3.8328403781306206 -15.035329943290112" fill="#ffbe11" stroke="none" /><path d="M 94.46302465271185 120.25689768951611 l -3.4725853188264915 12.704373978482002 a34.17042015205513,34.17042015205513 0 0,0 -0.5660392449366657,-0.15996834463229742 l 3.690755731867771 -12.642716840511182" fill="#ffa00e" stroke="none" /><path d="M 94.11515582081647 120.15858648285463 l -4.6130409459153485 15.802013107862077 a37.46158452366407,37.46158452366407 0 0,0 -0.6174472333696247,-0.18603178641737955 l 4.884363153725219 -15.720265952338972" fill="#ffcb12" stroke="none" /><path d="M 93.76903079525671 120.05430185196036 l -8.3814099016897 26.97547020221864 a49.24754900112447,49.24754900112447 0 0,0 -0.8073752346511969,-0.258496054065741 l 8.844506481431837 -26.827201301493194" fill="#a5ff21" stroke="none" /><path d="M 92.7421414339146 119.70592522655815 l -8.97584201902051 24.370448950153275 a46.970839839759535,46.970839839759535 0 0,0 -0.7562971288439047,-0.2859668603559202 l 9.394009368624696 -24.21233383969072" fill="#bfff1e" stroke="none" /><path d="M 92.06813273071674 119.44442032107085 l -2.8283352340923704 6.933466891656127 a28.488153533021343,28.488153533021343 0 0,0 -0.45245772711813437,-0.18912736663078902 l 2.9472644207079672 -6.883754482005365" fill="#ff5207" stroke="none" /><path d="M 91.7346041902142 119.30500536409082 l -4.162849933488065 9.72292702555704 a31.57660765619341,31.57660765619341 0 0,0 -0.4978267599718882,-0.21823262179178338 l 4.329597368117697 -9.649829850470804" fill="#ff7d0b" stroke="none" /><path d="M 90.7491055286396 118.85261126421891 l -13.088625863394478 26.673612605710677 a50.7118450526292,50.7118450526292 0 0,0 -0.7803492649025934,-0.39128332120716364 l 13.545829035979832 -26.44436144359421" fill="#95ff23" stroke="none" /><path d="M 90.42595943632237 118.69057910512821 l -4.723505776651431 9.22129562590041 a31.360685297909086,31.360685297909086 0 0,0 -0.47833870494875513,-0.2502442027458335 l 4.881535384126681 -9.13862200420986" fill="#ff7a0b" stroke="none" /><line stroke="#e1ed5e" stroke-width="0.3" x1="58.666819895761336" x2="56.23545636021788" y1="174.27360380694188" y2="178.64263932499728" /><path d="M 58.180547188652646 175.14741091055294 a86.0,86.0 0 0,1 -31.652253787137756,-30.449443065178592" fill="none" id="id80" stroke="none" /><text fill="#e1ed5e" style="font-size:6.75px; font-family:Arial;" text-anchor="middle"><textPath startOffset="22.20632615414155" xlink:href="#id80">August</textPath></text><path d="M 89.4739219176387 118.17145234162733 l -9.579641768291578 16.53759381987436 a40.111816914148775,40.111816914148775 0 0,0 -0.5944802940528703,-0.35122943628882874 l 9.86288993337283 -16.37024581129178" fill="#ffec16" stroke="none" /><path d="M 89.1626897886671 117.98757091392108 l -9.765022636595246 16.20780744728706 a39.9221745405107,39.9221745405107 0 0,0 -0.5855647686861963,-0.35970170725500566 l 10.04256660521375 -16.037317273203676" fill="#ffea16" stroke="none" /><path d="M 87.65650970185807 116.9893568818739 l -7.908717920094895 10.885416359325001 a34.455114583513975,34.455114583513975 0 0,0 -0.47681781637712717,-0.35273842145175627 l 8.094920706890587 -10.747667989133477" fill="#ffa30f" stroke="none" /><path d="M 87.36589467227662 116.77436683061367 l -7.541271489983582 10.012585067234678 a33.534856816663286,33.534856816663286 0 0,0 -0.45810414356119333,-0.3512547227199177 l 7.712504362038262 -9.881291002687393" fill="#ff970d" stroke="none" /><path d="M 87.07902340077011 116.55440617244103 l -7.043579740437342 9.024262139606869 a32.44767761269688,32.44767761269688 0 0,0 -0.437336763190313,-0.3474467744947854 l 7.197873996345013 -8.901681451106953" fill="#ff890c" stroke="none" /><path d="M 86.51685102203217 116.09983520530335 l -8.170509186749118 9.75616687652323 a33.725565311345534,33.725565311345534 0 0,0 -0.4418603494812574,-0.3765629757834961 l 8.337235012807431 -9.614079510516783" fill="#ff9a0e" stroke="none" /><path d="M 85.44109423537348 115.13401014063109 l -16.331458393676368 16.976581958632746 a44.556758441316944,44.556758441316944 0 0,0 -0.5481543173949746,-0.5364843707614722 l 16.621262663447133 -16.692947484948704" fill="#dcff1b" stroke="none" /><path d="M 84.9287848128048 114.62390073753433 l -16.881139898667385 16.380106789549806 a44.521921322788145,44.521921322788145 0 0,0 -0.5289489376217686,-0.554600846386439 l 17.160595387668113 -16.087098826580867" fill="#dcff1b" stroke="none" /><path d="M 84.43433777217949 114.09645910891817 l -25.08246126286287 22.714991779214373 a54.83933679215349,54.83933679215349 0 0,0 -0.6276261566261131,-0.7051446403886487 l 25.46974626913732 -22.27987296908486" fill="#68ff28" stroke="none" /><path d="M 83.95833913139862 113.55231037782056 l -14.398053865544009 12.163758878879973 a39.8483682364983,39.8483682364983 0 0,0 -0.4381498868344193,-0.5277797641603604 l 14.605299752271964 -11.91411785760585" fill="#ffe915" stroke="none" /><path d="M 83.50135304334701 112.99209946851258 l -11.583949636403604 9.12194959440038 a35.744417709137124,35.744417709137124 0 0,0 -0.37649626284623233,-0.48667217193572665 l 11.739252716467906 -8.9211994283514" fill="#ffb410" stroke="none" /><path d="M 83.06392112726016 112.41649034213515 l -9.259065815009548 6.788177011522221 a32.48083824929335,32.48083824929335 0 0,0 -0.3266956856585739,-0.4537517337676169 l 9.37454129304373 -6.6277916723034656" fill="#ff890c" stroke="none" /><path d="M 82.85270091963577 112.12312394758628 l -26.30556407672608 18.59800848627581 a53.215968417080504,53.215968417080504 0 0,0 -0.5223757835231195,-0.7525212767920014 l 26.62180076741133 -18.142445947296796" fill="#79ff26" stroke="none" /><path d="M 82.24976979558568 111.22182372390057 l -18.5274856723726 11.713210243929838 a42.91955792342708,42.91955792342708 0 0,0 -0.389413973058677,-0.6278593166789448 l 18.72636428509923 -11.39255459588563" fill="#efff19" stroke="none" /><path d="M 82.05923443525364 110.91462005526583 l -17.3210662776585 10.537613720576635 a41.274630450864535,41.274630450864535 0 0,0 -0.3640405194280106,-0.6101528501329021 l 17.499887672784745 -10.237898776557621" fill="#fffb17" stroke="none" /><line stroke="#e1ed5e" stroke-width="0.3" x1="26.63291911575756" x2="22.317208475507996" y1="142.92168965132927" y2="145.44649492493687" /><path d="M 25.769776987707644 143.4266507060508 a86.0,86.0 0 0,1 -11.730757126820373,-40.83630448921669" fill="none" id="id81" stroke="none" /><text fill="#e1ed5e" style="font-size:6.75px; font-family:Arial;" text-anchor="middle"><textPath startOffset="21.46611528233685" xlink:href="#id81">September</textPath></text><path d="M 81.87401531095188 110.60418214915194 l -7.805675894778731 4.566527579353536 a30.043326285572483,30.043326285572483 0 0,0 -0.25729677435252507,-0.4486186136932856 l 7.883124665283634 -4.4314891198019435" fill="#ff6809" stroke="none" /><path d="M 81.35079622478065 109.6543875284942 l -9.936552706638409 5.143990686329811 a32.18908932276666,32.18908932276666 0 0,0 -0.25049446645215273,-0.4942493467262944 l 10.023625842876829 -4.972187127900832" fill="#ff850c" stroke="none" /><path d="M 81.18737489456691 109.33194174019688 l -20.27425165177949 10.056976853584148 a43.63157227134718,43.63157227134718 0 0,0 -0.32795721865769917,-0.6756890081543309 l 20.444362127051907 -9.706498889464532" fill="#e7ff1a" stroke="none" /><path d="M 81.02952815118164 109.00673069616217 l -22.383224772367814 10.627024949247103 a45.77786129758298,45.77786129758298 0 0,0 -0.33183583220370655,-0.714744861065271 l 22.562835221411344 -10.240160020903003" fill="#cdff1d" stroke="none" /><path d="M 80.87730276802145 108.67885076344099 l -9.74576822021684 4.423124360140098 a31.702524342763873,31.702524342763873 0 0,0 -0.2212517894740794,-0.49886437649748216 l 9.8204610944222 -4.25471164714992" fill="#ff7e0b" stroke="none" /><path d="M 80.73074385275274 108.34839909993369 l -21.441611876253035 9.289571528914992 a44.36747438305439,44.36747438305439 0 0,0 -0.29757691589660396,-0.7033839263796634 l 21.598339773341948 -8.91911307686917" fill="#deff1b" stroke="none" /><path d="M 80.32549172779594 107.34259656027581 l -27.274771685446307 10.179041935335288 a50.11230092614697,50.11230092614697 0 0,0 -0.2946501614087893,-0.8107506969881347 l 27.44594610786032 -9.708043441341037" fill="#9bff22" stroke="none" /><path d="M 80.0844068197444 106.66101706037122 l -23.94977861252973 8.010300395588166 a46.253847390382845,46.253847390382845 0 0,0 -0.2460434844675047,-0.7572439815748776 l 24.084114348013486 -7.596857514035484" fill="#c8ff1d" stroke="none" /><path d="M 79.86692584326677 105.97154293290107 l -8.566746884311941 2.5409282465617227 a29.935629162741904,29.935629162741904 0 0,0 -0.14227600999470064,-0.4952814556505374 l 8.609215531192746 -2.3930893154065895" fill="#ff6609" stroke="none" /><path d="M 79.50377843672027 104.57218783832718 l -23.111025888992327 5.1554844474469395 a44.679073831751545,44.679073831751545 0 0,0 -0.16098500335148405,-0.7520683409909085 l 23.19634493106825 -4.756902287039867" fill="#daff1c" stroke="none" /><path d="M 79.4281124754447 104.21870165774334 l -11.474625944297363 2.3531153101731968 a32.71341932249135,32.71341932249135 0 0,0 -0.10837498927908815,-0.5526017354916062 l 11.513430866552119 -2.1552498476136357" fill="#ff8c0c" stroke="none" /><path d="M 79.18660465613746 102.79330883721812 l -34.265588016201086 4.598690806416368 a55.57279970191946,55.57279970191946 0 0,0 -0.1190805768339802,-0.9491893617914524 l 34.339670102281914 -4.008183690337507" fill="#60ff29" stroke="none" /><path d="M 79.10278846688536 102.07522291339032 l -28.065062384609625 2.787035027806405 a49.203107823398646,49.203107823398646 0 0,0 -0.07644148843623684,-0.8435254551273886 l 28.108878469322935 -2.3035281841304505" fill="#a6ff21" stroke="none" /><path d="M 79.07016306316243 101.71520430193888 l -13.564330299824835 1.111599567325383 a34.60980198536423,34.60980198536423 0 0,0 -0.04354809868567818,-0.5941792074405501 l 13.581454957174849 -0.8779472233880722" fill="#ffa50f" stroke="none" /><path d="M 79.04373962182676 101.35467743843564 l -2.9825355234425137 0.19280031408412043 a23.988760631048837,23.988760631048837 0 0,0 -0.023090494763762688,-0.41229629532402295 l 2.9854123690938077 -0.1414323024246599" fill="#ff1101" stroke="none" /><path d="M 79.0235259727143 100.99374915477108 l -29.14096756385055 1.3805376369793592 a50.17365034966496,50.17365034966496 0 0,0 -0.033444004379281404,-0.863041147936339 l 29.160413701081033 -0.8787192420290233" fill="#9bff22" stroke="none" /><line stroke="#e1ed5e" stroke-width="0.3" x1="15.007084014347285" x2="10.007500721073583" y1="101.09737516637583" y2="101.16192664675087" /><path d="M 14.007167355692545 101.11028546245083 a86.0,86.0 0 0,1 10.666146001902534,-42.60595125391555" fill="none" id="id82" stroke="none" /><text fill="#e1ed5e" style="font-size:6.75px; font-family:Arial;" text-anchor="middle"><textPath startOffset="22.20632615414155" xlink:href="#id82">October</textPath></text><path d="M 79.00175016825051 100.2711162175752 l -50.62687643752168 0.6536624412685414 a71.63109610118285,71.63109610118285 0 0,0 -0.005306509064784776,-1.2330458241171076 l 50.63062724387597 0.21789286105224162" fill="#3dffb1" stroke="none" /><path d="M 79.00486145842228 99.54816195383935 l -14.026289327945186 -0.3018608880466314 a35.029537138015684,35.029537138015684 0 0,0 0.01816249063981159,-0.6027246423738043 l 14.019015142849728 0.54325567784543" fill="#ffab0f" stroke="none" /><path d="M 79.01574976396665 99.18683210126434 l -29.611676525845244 -1.1474922624213406 a50.633901618983806,50.633901618983806 0 0,0 0.04124587417908648,-0.8706352144265853 l 29.587537043432658 1.657038583470935" fill="#96ff23" stroke="none" /><path d="M 79.03285615573316 98.82574320788736 l -10.367832159589232 -0.5806464353613188 a31.38407886970773,31.38407886970773 0 0,0 0.034850389100593744,-0.5391200942388403 l 10.356301179484227 0.7590255938531709" fill="#ff7a0b" stroke="none" /><path d="M 79.05617556472873 98.46500227214037 l -6.645488095024237 -0.48705570264432574 a27.663312635513,27.663312635513 0 0,0 0.03889398022981667,-0.4746050736431213 l 6.636119630974924 0.6013746934952254" fill="#ff4606" stroke="none" /><path d="M 79.21141760316559 97.0276538004421 l -25.508021268948763 -3.6471303636628596 a46.7674350478796,46.7674350478796 0 0,0 0.1208027490622711,-0.7959391808217787 l 25.441462626447187 4.08566865687673" fill="#c2ff1e" stroke="none" /><line stroke="#e1ed5e" stroke-width="0.3" x1="26.266209847984243" x2="21.928928074336255" y1="57.711370442889674" y2="55.22380399835377" /><path d="M 25.398753493254645 57.213857153982495 a86.0,86.0 0 0,1 29.58750427330803,-30.492523968695096" fill="none" id="id83" stroke="none" /><text fill="#e1ed5e" style="font-size:6.75px; font-family:Arial;" text-anchor="middle"><textPath startOffset="21.46611528233685" xlink:href="#id83">November</textPath></text><line stroke="#e1ed5e" stroke-width="0.3" x1="56.762969772571076" x2="54.21961505331055" y1="26.818313649435495" y2="22.513508569990535" /><path d="M 56.25429882871897 25.957352633546506 a86.0,86.0 0 0,1 42.265352541879196,-11.944610805530505" fill="none" id="id84" stroke="none" /><text fill="#e1ed5e" style="font-size:6.75px; font-family:Arial;" text-anchor="middle"><textPath startOffset="22.20632615414155" xlink:href="#id84">December</textPath></text></svg>