<?xml version="1.0" encoding="utf-8" ?>
<svg baseProfile="full" height="200mm" version="1.1" viewBox="0,0,200,200" width="200mm" xmlns="http://www.w3.org/2000/svg" xmlns:ev="http://www.w3.org/2001/xml-events" xmlns:xlink="http://www.w3.org/1999/xlink"><defs /><rect fill="#1a1a1a" height="200" width="200" x="0" y="0" /><text alignment-baseline="middle" fill="#e1ed5e" style="dominant-baseline: central; font-size:9.0px; font-family:Arial;" text-anchor="middle" x="100.0" y="100.0">2017</text><line stroke="#e1ed5e" stroke-width="0.3" x1="100.0" x2="100.0" y1="15.0" y2="10.0" /><path d="M 100.0 14.0 a86.0,86.0 0 0,1 42.46469731375804,11.215312516191453" fill="none" id="id1" stroke="none" /><text fill="#e1ed5e" style="font-size:6.75px; font-family:Arial;" text-anchor="middle"><textPath startOffset="22.20632615414155" xlink:href="#id1">January</textPath></text><line stroke="#e1ed5e" stroke-width="0.3" x1="143.23703022742887" x2="145.7803849466894" y1="26.81831364943548" y2="22.513508569990506" /><path d="M 143.74570117128098 25.957352633546492 a86.0,86.0 0 0,1 28.547481713284135,27.462654790039103" fill="none" id="id2" stroke="none" /><text fill="#e1ed5e" style="font-size:6.75px; font-family:Arial;" text-anchor="middle"><textPath startOffset="19.985693538727396" xlink:href="#id2">February</textPath></text><line stroke="#e1ed5e" stroke-width="0.3" x1="172.23445277983987" x2="176.4835382374775" y1="55.19839476539836" y2="52.563006222186495" /><path d="M 173.08426987136738 54.67131705675599 a86.0,86.0 0 0,1 12.851231095245387,41.99856678651699" fill="none" id="id3" stroke="none" /><text fill="#e1ed5e" style="font-size:6.75px; font-family:Arial;" text-anchor="middle"><textPath startOffset="22.20632615414155" xlink:href="#id3">March</textPath></text><line stroke="#e1ed5e" stroke-width="0.3" x1="184.98032266829074" x2="189.97916517819016" y1="98.17113171792111" y2="98.06355123074" /><path d="M 185.9800911702706 98.14961562048488 a86.0,86.0 0 0,1 -9.607161424134198,41.387399972396054" fill="none" id="id4" stroke="none" /><text fill="#e1ed5e" style="font-size:6.75px; font-family:Arial;" text-anchor="middle"><textPath startOffset="21.466115282336823" xlink:href="#id4">April</textPath></text><line stroke="#e1ed5e" stroke-width="0.3" x1="174.80103733775053" x2="179.2010983576182" y1="140.37084112569926" y2="142.7455964860345" /><path d="M 175.68104954172406 140.8457921977663 a86.0,86.0 0 0,1 -30.038265399797805,32.042727171017184" fill="none" id="id5" stroke="none" /><text fill="#e1ed5e" style="font-size:6.75px; font-family:Arial;" text-anchor="middle"><textPath startOffset="22.206326154141568" xlink:href="#id5">May</textPath></text><line stroke="#e1ed5e" stroke-width="0.3" x1="143.8653032363475" x2="146.44561519142675" y1="172.8068346515853" y2="177.08958963109032" /><path d="M 144.38136562736335 173.6633856474863 a86.0,86.0 0 0,1 -40.68145358897372,12.25698825130547" fill="none" id="id6" stroke="none" /><text fill="#e1ed5e" style="font-size:6.75px; font-family:Arial;" text-anchor="middle"><textPath startOffset="21.466115282336833" xlink:href="#id6">June</textPath></text><path d="M 109.89434966115114 118.52300852407294 l 1.9077784258675787 3.571512757744634 a25.049113717955876,25.049113717955876 0 0,0 -0.3820694765480774,0.19988069241132056 l -1.8460180467930059 -3.6038228691006715" fill="#ff1f03" stroke="none" /><path d="M 108.92500713936063 119.00905698771935 l 4.782510141961374 10.186099172062086 a32.252956038350426,32.252956038350426 0 0,0 -0.5045775376049798,0.2316267995490445 l -4.606464608588974 -10.266913041945205" fill="#ff850c" stroke="none" /><path d="M 108.2653958097858 119.30500536409082 l 1.563113078456402 3.6508725121856402 a24.971421986678592,24.971421986678592 0 0,0 -0.3966039014042819,0.16578046295251866 l -1.5000377175546589 -3.677238018158132" fill="#ff1e03" stroke="none" /><path d="M 107.59598834532513 119.57807347666477 l 2.0090136215146353 5.1780774942658745 a26.554153605010768,26.554153605010768 0 0,0 -0.42755952839809735,0.16166642882561633 l -1.9195838723562633 -5.211892173198122" fill="#ff3505" stroke="none" /><path d="M 106.57524785965236 119.94407469862006 l 1.0501288076960456 3.1852559524607886 a24.353897135488804,24.353897135488804 0 0,0 -0.3992631879809374,0.1278314644755837 l -0.9951442746241679 -3.202860263596079" fill="#ff1502" stroke="none" /><path d="M 105.88484417918355 120.15858648285463 l 6.26408713303609 21.45768662050862 a43.35332419829818,43.35332419829818 0 0,0 -0.7181557260783008,0.20295798165338458 l -5.893800238853183 -21.562333395500527" fill="#ebff1a" stroke="none" /><path d="M 105.18746579009965 120.34920634021253 l 2.6935873710518043 10.56630875783969 a31.904232833697634,31.904232833697634 0 0,0 -0.533327435193207,0.13107890777845915 l -2.5113066511153863 -10.61110892393218" fill="#ff800b" stroke="none" /><path d="M 104.13013068566511 120.58985236759428 l 1.8369081481024587 9.15749898993085 a30.339915379442672,30.339915379442672 0 0,0 -0.5129358348026746,0.09830537353750853 l -1.6790046987280798 -9.187761561816828" fill="#ff6a09" stroke="none" /><path d="M 103.06178313531738 120.77559828337769 l 0.747340468931012 5.071046732319393 a26.12582020147695,26.12582020147695 0 0,0 -0.4454718688544008,0.061738341874306435 l -0.6599400088897808 -5.083159639686302" fill="#ff2f04" stroke="none" /><path d="M 102.70371172650421 120.8252237178851 l 0.9573922619798526 7.374272873122242 a28.43616166786101,28.43616166786101 0 0,0 -0.48595041029870667,0.058841827159873496 l -0.8303144286297656 -7.389660229007466" fill="#ff5007" stroke="none" /><path d="M 101.98527174616119 120.90594882070398 l 0.680707739774985 7.168208179615865 a28.200456342017592,28.200456342017592 0 0,0 -0.48364545685043875,0.041730965091005004 l -0.5572179651830046 -7.178863396985534" fill="#ff4c07" stroke="none" /><path d="M 101.26447882468166 120.96189622390904 l 0.4433785237201345 7.350106953725588 a28.363467712056696,28.363467712056696 0 0,0 -0.4875976316772139,0.02520322801909644 l -0.31679282362944094 -7.356649988506886" fill="#ff4f07" stroke="none" /><path d="M 100.90346689309514 120.98055641714683 l 0.3083916614279406 7.161555891661417 a28.168192813131398,28.168192813131398 0 0,0 -0.4845997520708904,0.016690595292688112 l -0.18507155768239794 -7.165803285380198" fill="#ff4c07" stroke="none" /><line stroke="#e1ed5e" stroke-width="0.3" x1="102.19456741930631" x2="102.32365962044197" y1="184.97166512339345" y2="189.96999836594603" /><path d="M 102.22038585953345 185.97133177190398 a86.0,86.0 0 0,1 -42.740103519485714,-10.115201625700543" fill="none" id="id7" stroke="none" /><text fill="#e1ed5e" style="font-size:6.75px; font-family:Arial;" text-anchor="middle"><textPath startOffset="22.20632615414155" xlink:href="#id7">July</textPath></text><path d="M 96.58105272829116 120.7198165907248 l -1.2006794899617583 7.276467532012646 a28.37486345514607,28.37486345514607 0 0,0 -0.48122556209001977,-0.08366723235309517 l 1.325754023523828 -7.254721721138544" fill="#ff4f07" stroke="none" /><path d="M 93.76903079525671 120.05430185196036 l -3.3553409496146913 10.79912578746063 a32.308378781308946,32.308378781308946 0 0,0 -0.5296707232914974,-0.1695838391477916 l 3.540733017997129 -10.739769101653133" fill="#ff850c" stroke="none" /><path d="M 91.40352486487194 119.15986991738527 l -2.1409984689467443 4.7718688780607526 a26.230163193767197,26.230163193767197 0 0,0 -0.410354670733143,-0.1883737027079697 l 2.222821135447307 -4.734308105018709" fill="#ff3004" stroke="none" /><line stroke="#e1ed5e" stroke-width="0.3" x1="58.666819895761336" x2="56.23545636021788" y1="174.27360380694188" y2="178.64263932499728" /><path d="M 58.180547188652646 175.14741091055294 a86.0,86.0 0 0,1 -31.652253787137756,-30.449443065178592" fill="none" id="id8" stroke="none" /><text fill="#e1ed5e" style="font-size:6.75px; font-family:Arial;" text-anchor="middle"><textPath startOffset="22.20632615414155" xlink:href="#id8">August</textPath></text><path d="M 89.4739219176387 118.17145234162733 l -1.633831073538321 2.8205266248995318 a24.25956659981454,24.25956659981454 0 0,0 -0.35954078860900157,-0.21242303532898887 l 1.6821397331757046 -2.7919850172767933" fill="#ff1402" stroke="none" /><path d="M 88.8546689885994 117.79835938074946 l -1.9492970720449947 3.1128990061049397 a24.672859825434713,24.672859825434713 0 0,0 -0.358012827826444,-0.22850072550951833 l 2.0025917019183623 -3.0788838517716175" fill="#ff1a02" stroke="none" /><path d="M 88.54995079064634 117.60387380957326 l -1.9250035783544757 2.9595960206569303 a24.530559075014306,24.530559075014306 0 0,0 -0.3519846715883738,-0.23327624719127021 l 1.9756629486828112 -2.926021752374342" fill="#ff1802" stroke="none" /><path d="M 88.24862548938628 117.40417183066458 l -2.6611765597620844 3.9412899381263387 a25.755589033821476,25.755589033821476 0 0,0 -0.3652916607717101,-0.2512509351859774 l 2.7286251051566848 -3.89489821357526" fill="#ff2a04" stroke="none" /><path d="M 87.95078237400918 117.19931262002967 l -2.0925241652143676 2.9869140387054007 a24.646959398817252,24.646959398817252 0 0,0 -0.3453774572709497,-0.24641764542258254 l 2.1436289503342043 -2.950452131438599" fill="#ff1902" stroke="none" /><path d="M 87.07902340077011 116.55440617244103 l -2.168731313012991 2.778587110563163 a24.524761245677613,24.524761245677613 0 0,0 -0.33054999588022665,-0.26260890815591337 l 2.216238801610576 -2.7408442884021187" fill="#ff1802" stroke="none" /><path d="M 86.79598089348748 116.32954008644616 l -3.0686420678318655 3.7950197779477866 a25.88044457559783,25.88044457559783 0 0,0 -0.3440002460758538,-0.2830887831029058 l 3.133512442452408 -3.7416358759877" fill="#ff2b04" stroke="none" /><path d="M 86.24171649860922 115.8653595955263 l -3.4994509749729743 4.035390613898092 a26.341398181466733,26.341398181466733 0 0,0 -0.34000178153424104,-0.3000120408746837 l 3.568395109413803 -3.9745554312511198" fill="#ff3204" stroke="none" /><path d="M 85.97065885151581 115.62618273729859 l -2.3486195883088934 2.615943149353026 a24.51556148164632,24.51556148164632 0 0,0 -0.311581638310687,-0.28462243906747103 l 2.3933007760864347 -2.575127943698979" fill="#ff1802" stroke="none" /><path d="M 85.70375840098266 115.38237550388516 l -2.1533660141469086 2.3169645250811257 a24.16311710206362,24.16311710206362 0 0,0 -0.3022278567681201,-0.2857753026859354 l 2.1929297053058456 -2.2795545856492594" fill="#ff1202" stroke="none" /><path d="M 85.44109423537348 115.13401014063109 l -4.979598281612454 5.176301853213162 a28.182652707866065,28.182652707866065 0 0,0 -0.3467137937739833,-0.3393324207882332 l 5.067962027762232 -5.089819329502359" fill="#ff4c07" stroke="none" /><path d="M 84.9287848128048 114.62390073753433 l -2.541928594635584 2.466484021901151 a24.541884302249258,24.541884302249258 0 0,0 -0.2915733023917521,-0.3057134418630505 l 2.5840084484062937 -2.4223634634556004" fill="#ff1802" stroke="none" /><path d="M 84.43433777217949 114.09645910891817 l -2.6139939251562594 2.3672657120277982 a24.526600514957188,24.526600514957188 0 0,0 -0.2807024467609747,-0.31537217464216494 l 2.6543552215655724 -2.321919367644769" fill="#ff1802" stroke="none" /><path d="M 83.95833913139862 113.55231037782056 l -22.651478748020548 19.136414428922237 a50.65285562416358,50.65285562416358 0 0,0 -0.5569498562111692,-0.6708819803287148 l 22.977524604125254 -18.74367119147976" fill="#96ff23" stroke="none" /><path d="M 83.72743513129214 113.27417163493432 l -5.264622932773035 4.294560136443309 a27.794078406215792,27.794078406215792 0 0,0 -0.2992258704089604,-0.3733302814160477 l 5.337766715236857 -4.203302021449002" fill="#ff4706" stroke="none" /><path d="M 83.06392112726016 112.41649034213515 l -1.6290523817723028 1.1943209120067004 a23.019953985469602,23.019953985469602 0 0,0 -0.23153711715785008,-0.32158480492371044 l 1.6493692913057605 -1.1661025016318518" fill="#ff0100" stroke="none" /><path d="M 82.85270091963577 112.12312394758628 l -51.44189724109269 36.36937184275885 a84.0,84.0 0 0,0 -0.8245563713514645,-1.1878349512519497 l 52.06031451960629 -35.47849562931989" fill="#4dd2ff" stroke="none" /><path d="M 82.24976979558568 111.22182372390057 l -9.536644986370222 6.029135832156825 a32.28264492389341,32.28264492389341 0 0,0 -0.29290406585930784,-0.47225461685012315 l 9.639013691897487 -5.8640848839414375" fill="#ff850c" stroke="none" /><line stroke="#e1ed5e" stroke-width="0.3" x1="26.63291911575756" x2="22.317208475507996" y1="142.92168965132927" y2="145.44649492493687" /><path d="M 25.769776987707644 143.4266507060508 a86.0,86.0 0 0,1 -11.730757126820373,-40.83630448921669" fill="none" id="id9" stroke="none" /><text fill="#e1ed5e" style="font-size:6.75px; font-family:Arial;" text-anchor="middle"><textPath startOffset="21.46611528233685" xlink:href="#id9">September</textPath></text><path d="M 81.51974371655577 109.97397251340807 l -5.684181299585989 3.0678074575236653 a27.45920735407998,27.45920735407998 0 0,0 -0.2209125813621226,-0.41788335085717065 l 5.736146389172998 -2.9695090915803686" fill="#ff4206" stroke="none" /><path d="M 81.35079622478065 109.6543875284942 l -3.199799652298015 1.6564839029682739 a24.603145394740476,24.603145394740476 0 0,0 -0.19146089275477976,-0.377770505304788 l 3.2278392148390616 -1.601159185960801" fill="#ff1902" stroke="none" /><path d="M 81.02952815118164 109.00673069616217 l -3.958967097420012 1.8796238051216358 a25.382511394991937,25.382511394991937 0 0,0 -0.18399345346048157,-0.3963055299278267 l 3.99073516772032 -1.811198207914982" fill="#ff2403" stroke="none" /><path d="M 80.87730276802145 108.67885076344099 l -10.952824340944797 4.970947703668089 a33.02807890380654,33.02807890380654 0 0,0 -0.2305028294072183,-0.5197230293434938 l 11.036768255083297 -4.781676337831899" fill="#ff8f0d" stroke="none" /><path d="M 80.73074385275274 108.34839909993369 l -2.8968926185172967 1.255077806025701 a24.157088396354826,24.157088396354826 0 0,0 -0.162023914184633,-0.3829766720419505 l 2.9180675138942362 -1.2050266083175918" fill="#ff1202" stroke="none" /><path d="M 80.45479744820244 107.68017299344265 l -2.7217658589613123 1.0695019705767344 a23.92435357918206,23.92435357918206 0 0,0 -0.14731217975313074,-0.3845856165277454 l 2.739772318307952 -1.0224927872158311" fill="#ff0f01" stroke="none" /><path d="M 80.20201598880116 107.00284435728193 l -5.633105219460774 1.9925139386799395 a26.975113907646453,26.975113907646453 0 0,0 -0.15107241580428862,-0.43908715575757623 l 5.6665684662082905 -1.8952540798330664" fill="#ff3b05" stroke="none" /><path d="M 80.0844068197444 106.66101706037122 l -2.3450465748510037 0.7843299017542577 a23.47273468714423,23.47273468714423 0 0,0 -0.12486125497112786,-0.3842834288556837 l 2.358200080838381 -0.7438475729207705" fill="#ff0801" stroke="none" /><path d="M 79.97269907076064 106.31721596034903 l -5.786425694681175 1.8252135363106052 a27.067464608318534,27.067464608318534 0 0,0 -0.13633395674752102,-0.44554725888084606 l 5.816986423934827 -1.7253393048777115" fill="#ff3c05" stroke="none" /><path d="M 79.67330655649465 105.27499134158121 l -5.945884615560919 1.543019771134796 a27.142837607789815,27.142837607789815 0 0,0 -0.11346828761383455,-0.45324940518139917 l 5.971564217469812 -1.4404425265560048" fill="#ff3d05" stroke="none" /><path d="M 79.50377843672027 104.57218783832718 l -5.254258290684741 1.1720919283551288 a26.38340316841908,26.38340316841908 0 0,0 -0.09506312202186025,-0.4441032579432354 l 5.273655451431042 -1.0814748509957297" fill="#ff3304" stroke="none" /><path d="M 79.35854240842038 103.8639653848113 l -11.35594664561986 2.125769682483027 a32.55319959842852,32.55319959842852 0 0,0 -0.09836268227441823,-0.5516701590818947 l 11.390855770233467 -1.9299807726679186" fill="#ff890c" stroke="none" /><path d="M 79.1416061653843 102.43462659150553 l -4.417675212442185 0.5156384345853806 a25.447666498046786,25.447666498046786 0 0,0 -0.047039040267760145,-0.4355230923260677 l 4.425896554210996 -0.43951902037453083" fill="#ff2503" stroke="none" /><path d="M 79.10278846688536 102.07522291339032 l -4.261536535646039 0.42319704956848525 a25.28249803122074,25.28249803122074 0 0,0 -0.03927865263774403,-0.4334366588201762 l 4.2681897845608585 -0.34977900219974284" fill="#ff2303" stroke="none" /><path d="M 79.07016306316243 101.71520430193888 l -2.2758808248318307 0.1865088864873682 a23.283510256945647,23.283510256945647 0 0,0 -0.029296688922035692,-0.39973004401343415 l 2.278754072418202 -0.1473057059771734" fill="#ff0500" stroke="none" /><path d="M 79.04373962182676 101.35467743843564 l -7.307330710446296 0.4723684412195869 a28.322582471784923,28.322582471784923 0 0,0 -0.027262035430647976,-0.4867819562137786 l 7.314379096764475 -0.3465147686703707" fill="#ff4e07" stroke="none" /><line stroke="#e1ed5e" stroke-width="0.3" x1="15.007084014347285" x2="10.007500721073583" y1="101.09737516637583" y2="101.16192664675087" /><path d="M 14.007167355692545 101.11028546245083 a86.0,86.0 0 0,1 10.666146001902534,-42.60595125391555" fill="none" id="id10" stroke="none" /><text fill="#e1ed5e" style="font-size:6.75px; font-family:Arial;" text-anchor="middle"><textPath startOffset="22.20632615414155" xlink:href="#id10">October</textPath></text><path d="M 79.12142395522702 97.74499172005258 l -2.5534003940471592 -0.27578217107573655 a23.568250256147838,23.568250256147838 0 0,0 0.04703509755039196,-0.40296799196174105 l 2.5482749434931784 0.3196939013623394" fill="#ff0a01" stroke="none" /><path d="M 79.16333360222342 97.38593545837743 l -3.820267455267407 -0.4792717560326642 a24.850213610425524,24.850213610425524 0 0,0 0.05689989022174908,-0.42397027297098205 l 3.8114515659878245 0.5449603710683056" fill="#ff1c02" stroke="none" /><path d="M 79.21141760316559 97.0276538004421 l -4.582443096667432 -0.6551965431343635 a25.62904604042023,25.62904604042023 0 0,0 0.06620117640312308,-0.4361830382566728 l 4.570486026825006 0.7339786937831284" fill="#ff2803" stroke="none" /><path d="M 79.26566170972629 96.67025291283419 l -4.706057649141951 -0.7557502694269939 a25.766354693766132,25.766354693766132 0 0,0 0.07409439025553337,-0.4373092855311153 l 4.6923513973661946 0.8366453432739371" fill="#ff2a04" stroke="none" /><path d="M 79.54389044137918 95.25157060432595 l -11.153710660929548 -2.5890850565414976 a32.4502673740721,32.4502673740721 0 0,0 0.1309865855279969,-0.5430239615166753 l 11.107491275140736 2.7806942497175697" fill="#ff870c" stroke="none" /><path d="M 79.71946130924805 94.55025226153421 l -2.745694642079739 -0.7378178358257842 a23.843099404946656,23.843099404946656 0 0,0 0.1099203549095318,-0.39544200067625984 l 2.7325875166038465 0.7849711399209865" fill="#ff0e01" stroke="none" /><path d="M 79.81627453868168 94.20196356495316 l -7.417454101259084 -2.1307597161291754 a28.71743236524714,28.71743236524714 0 0,0 0.14057060463051482,-0.47393419742326115 l 7.379677599516862 2.258123300298976" fill="#ff5407" stroke="none" /><path d="M 80.2630227832202 92.82701384747504 l -1.8043743235512029 -0.6557616140834784 a22.919841137697656,22.919841137697656 0 0,0 0.13795060724174377,-0.36963904268101394 l 1.7928191278078316 0.6867237937938339" fill="#ff0000" stroke="none" /><path d="M 80.38941819471856 92.48833698450439 l -4.600182192306595 -1.7620598298202854 a25.92610708838947,25.92610708838947 0 0,0 0.1632189801687189,-0.4153745013841733 l 4.569169662256185 1.8409833361002221" fill="#ff2c04" stroke="none" /><path d="M 80.65960295795068 91.81776055985345 l -4.375300869066066 -1.8510353875127288 a25.750746225665466,25.750746225665466 0 0,0 0.17622006957674535,-0.4067402166946017 l 4.34279008964664 1.9260747487939298" fill="#ff2904" stroke="none" /><path d="M 80.803312248108 91.48605970444005 l -4.13860024695509 -1.8355143275324917 a25.527375050807454,25.527375050807454 0 0,0 0.18160622317134176,-0.40014523994094453 l 4.106391706820397 1.906481576315507" fill="#ff2603" stroke="none" /><path d="M 81.26839172434947 90.50648371742162 l -9.346428031204463 -4.736937981642959 a31.478277453112998,31.478277453112998 0 0,0 0.24911394157505007,-0.4812088437479393 l 9.2635046564693 4.897119547651235" fill="#ff7a0b" stroke="none" /><path d="M 81.43458229118936 90.18545643968196 l -3.300981448573227 -1.7450523724790026 a24.73385676031087,24.73385676031087 0 0,0 0.20221918480170592,-0.3746814376659794 l 3.2704541645530494 1.8016147934774547" fill="#ff1b02" stroke="none" /><line stroke="#e1ed5e" stroke-width="0.3" x1="26.266209847984243" x2="21.928928074336255" y1="57.711370442889674" y2="55.22380399835377" /><path d="M 25.398753493254645 57.213857153982495 a86.0,86.0 0 0,1 29.58750427330803,-30.492523968695096" fill="none" id="id11" stroke="none" /><text fill="#e1ed5e" style="font-size:6.75px; font-family:Arial;" text-anchor="middle"><textPath startOffset="21.46611528233685" xlink:href="#id11">November</textPath></text><path d="M 81.78341655067845 89.55222093294921 l -4.783467176321895 -2.743467696439079 a26.51436063640688,26.51436063640688 0 0,0 0.2304733343705197,-0.39395363746821493 l 4.73553416748105 2.825400746261186" fill="#ff3405" stroke="none" /><path d="M 81.96595687620814 89.24020034530311 l -7.235069321351547 -4.3167189881498995 a29.424980172523625,29.424980172523625 0 0,0 0.26326137667421406,-0.4327324833341978 l 7.159692146391116 4.440619244691171" fill="#ff5e08" stroke="none" /><path d="M 82.54541684631803 88.32363383020206 l -9.391794307928938 -6.282706860728987 a32.29947812159028,32.29947812159028 0 0,0 0.3131135008201701,-0.45945542627692415 l 9.282256341440027 6.443440310276327" fill="#ff850c" stroke="none" /><path d="M 82.7489923806493 88.02491185347247 l -2.1914208702644906 -1.521213059932846 a23.667660886308646,23.667660886308646 0 0,0 0.23519724503495107,-0.3326698234653439 l 2.1649110054256613 1.5587093837299761" fill="#ff0b01" stroke="none" /><path d="M 83.39014120810768 87.1503855733568 l -6.640494664717161 -5.137177691447169 a29.39563958407217,29.39563958407217 0 0,0 0.313057849586099,-0.3975516774519698 l 6.551082734537091 5.250721762852186" fill="#ff5d08" stroke="none" /><path d="M 84.80347519578584 85.50635884689758 l -5.68001195936399 -5.417294818715557 a28.84917951198725,28.84917951198725 0 0,0 0.3458271164767153,-0.3564052425910144 l 5.585920579184156 5.514264256856695" fill="#ff5607" stroke="none" /><path d="M 85.83668400450813 84.49514656593479 l -7.621780385228782 -8.343709045058368 a32.30084142306435,32.30084142306435 0 0,0 0.4137414968671056,-0.3714612010122086 l 7.477027900765705 8.473669254839855" fill="#ff850c" stroke="none" /><path d="M 86.65592168130627 83.78471172551755 l -2.1431113881532293 -2.6042389840104523 a24.372682479551234,24.372682479551234 0 0,0 0.3262418196603998,-0.26379819623425027 l 2.097966169928329 2.6407432775088373" fill="#ff1502" stroke="none" /><path d="M 86.93701828274178 83.55741782278169 l -2.7102213629850738 -3.4113985951966845 a25.356941612150727,25.356941612150727 0 0,0 0.3440906123898203,-0.26856818084510864 l 2.6510981954358277 3.4575451652650147" fill="#ff2403" stroke="none" /><path d="M 87.22198572758235 83.33499621200491 l -2.58596086556098 -3.3725934798182866 a25.249891807837667,25.249891807837667 0 0,0 0.3471906369856022,-0.26149678976079643 l 2.527524074816988 3.4166068590849377" fill="#ff2203" stroke="none" /><path d="M 88.09926311788651 82.69761687909137 l -3.3502207591745883 -4.8708583081088666 a26.911788206023413,26.911788206023413 0 0,0 0.38393549579286046,-0.2592349606104669 l 3.2658805689751884 4.927805181017998" fill="#ff3a05" stroke="none" /><path d="M 89.00827224532344 82.1063720568725 l -2.0416949924854872 -3.323711374978176 a24.900714773794622,24.900714773794622 0 0,0 0.36715266058387735,-0.22120536990263037 l 1.9841802656839604 3.3583633543394256" fill="#ff1d02" stroke="none" /><line stroke="#e1ed5e" stroke-width="0.3" x1="56.762969772571076" x2="54.21961505331055" y1="26.818313649435495" y2="22.513508569990535" /><path d="M 56.25429882871897 25.957352633546506 a86.0,86.0 0 0,1 42.265352541879196,-11.944610805530505" fill="none" id="id12" stroke="none" /><text fill="#e1ed5e" style="font-size:6.75px; font-family:Arial;" text-anchor="middle"><textPath startOffset="22.20632615414155" xlink:href="#id12">December</textPath></text><path d="M 90.58718382345135 81.22770947309562 l -2.356874699982724 -4.700393142045728 a26.258189235964142,26.258189235964142 0 0,0 0.40578747063561493,-0.1991181495252595 l 2.2756159623366834 4.740266451705818" fill="#ff3104" stroke="none" /><path d="M 91.23893434514133 80.91482961587045 l -3.347738660290974 -7.292738720404156 a29.024424725903337,29.024424725903337 0 0,0 0.45584639408657196,-0.20452498942319342 l 3.2217101477376278 7.349284040343878" fill="#ff5808" stroke="none" /><path d="M 91.56875222667455 80.76684994638697 l -1.7861534957435545 -4.074528364722889 a25.4488341962011,25.4488341962011 0 0,0 0.40271718803328815,-0.172422482963442 l 1.7157525499199582 4.104670375649117" fill="#ff2503" stroke="none" /><path d="M 92.23578459929587 80.48803036053334 l -1.6188077797021547 -4.068167434769562 a25.378415798544466,25.378415798544466 0 0,0 0.40728349379750795,-0.1580196680647136 l 1.5485411209049704 4.095429806724827" fill="#ff2403" stroke="none" /><path d="M 92.57280143429618 80.3572730644239 l -3.2181121700659516 -8.510947707329759 a30.099037136753992,30.099037136753992 0 0,0 0.4861964463816547,-0.17907025438296148 l 3.0711333979117272 8.565081229519043" fill="#ff6709" stroke="none" /><path d="M 93.25333710446033 80.11325718540243 l -1.8020608146229067 -5.3118290496420775 a26.609184524707743,26.609184524707743 0 0,0 0.43501857778350567,-0.1434187855643094 l 1.7103594145969916 5.342061559465621" fill="#ff3605" stroke="none" /><path d="M 93.59665428221793 80.00007090966166 l -2.2150590653343953 -6.918418306632294 a28.264364977647045,28.264364977647045 0 0,0 0.4646320105393503,-0.1443634273873095 l 2.0956416820843162 6.955521868902129" fill="#ff4d07" stroke="none" /><path d="M 94.98787191387505 79.60689891045804 l -0.9916788248984393 -4.0348941960394855 a25.1549726912442,25.1549726912442 0 0,0 0.42137731180400134,-0.09972639554908742 l 0.9220778261319039 4.051366503729444" fill="#ff2103" stroke="none" /><path d="M 95.692805502759 79.44645832069477 l -1.002880384354591 -4.785654279692576 a25.88960693206142,25.88960693206142 0 0,0 0.4369593496388116,-0.08764993483740906 l 0.9203546252486431 4.802208170607196" fill="#ff2b04" stroke="none" /><path d="M 96.04723909329186 79.375362276772 l -1.7113701215469215 -8.929553190875076 a30.092068405021532,30.092068405021532 0 0,0 0.5095660162348159,-0.09311993240290685 l 1.5574089842092123 8.95768860462872" fill="#ff6709" stroke="none" /><path d="M 97.47563105711357 79.15227682838746 l -0.7800675929688087 -6.4422568971890275 a27.489312704669096,27.489312704669096 0 0,0 0.47024173434049854,-0.052837137955834834 l 0.6690591551185922 6.45472998861546" fill="#ff4206" stroke="none" /><path d="M 98.19473922651362 79.07773832637324 l -0.7209268676273677 -8.355258582901715 a29.3863032103317,29.3863032103317 0 0,0 0.5043386654941275,-0.0391463870266372 l 0.576998012770906 8.366430232116814" fill="#ff5d08" stroke="none" /><path d="M 99.63851952072746 79.00311137660856 l -0.1852578881460901 -10.760855611999423 a31.7624501851307,31.7624501851307 0 0,0 0.5467383674186231,-0.004705949739834856 l 2.63604003404063e-15 10.7624501851307" fill="#ff7e0b" stroke="none" /></svg>