<?xml version="1.0" encoding="utf-8" ?>
<svg baseProfile="full" height="200mm" version="1.1" viewBox="0,0,200,200" width="200mm" xmlns="http://www.w3.org/2000/svg" xmlns:ev="http://www.w3.org/2001/xml-events" xmlns:xlink="http://www.w3.org/1999/xlink"><defs /><rect fill="#1a1a1a" height="200" width="200" x="0" y="0" /><text alignment-baseline="middle" fill="#e1ed5e" style="dominant-baseline: central; font-size:9.0px; font-family:Arial;" text-anchor="middle" x="100.0" y="100.0">2017</text><line stroke="#e1ed5e" stroke-width="0.3" x1="100.0" x2="100.0" y1="15.0" y2="10.0" /><path d="M 100.0 14.0 a86.0,86.0 0 0,1 42.46469731375804,11.215312516191453" fill="none" id="id1" stroke="none" /><text fill="#e1ed5e" style="font-size:6.75px; font-family:Arial;" text-anchor="middle"><textPath startOffset="22.20632615414155" xlink:href="#id1">January</textPath></text><line stroke="#e1ed5e" stroke-width="0.3" x1="143.23703022742887" x2="145.7803849466894" y1="26.81831364943548" y2="22.513508569990506" /><path d="M 143.74570117128098 25.957352633546492 a86.0,86.0 0 0,1 28.547481713284135,27.462654790039103" fill="none" id="id2" stroke="none" /><text fill="#e1ed5e" style="font-size:6.75px; font-family:Arial;" text-anchor="middle"><textPath startOffset="19.985693538727396" xlink:href="#id2">February</textPath></text><line stroke="#e1ed5e" stroke-width="0.3" x1="172.23445277983987" x2="176.4835382374775" y1="55.19839476539836" y2="52.563006222186495" /><path d="M 173.08426987136738 54.67131705675599 a86.0,86.0 0 0,1 12.851231095245387,41.99856678651699" fill="none" id="id3" stroke="none" /><text fill="#e1ed5e" style="font-size:6.75px; font-family:Arial;" text-anchor="middle"><textPath startOffset="22.20632615414155" xlink:href="#id3">March</textPath></text><line stroke="#e1ed5e" stroke-width="0.3" x1="184.98032266829074" x2="189.97916517819016" y1="98.17113171792111" y2="98.06355123074" /><path d="M 185.9800911702706 98.14961562048488 a86.0,86.0 0 0,1 -9.607161424134198,41.387399972396054" fill="none" id="id4" stroke="none" /><text fill="#e1ed5e" style="font-size:6.75px; font-family:Arial;" text-anchor="middle"><textPath startOffset="21.466115282336823" xlink:href="#id4">April</textPath></text><line stroke="#e1ed5e" stroke-width="0.3" x1="174.80103733775053" x2="179.2010983576182" y1="140.37084112569926" y2="142.7455964860345" /><path d="M 175.68104954172406 140.8457921977663 a86.0,86.0 0 0,1 -30.038265399797805,32.042727171017184" fill="none" id="id5" stroke="none" /><text fill="#e1ed5e" style="font-size:6.75px; font-family:Arial;" text-anchor="middle"><textPath startOffset="22.206326154141568" xlink:href="#id5">May</textPath></text><line stroke="#e1ed5e" stroke-width="0.3" x1="143.8653032363475" x2="146.44561519142675" y1="172.8068346515853" y2="177.08958963109032" /><path d="M 144.38136562736335 173.6633856474863 a86.0,86.0 0 0,1 -40.68145358897372,12.25698825130547" fill="none" id="id6" stroke="none" /><text fill="#e1ed5e" style="font-size:6.75px; font-family:Arial;" text-anchor="middle"><textPath startOffset="21.466115282336833" xlink:href="#id6">June</textPath></text><path d="M 109.89434966115114 118.52300852407294 l 1.9102112720754751 3.576067239099135 a25.05427724786087,25.05427724786087 0 0,0 -0.38214823491015576,0.19992189506400992 l -1.8483721346388238 -3.608418553107861" fill="#ff1f03" stroke="none" /><path d="M 108.92500713936063 119.00905698771935 l 4.777179961327821 10.174746608883598 a32.24041444689209,32.24041444689209 0 0,0 -0.5043813321679287,0.2315367312561633 l -4.601330633392473 -10.255470410473837" fill="#ff840c" stroke="none" /><path d="M 108.2653958097858 119.30500536409082 l 1.5378190712658928 3.591794767364998 a24.907157169454496,24.907157169454496 0 0,0 -0.39558322756169073,0.16535382120353642 l -1.475764384206741 -3.6177336315885076" fill="#ff1d03" stroke="none" /><path d="M 107.59598834532513 119.57807347666477 l 2.009187370647289 5.178525319240184 a26.55463395485069,26.55463395485069 0 0,0 -0.4275672627116845,0.16166935328121607 l -1.9197498871753296 -5.212342922628031" fill="#ff3505" stroke="none" /><path d="M 106.57524785965236 119.94407469862006 l 1.031655866225325 3.1292237339864015 a24.294898329791213,24.294898329791213 0 0,0 -0.398295948482518,0.1275217849326064 l -0.9776385726518667 -3.1465183655787143" fill="#ff1402" stroke="none" /><path d="M 105.88484417918355 120.15858648285463 l 6.26425114644684 21.45824844991723 a43.353909478302356,43.353909478302356 0 0,0 -0.7181654213483667,0.20296072163354864 l -5.893954556993868 -21.5628979648893" fill="#ebff1a" stroke="none" /><path d="M 105.18746579009965 120.34920634021253 l 2.6789937862246775 10.509061562213386 a31.845154799495546,31.845154799495546 0 0,0 -0.5323398566288989,0.1308361849950193 l -2.4977006448525674 -10.553619005522435" fill="#ff7f0b" stroke="none" /><path d="M 104.13013068566511 120.58985236759428 l 1.8369870068216734 9.157892122620856 a30.340316343293345,30.340316343293345 0 0,0 -0.5129426136194543,0.0983066727138781 l -1.6790767786305147 -9.188155993683202" fill="#ff6a09" stroke="none" /><path d="M 103.06178313531738 120.77559828337769 l 0.7473639505951327 5.071206066145218 a26.125981256301785,26.125981256301785 0 0,0 -0.44547461500335434,0.061738722465528424 l -0.6599607444049479 -5.083319354103349" fill="#ff2f04" stroke="none" /><path d="M 102.70371172650421 120.8252237178851 l 0.9572408858352743 7.373106904855177 a28.434985914172117,28.434985914172117 0 0,0 -0.48593031764365,0.05883939421916397 l -0.8301831451402439 -7.388491827799692" fill="#ff5007" stroke="none" /><path d="M 101.98527174616119 120.90594882070398 l 0.6806270042871678 7.167357992743673 a28.199602330345165,28.199602330345165 0 0,0 -0.48363081031917493,0.041729701326658174 l -0.5571518762264512 -7.178011946348994" fill="#ff4c07" stroke="none" /><path d="M 101.26447882468166 120.96189622390904 l 0.44338709541518484 7.350249050990169 a28.36361006762054,28.36361006762054 0 0,0 -0.48760007891802704,0.0252033545134931 l -0.3167989480836782 -7.356792212265865" fill="#ff4f07" stroke="none" /><path d="M 100.90346689309514 120.98055641714683 l 0.3083999529892039 7.161748440575162 a28.168385540488494,28.168385540488494 0 0,0 -0.4846030677124044,0.01669070949008588 l -0.18507653360214724 -7.165995948491342" fill="#ff4c07" stroke="none" /><line stroke="#e1ed5e" stroke-width="0.3" x1="102.19456741930631" x2="102.32365962044197" y1="184.97166512339345" y2="189.96999836594603" /><path d="M 102.22038585953345 185.97133177190398 a86.0,86.0 0 0,1 -42.740103519485714,-10.115201625700543" fill="none" id="id7" stroke="none" /><text fill="#e1ed5e" style="font-size:6.75px; font-family:Arial;" text-anchor="middle"><textPath startOffset="22.20632615414155" xlink:href="#id7">July</textPath></text><path d="M 96.58105272829116 120.7198165907248 l -1.2003466040225816 7.274450146233565 a28.37281878929803,28.37281878929803 0 0,0 -0.4811908854307448,-0.08366120337139231 l 1.3253864609253763 -7.252710364341167" fill="#ff4f07" stroke="none" /><path d="M 93.76903079525671 120.05430185196036 l -3.355422993648323 10.799389845227816 a32.30865529121449,32.30865529121449 0 0,0 -0.5296752564561809,-0.1695852905239706 l 3.5408195951954444 -10.740031708044139" fill="#ff850c" stroke="none" /><path d="M 91.40352486487194 119.15986991738527 l -2.141029489709804 4.7719380173039445 a26.230238973201676,26.230238973201676 0 0,0 -0.41035585625549964,-0.18837424692313742 l 2.2228533417327228 -4.734376700046733" fill="#ff3004" stroke="none" /><line stroke="#e1ed5e" stroke-width="0.3" x1="58.666819895761336" x2="56.23545636021788" y1="174.27360380694188" y2="178.64263932499728" /><path d="M 58.180547188652646 175.14741091055294 a86.0,86.0 0 0,1 -31.652253787137756,-30.449443065178592" fill="none" id="id8" stroke="none" /><text fill="#e1ed5e" style="font-size:6.75px; font-family:Arial;" text-anchor="middle"><textPath startOffset="22.20632615414155" xlink:href="#id8">August</textPath></text><path d="M 89.4739219176387 118.17145234162733 l -1.6338119447413062 2.820493602341596 a24.259528437002697,24.259528437002697 0 0,0 -0.35954022301408833,-0.21242270116554474 l 1.6821200387837765 -2.791952328882302" fill="#ff1402" stroke="none" /><path d="M 88.8546689885994 117.79835938074946 l -1.9492606944740658 3.1128409135206883 a24.672791282922272,24.672791282922272 0 0,0 -0.358011833247831,-0.2285000907223906 l 2.00255432976882 -3.0788263939744938" fill="#ff1a02" stroke="none" /><path d="M 88.54995079064634 117.60387380957326 l -1.9249818409139765 2.9595626004372884 a24.530519207390846,24.530519207390846 0 0,0 -0.3519840995348667,-0.23327586806539882 l 1.975640639188805 -2.925988711280571" fill="#ff1802" stroke="none" /><path d="M 88.24862548938628 117.40417183066458 l -2.661214535327838 3.941346181187194 a25.755656897106753,25.755656897106753 0 0,0 -0.365292623277058,-0.2512515972059323 l 2.728664043227786 -3.8949537946161605" fill="#ff2a04" stroke="none" /><path d="M 87.95078237400918 117.19931262002967 l -2.092481934419099 2.9868537575591416 a24.646885796801904,24.646885796801904 0 0,0 -0.3453764258870577,-0.24641690955756054 l 2.1435856881550435 -2.950392586157362" fill="#ff1902" stroke="none" /><path d="M 87.07902340077011 116.55440617244103 l -2.168671718829618 2.778510758260417 a24.524664389388057,24.524664389388057 0 0,0 -0.3305486904303675,-0.2626078710275926 l 2.216177901977343 -2.7407689732276936" fill="#ff1802" stroke="none" /><path d="M 86.79598089348748 116.32954008644616 l -3.0686830304823824 3.7950704368599153 a25.880509723614804,25.880509723614804 0 0,0 -0.344001112016692,-0.28308949571326275 l 3.133554271043763 -3.7416858222894716" fill="#ff2b04" stroke="none" /><path d="M 86.24171649860922 115.8653595955263 l -3.4994166639034288 4.035351048100775 a26.34134581065606,26.34134581065606 0 0,0 -0.3400011055576354,-0.3000114444039237 l 3.5683601223676518 -3.9745164619245625" fill="#ff3204" stroke="none" /><path d="M 85.97065885151581 115.62618273729859 l -2.3485865576826908 2.6159063591292013 a24.515512039328044,24.515512039328044 0 0,0 -0.311581009921305,-0.2846218650486695 l 2.39326711707085 -2.5750917274939558" fill="#ff1702" stroke="none" /><path d="M 85.70375840098266 115.38237550388516 l -2.153371086589296 2.316969982894145 a24.1631245530632,24.1631245530632 0 0,0 -0.3022279499638623,-0.2857753908083267 l 2.1929348709439753 -2.2795599553398875" fill="#ff1202" stroke="none" /><path d="M 85.44109423537348 115.13401014063109 l -4.977005053739794 5.17360618792373 a28.178912194244624,28.178912194244624 0 0,0 -0.34666777654197195,-0.33928738324136665 l 5.06532278265756 -5.087168701759794" fill="#ff4c07" stroke="none" /><path d="M 84.9287848128048 114.62390073753433 l -2.541923392926955 2.4664789745795046 a24.541877054268266,24.541877054268266 0 0,0 -0.2915732162810963,-0.3057133515763721 l 2.584003160587009 -2.4223585064206326" fill="#ff1802" stroke="none" /><path d="M 84.43433777217949 114.09645910891817 l -2.614008925602396 2.36727929662012 a24.526620752410903,24.526620752410903 0 0,0 -0.28070267837492263,-0.31537243486289074 l 2.654370453625657 -2.321932692016365" fill="#ff1802" stroke="none" /><path d="M 83.95833913139862 113.55231037782056 l -22.647609259027316 19.13314540857145 a50.64779010946884,50.64779010946884 0 0,0 -0.55689415870614,-0.6708148890958927 l 22.973599417626993 -18.7404692623618" fill="#96ff23" stroke="none" /><path d="M 83.72743513129214 113.27417163493432 l -5.263923326235249 4.293989439854638 a27.793175553013974,27.793175553013974 0 0,0 -0.29921615045958067,-0.3733181542846859 l 5.337057388749691 -4.202743451991692" fill="#ff4706" stroke="none" /><path d="M 83.06392112726016 112.41649034213515 l -1.6287228694157676 1.1940793338336606 a23.019545404502352,23.019545404502352 0 0,0 -0.23153300760752943,-0.32157909711774646 l 1.6490356693989046 -1.165866631264776" fill="#ff0100" stroke="none" /><path d="M 82.85270091963577 112.12312394758628 l -51.44189724109269 36.36937184275885 a84.0,84.0 0 0,0 -0.8245563713514645,-1.1878349512519497 l 52.06031451960629 -35.47849562931989" fill="#4dd2ff" stroke="none" /><path d="M 82.24976979558568 111.22182372390057 l -9.536381152367644 6.028969034395038 a32.28233278630475,32.28233278630475 0 0,0 -0.2929012337998827,-0.47225005066858244 l 9.638747025835483 -5.863922652361191" fill="#ff850c" stroke="none" /><line stroke="#e1ed5e" stroke-width="0.3" x1="26.63291911575756" x2="22.317208475507996" y1="142.92168965132927" y2="145.44649492493687" /><path d="M 25.769776987707644 143.4266507060508 a86.0,86.0 0 0,1 -11.730757126820373,-40.83630448921669" fill="none" id="id9" stroke="none" /><text fill="#e1ed5e" style="font-size:6.75px; font-family:Arial;" text-anchor="middle"><textPath startOffset="21.46611528233685" xlink:href="#id9">September</textPath></text><path d="M 81.51974371655577 109.97397251340807 l -5.582032347204358 3.0126766829444973 a27.34313060887077,27.34313060887077 0 0,0 -0.21997873017371714,-0.4161168563397165 l 5.633063585602961 -2.916144811518655" fill="#ff4006" stroke="none" /><path d="M 81.35079622478065 109.6543875284942 l -3.144378972631158 1.6277935242772896 a24.540738747945696,24.540738747945696 0 0,0 -0.19097524621985681,-0.37681227861808636 l 3.1719328886372815 -1.5734270339565182" fill="#ff1802" stroke="none" /><path d="M 81.02952815118164 109.00673069616217 l -3.9400240887610942 1.870630113297541 a25.361541796290993,25.361541796290993 0 0,0 -0.1838414484511022,-0.39597812466062404 l 3.971640154052023 -1.8025319213580897" fill="#ff2403" stroke="none" /><path d="M 80.87730276802145 108.67885076344099 l -10.773434840511607 4.889531641702503 a32.83107847738148,32.83107847738148 0 0,0 -0.22912796422605966,-0.5166230713137886 l 10.856003889468946 -4.703360233896019" fill="#ff8c0c" stroke="none" /><path d="M 80.73074385275274 108.34839909993369 l -2.845580956116013 1.2328470446027608 a24.1011679756498,24.1011679756498 0 0,0 -0.16164885054712747,-0.3820901323948949 l 2.866380787855447 -1.1836823865417072" fill="#ff1101" stroke="none" /><path d="M 80.45479744820244 107.68017299344265 l -2.674535338567639 1.0509430139103901 a23.8736075751108,23.8736075751108 0 0,0 -0.14699971553340765,-0.38376987104908605 l 2.6922293336945557 -1.0047495760281462" fill="#ff0e01" stroke="none" /><path d="M 80.20201598880116 107.00284435728193 l -5.601843488733601 1.9814561948966425 a26.941954150324733,26.941954150324733 0 0,0 -0.1508867066850157,-0.4385473981284573 l 5.635121026361845 -1.8847360936788882" fill="#ff3b05" stroke="none" /><path d="M 80.0844068197444 106.66101706037122 l -2.3064818646882674 0.7714314563001232 a23.43207012314719,23.43207012314719 0 0,0 -0.12464494321362717,-0.3836176897207263 l 2.319419058918144 -0.7316148666015936" fill="#ff0801" stroke="none" /><path d="M 79.97269907076064 106.31721596034903 l -5.775733833187238 1.8218410000754939 a27.05625345749167,27.05625345749167 0 0,0 -0.13627748819481256,-0.4453627163833462 l 5.806238093888181 -1.7221513111401" fill="#ff3c05" stroke="none" /><path d="M 79.67330655649465 105.27499134158121 l -5.84484100763275 1.5167978891339375 a27.038447005728095,27.038447005728095 0 0,0 -0.11303189172074188,-0.4515062205160853 l 5.870084213648551 -1.4159638292204604" fill="#ff3c05" stroke="none" /><path d="M 79.50377843672027 104.57218783832718 l -5.163008129672751 1.1517363289029898 a26.289910161655097,26.289910161655097 0 0,0 -0.09472625353474887,-0.44252952052074496 l 5.182068421931941 -1.062692988966081" fill="#ff3104" stroke="none" /><path d="M 79.35854240842038 103.8639653848113 l -11.344789420554571 2.123681112368656 a32.541848572207066,32.541848572207066 0 0,0 -0.09832838403647289,-0.5514777963489351 l 11.379664246930233 -1.9280845652865073" fill="#ff890c" stroke="none" /><path d="M 79.1416061653843 102.43462659150553 l -4.336602897763048 0.5061755385101726 a25.366043789138278,25.366043789138278 0 0,0 -0.04688816380561358,-0.43412616366895124 l 4.344673363069714 -0.43145305295643926" fill="#ff2403" stroke="none" /><path d="M 79.10278846688536 102.07522291339032 l -4.188082353687844 0.41590259302137916 a25.208682545423617,25.208682545423617 0 0,0 -0.03916397358892808,-0.4321711850725432 l 4.194620923553847 -0.3437500194002698" fill="#ff2203" stroke="none" /><path d="M 79.07016306316243 101.71520430193888 l -2.236985569089429 0.1833214125392572 a23.244484612691686,23.244484612691686 0 0,0 -0.029247584549581835,-0.3990600538649068 l 2.2398097123033462 -0.14478822217758977" fill="#ff0500" stroke="none" /><path d="M 79.04373962182676 101.35467743843564 l -7.301699601035984 0.47200442890375127 a28.316939609199586,28.316939609199586 0 0,0 -0.02725660386663417,-0.4866849719895939 l 7.3087425557901495 -0.3462477405787198" fill="#ff4e07" stroke="none" /><line stroke="#e1ed5e" stroke-width="0.3" x1="15.007084014347285" x2="10.007500721073583" y1="101.09737516637583" y2="101.16192664675087" /><path d="M 14.007167355692545 101.11028546245083 a86.0,86.0 0 0,1 10.666146001902534,-42.60595125391555" fill="none" id="id10" stroke="none" /><text fill="#e1ed5e" style="font-size:6.75px; font-family:Arial;" text-anchor="middle"><textPath startOffset="22.20632615414155" xlink:href="#id10">October</textPath></text><path d="M 79.12142395522702 97.74499172005258 l -2.5057582698978758 -0.27063654312675517 a23.52033105873756,23.52033105873756 0 0,0 0.046939465329067384,-0.4021486734910455 l 2.5007284515652195 0.3137289549426624" fill="#ff0901" stroke="none" /><path d="M 79.16333360222342 97.38593545837743 l -3.808245004031991 -0.4777634790905694 a24.83809691809461,24.83809691809461 0 0,0 0.05687214645767977,-0.42376354970350527 l 3.7994568585164776 0.543245370858734" fill="#ff1c02" stroke="none" /><path d="M 79.21141760316559 97.0276538004421 l -4.514695328298548 -0.6455099845227266 a25.560609284676694,25.560609284676694 0 0,0 0.06602440065687445,-0.4350183069591611 l 4.502915034202371 0.7231274038739798" fill="#ff2703" stroke="none" /><path d="M 79.26566170972629 96.67025291283419 l -4.629650536153496 -0.7434799785524882 a25.68896860358595,25.68896860358595 0 0,0 0.0738718568302853,-0.4359958806584063 l 4.616166817802987 0.8230616475267224" fill="#ff2903" stroke="none" /><path d="M 79.54389044137918 95.25157060432595 l -11.15006377109785 -2.5882385124403333 a32.44652352012733,32.44652352012733 0 0,0 0.13097147333680023,-0.5429613117277847 l 11.103859497500235 2.7797850558275146" fill="#ff870c" stroke="none" /><path d="M 79.71946130924805 94.55025226153421 l -2.702832292833312 -0.7262999469554277 a23.798716494418475,23.798716494418475 0 0,0 0.10971574286667954,-0.39470590229252966 l 2.689929779400272 0.7727171526668999" fill="#ff0d01" stroke="none" /><path d="M 79.81627453868168 94.20196356495316 l -7.314042977005823 -2.10105353193842 a28.60983906620627,28.60983906620627 0 0,0 0.140043940028053,-0.47215854620275843 l 7.276793139866063 2.2266414648877175" fill="#ff5207" stroke="none" /><path d="M 80.2630227832202 92.82701384747504 l -1.8061547908692681 -0.6564086872029958 a22.92173554195565,22.92173554195565 0 0,0 0.1379620093372549,-0.36966959462821847 l 1.7945881930303855 0.6874014188605557" fill="#ff0000" stroke="none" /><path d="M 80.38941819471856 92.48833698450439 l -4.521348569770975 -1.731863295487027 a25.841688069632866,25.841688069632866 0 0,0 0.1626875164167055,-0.41402198410482177 l 4.490867503472579 1.8094342844876123" fill="#ff2b04" stroke="none" /><path d="M 80.65960295795068 91.81776055985345 l -4.312260912779296 -1.8243654067717299 a25.682296799361346,25.682296799361346 0 0,0 0.17575164964980053,-0.40565903892042865 l 4.280218553286814 1.8983235902787579" fill="#ff2803" stroke="none" /><path d="M 80.803312248108 91.48605970444005 l -4.076340681728341 -1.8079015316158724 a25.45926690180488,25.45926690180488 0 0,0 0.18112168985434657,-0.3990776350042706 l 4.044616674910643 1.877801175462214" fill="#ff2503" stroke="none" /><path d="M 81.26839172434947 90.50648371742162 l -9.346856999319243 -4.737155390405862 a31.478758369128208,31.478758369128208 0 0,0 0.24911774746577245,-0.4812161955174243 l 9.263929818693358 4.897344308183621" fill="#ff7a0b" stroke="none" /><path d="M 81.43458229118936 90.18545643968196 l -3.2452217163555654 -1.7155751837970483 a24.670784956867678,24.670784956867678 0 0,0 0.20170352204842587,-0.37372599289975095 l 3.215210095088668 1.7711821600292719" fill="#ff1a02" stroke="none" /><line stroke="#e1ed5e" stroke-width="0.3" x1="26.266209847984243" x2="21.928928074336255" y1="57.711370442889674" y2="55.22380399835377" /><path d="M 25.398753493254645 57.213857153982495 a86.0,86.0 0 0,1 29.58750427330803,-30.492523968695096" fill="none" id="id11" stroke="none" /><text fill="#e1ed5e" style="font-size:6.75px; font-family:Arial;" text-anchor="middle"><textPath startOffset="21.46611528233685" xlink:href="#id11">November</textPath></text><path d="M 81.78341655067845 89.55222093294921 l -4.701016606234185 -2.6961797215767644 a26.41931196953371,26.41931196953371 0 0,0 0.22964713367565348,-0.39254139266379845 l 4.653909798088206 2.7767005265944547" fill="#ff3304" stroke="none" /><path d="M 81.96595687620814 89.24020034530311 l -7.124286550059052 -4.25062175104577 a29.29597758662689,29.29597758662689 0 0,0 0.26210720772801305,-0.43083533305493427 l 7.050063544044822 4.3726248573077795" fill="#ff5c08" stroke="none" /><path d="M 82.54541684631803 88.32363383020206 l -9.390733296947305 -6.281997089970062 a32.29820159551011,32.29820159551011 0 0,0 0.31310112608308155,-0.45943726787720907 l 9.281207705195484 6.442712381117687" fill="#ff850c" stroke="none" /><path d="M 82.7489923806493 88.02491185347247 l -2.157416744644413 -1.4976085024118544 a23.626266977397457,23.626266977397457 0 0,0 0.23478589330129618,-0.33208799561018854 l 2.1313182315392383 1.534522998353829" fill="#ff0a01" stroke="none" /><path d="M 83.39014120810768 87.1503855733568 l -6.640040367982596 -5.136826241266431 a29.39506521245677,29.39506521245677 0 0,0 0.31305173264000347,-0.39754390955161406 l 6.550634554748622 5.250362544771093" fill="#ff5d08" stroke="none" /><path d="M 84.80347519578584 85.50635884689758 l -5.581999339847752 -5.323815569081457 a28.71373637374618,28.71373637374618 0 0,0 0.3442035032323593,-0.35473196642307214 l 5.4895315729122744 5.419111731054653" fill="#ff5407" stroke="none" /><path d="M 85.83668400450813 84.49514656593479 l -7.61006499309767 -8.330883980788581 a32.28347096865723,32.28347096865723 0 0,0 0.4135189987063446,-0.3712614399666158 l 7.4655350067953545 8.460644429524475" fill="#ff850c" stroke="none" /><path d="M 86.65592168130627 83.78471172551755 l -2.1093287352874914 -2.563187407287667 a24.319517645440012,24.319517645440012 0 0,0 0.3255301789849452,-0.2632227656326577 l 2.0648951577380457 2.599116270184459" fill="#ff1502" stroke="none" /><path d="M 86.93701828274178 83.55741782278169 l -2.664538907027338 -3.353897363670818 a25.283502668739743,25.283502668739743 0 0,0 0.34309405486336225,-0.26779035188857453 l 2.60641229700455 3.399266104782614" fill="#ff2303" stroke="none" /><path d="M 87.22198572758235 83.33499621200491 l -2.552267455668515 -3.328650751979859 a25.194518446010306,25.194518446010306 0 0,0 0.34642924311860324,-0.26092332368552307 l 2.494592058791522 3.3720906651712363" fill="#ff2103" stroke="none" /><path d="M 88.09926311788651 82.69761687909137 l -3.296684058632543 -4.793021741097621 a26.81731752555045,26.81731752555045 0 0,0 0.3825877352030548,-0.25832494664395644 l 3.213691629022949 4.849058600040244" fill="#ff3905" stroke="none" /><path d="M 89.00827224532344 82.1063720568725 l -2.00721376638312 -3.267578777385763 a24.834837437282022,24.834837437282022 0 0,0 0.3661813214238371,-0.22062014892709414 l 1.9506703787416337 3.3016455357714767" fill="#ff1c02" stroke="none" /><line stroke="#e1ed5e" stroke-width="0.3" x1="56.762969772571076" x2="54.21961505331055" y1="26.818313649435495" y2="22.513508569990535" /><path d="M 56.25429882871897 25.957352633546506 a86.0,86.0 0 0,1 42.265352541879196,-11.944610805530505" fill="none" id="id12" stroke="none" /><text fill="#e1ed5e" style="font-size:6.75px; font-family:Arial;" text-anchor="middle"><textPath startOffset="22.20632615414155" xlink:href="#id12">December</textPath></text><path d="M 90.58718382345135 81.22770947309562 l -2.3165000788963215 -4.619872700263816 a26.168113425822767,26.168113425822767 0 0,0 0.4043954616576059,-0.1984350967651791 l 2.2366333502282894 4.659062957163824" fill="#ff2f04" stroke="none" /><path d="M 91.23893434514133 80.91482961587045 l -3.288125308573336 -7.16287655300113 a28.881533388777456,28.881533388777456 0 0,0 0.45360219798655727,-0.20351808404986296 l 3.1643409921200045 7.218414967567521" fill="#ff5608" stroke="none" /><path d="M 91.56875222667455 80.76684994638697 l -1.7587654076238373 -4.012051347957393 a25.380617739280726,25.380617739280726 0 0,0 0.401637691051353,-0.17196029869242593 l 1.6894439587821761 4.041731174612606" fill="#ff2403" stroke="none" /><path d="M 92.23578459929587 80.48803036053334 l -1.5961830474945606 -4.011310036416651 a25.317222316416654,25.317222316416654 0 0,0 0.40630143505134775,-0.15763864452840146 l 1.5268984474435365 4.038191384835605" fill="#ff2303" stroke="none" /><path d="M 92.57280143429618 80.3572730644239 l -3.1591289879560676 -8.354954767363704 a29.932265397268367,29.932265397268367 0 0,0 0.483502545353313,-0.1780780678994572 l 3.014844116830185 8.408096103069484" fill="#ff6509" stroke="none" /><path d="M 93.25333710446033 80.11325718540243 l -1.7720003216361824 -5.223221496224488 a26.5156167323791,26.5156167323791 0 0,0 0.4334888906220163,-0.14291447175750155 l 1.6818286087717567 5.2529496922412235" fill="#ff3405" stroke="none" /><path d="M 93.59665428221793 80.00007090966166 l -2.1728492056140323 -6.786581882592894 a28.125936241608933,28.125936241608933 0 0,0 0.4623564093718493,-0.14365638702750805 l 2.055707423531454 6.822978404502927" fill="#ff4b07" stroke="none" /><path d="M 94.98787191387505 79.60689891045804 l -0.9747491136247091 -3.9660114166113836 a25.084039959550346,25.084039959550346 0 0,0 0.4201890996692899,-0.09944518412639561 l 0.9063363269928851 3.9822025128786502" fill="#ff2003" stroke="none" /><path d="M 95.692805502759 79.44645832069477 l -0.9876583815624174 -4.713016262293582 a25.815391091834,25.815391091834 0 0,0 0.4357067502708965,-0.08739867518804834 l 0.9063852218243844 4.729318893558841" fill="#ff2a04" stroke="none" /><path d="M 96.04723909329186 79.375362276772 l -1.681484054201818 -8.77361425945155 a29.93329143139227,29.93329143139227 0 0,0 0.5068773559262881,-0.09262859691700759 l 1.5302115771726363 8.801258337719293" fill="#ff6509" stroke="none" /><path d="M 97.47563105711357 79.15227682838746 l -0.7695038841943009 -6.355015578198366 a27.40143415391692,27.40143415391692 0 0,0 0.4687384533177608,-0.052668226817192104 l 0.6599987273668222 6.367319758486157" fill="#ff4106" stroke="none" /><path d="M 98.19473922651362 79.07773832637324 l -0.7091208220669619 -8.218431162634593 a29.24896739690807,29.24896739690807 0 0,0 0.501981657184138,-0.03896343781841528 l 0.5675489755204897 8.229419862641471" fill="#ff5b08" stroke="none" /><path d="M 99.63851952072746 79.00311137660856 l -0.18526129254262344 -10.761053359150209 a31.7626479615842,31.7626479615842 0 0,0 0.5467417718151565,-0.004705979042550625 l 2.6360884753007754e-15 10.7626479615842" fill="#ff7e0b" stroke="none" /></svg>